<?xml version="1.0" encoding="utf-8"?>
<!-- Generator: Adobe Illustrator 21.0.2, SVG Export Plug-In . SVG Version: 6.00 Build 0)  -->
<svg version="1.1" id="Layer_1" xmlns="http://www.w3.org/2000/svg" xmlns:xlink="http://www.w3.org/1999/xlink" x="0px" y="0px"
	 viewBox="0 0 443 275" style="enable-background:new 0 0 443 275;" xml:space="preserve">
<style type="text/css">
	.st0{fill:#FFFFFF;}
</style>
<g>
	<path class="st0" d="M57.3,62.7h-4.4V35.4h4.4V62.7z"/>
	<path class="st0" d="M83.3,51.1H69.1v11.7h-4.4V35.4h19.5v4.2H69.1v7.3h14.2V51.1z"/>
	<path class="st0" d="M111.4,51.7v11.1H107V51.6L96.4,35.4h5.3l7.6,12.2l7.6-12.2h5.1L111.4,51.7z"/>
	<path class="st0" d="M151.3,49.1c0,8.2-5.9,14.2-14.3,14.2s-14.3-6-14.3-14.2s5.9-14.2,14.3-14.2S151.3,40.9,151.3,49.1z
		 M127.4,49.1c0,5.9,4.1,9.9,9.7,9.9s9.7-4,9.7-9.9s-4.1-9.9-9.7-9.9S127.4,43.2,127.4,49.1z"/>
	<path class="st0" d="M180,52c0,7.6-5.1,11.3-11.6,11.3s-11.6-3.7-11.6-11.3V35.4h4.4v16.2c0,5.2,2.9,7.4,7.2,7.4
		c4.2,0,7.2-2.1,7.2-7.4V35.4h4.4V52z"/>
	<path class="st0" d="M221.7,40.6l-3.7,2.5c-1.7-2.4-4.4-3.9-7.6-3.9c-5.6,0-9.7,4-9.7,9.9s4.1,9.9,9.7,9.9c3.2,0,5.9-1.5,7.6-3.9
		l3.6,2.6c-2.3,3.4-6.4,5.5-11.2,5.5c-8.4,0-14.3-6-14.3-14.2s5.9-14.2,14.3-14.2C215.3,34.9,219.6,37.1,221.7,40.6z"/>
	<path class="st0" d="M251.4,62.7h-4.7l-2.7-7h-12.4l-2.7,7h-4.6l10.8-27.3h5.5L251.4,62.7z M233.3,51.6h9.1l-4.6-11.8L233.3,51.6z"
		/>
	<path class="st0" d="M279.4,62.7h-4L260.2,43l0,19.8h-4.4V35.4h4L275,55.2V35.4h4.4V62.7z"/>
	<path class="st0" d="M315.8,39.6H307v23.1h-4.4V39.6h-8.8v-4.2h22.1V39.6z"/>
	<path class="st0" d="M342.3,62.7h-4.7l-2.7-7h-12.4l-2.7,7h-4.6L326,35.4h5.5L342.3,62.7z M324.1,51.6h9.1l-4.6-11.8L324.1,51.6z"
		/>
	<path class="st0" d="M366.1,62.7h-19.5V35.4h4.4v23.1h15.1V62.7z"/>
	<path class="st0" d="M377.6,51.1h-2.6v11.6h-4.4V35.4h4.4v11.5h2.7l10.3-11.5h5.7l-12.3,13.3l13.1,14h-6L377.6,51.1z"/>
	<path class="st0" d="M87.5,95.7v11.1h-4.4V95.6L72.5,79.4h5.3l7.6,12.2l7.6-12.2H98L87.5,95.7z"/>
	<path class="st0" d="M127.4,93.1c0,8.2-5.9,14.2-14.3,14.2s-14.3-6-14.3-14.2s5.9-14.2,14.3-14.2S127.4,84.9,127.4,93.1z
		 M103.5,93.1c0,5.9,4.1,9.9,9.7,9.9s9.7-4,9.7-9.9s-4.1-9.9-9.7-9.9S103.5,87.2,103.5,93.1z"/>
	<path class="st0" d="M156.2,96c0,7.6-5.1,11.3-11.6,11.3c-6.5,0-11.6-3.7-11.6-11.3V79.4h4.4v16.2c0,5.2,2.9,7.4,7.2,7.4
		c4.2,0,7.2-2.1,7.2-7.4V79.4h4.4V96z"/>
	<path class="st0" d="M197.9,84.6l-3.7,2.5c-1.7-2.4-4.4-3.9-7.6-3.9c-5.6,0-9.7,4-9.7,9.9s4.1,9.9,9.7,9.9c3.2,0,5.9-1.5,7.6-3.9
		l3.6,2.6c-2.3,3.4-6.4,5.5-11.2,5.5c-8.4,0-14.3-6-14.3-14.2s5.9-14.2,14.3-14.2C191.4,78.9,195.7,81.1,197.9,84.6z"/>
	<path class="st0" d="M227.6,106.7h-4.7l-2.7-7h-12.4l-2.7,7h-4.6l10.8-27.3h5.5L227.6,106.7z M209.4,95.6h9.1l-4.6-11.8L209.4,95.6
		z"/>
	<path class="st0" d="M255.5,106.7h-4L236.3,87l0,19.8h-4.4V79.4h4l15.2,19.8V79.4h4.4V106.7z"/>
	<path class="st0" d="M291.3,85.5c-2.3-1.5-4.9-2.3-7.7-2.3c-3.6,0-6.1,1.6-6.1,4.1c0,2.3,2.1,3.1,5.7,3.6l1.9,0.3
		c4.4,0.6,8.8,2.4,8.8,7.5c0,5.6-5,8.6-10.9,8.6c-3.7,0-8.2-1.2-11-3.7l2.4-3.5c1.9,1.7,5.4,3,8.6,3c3.6,0,6.4-1.5,6.4-4
		c0-2.1-2.1-3.1-6.1-3.7L281,95c-4.1-0.6-8.1-2.5-8.1-7.5c0-5.5,4.9-8.5,10.8-8.5c4,0,7.1,1.1,9.9,2.9L291.3,85.5z"/>
	<path class="st0" d="M304.2,106.7h-4.4V79.4h4.4V106.7z"/>
	<path class="st0" d="M335.2,106.7h-4L316,87l0,19.8h-4.4V79.4h4l15.2,19.8V79.4h4.4V106.7z"/>
	<path class="st0" d="M366,83.3l-3.2,3.1c-1.7-2-4.3-3.3-7.3-3.3c-5.6,0-9.7,4-9.7,9.9s4.1,9.9,9.5,9.9c5,0,7.9-2.6,8.6-7.1h-7.2
		v-4.1h12c0,0.4,0,0.7,0,1.1c0,7.8-5,14.3-13.4,14.3c-7,0-14.1-5-14.1-14.1c0-8.2,6-14.2,14.3-14.2C359.8,78.9,363.6,80.6,366,83.3z
		"/>
	<path class="st0" d="M47.7,194.7h-4.4v-27.3h4.4V194.7z"/>
	<path class="st0" d="M73.7,183.1H59.6v11.7h-4.4v-27.3h19.5v4.2H59.6v7.3h14.2V183.1z"/>
	<path class="st0" d="M101.8,183.7v11.1h-4.4v-11.2l-10.6-16.1H92l7.6,12.2l7.6-12.2h5.1L101.8,183.7z"/>
	<path class="st0" d="M141.8,181.1c0,8.2-5.9,14.2-14.3,14.2s-14.3-6-14.3-14.2s5.9-14.2,14.3-14.2S141.8,172.9,141.8,181.1z
		 M117.8,181.1c0,5.9,4.1,9.9,9.7,9.9s9.7-4,9.7-9.9c0-5.9-4.1-9.9-9.7-9.9S117.8,175.2,117.8,181.1z"/>
	<path class="st0" d="M170.5,184c0,7.6-5.1,11.3-11.6,11.3c-6.5,0-11.6-3.7-11.6-11.3v-16.5h4.4v16.2c0,5.2,2.9,7.4,7.2,7.4
		c4.2,0,7.2-2.1,7.2-7.4v-16.2h4.4V184z"/>
	<path class="st0" d="M212.2,172.6l-3.7,2.5c-1.7-2.4-4.4-3.9-7.6-3.9c-5.6,0-9.7,4-9.7,9.9c0,5.9,4.1,9.9,9.7,9.9
		c3.2,0,5.9-1.5,7.6-3.9l3.6,2.6c-2.3,3.4-6.4,5.5-11.2,5.5c-8.4,0-14.3-6-14.3-14.2s5.9-14.2,14.3-14.2
		C205.7,166.9,210,169.1,212.2,172.6z"/>
	<path class="st0" d="M241.9,194.7h-4.7l-2.7-7h-12.4l-2.7,7h-4.6l10.8-27.3h5.5L241.9,194.7z M223.7,183.6h9.1l-4.6-11.8
		L223.7,183.6z"/>
	<path class="st0" d="M269.8,194.7h-4L250.6,175l0,19.8h-4.4v-27.3h4l15.2,19.8v-19.8h4.4V194.7z"/>
	<path class="st0" d="M316.9,194.7h-5.5l-6.5-21.3l-6.5,21.3h-5.5l-8.3-27.3h4.6l6.5,22.2l6.7-22.2h5l6.7,22.2l6.5-22.2h4.5
		L316.9,194.7z"/>
	<path class="st0" d="M351.8,194.7h-4.7l-2.7-7H332l-2.7,7h-4.6l10.8-27.3h5.5L351.8,194.7z M333.7,183.6h9.1l-4.6-11.8L333.7,183.6
		z"/>
	<path class="st0" d="M375.7,194.7h-19.5v-27.3h4.4v23.1h15.1V194.7z"/>
	<path class="st0" d="M387.1,183.1h-2.6v11.6h-4.4v-27.3h4.4v11.5h2.7l10.3-11.5h5.7l-12.3,13.3l13.1,14h-6L387.1,183.1z"/>
	<path class="st0" d="M65.1,227.7v11.1h-4.4v-11.2l-10.6-16.1h5.3l7.6,12.2l7.6-12.2h5.1L65.1,227.7z"/>
	<path class="st0" d="M105.1,225.1c0,8.2-5.9,14.2-14.3,14.2s-14.3-6-14.3-14.2s5.9-14.2,14.3-14.2S105.1,216.9,105.1,225.1z
		 M81.1,225.1c0,5.9,4.1,9.9,9.7,9.9s9.7-4,9.7-9.9c0-5.9-4.1-9.9-9.7-9.9S81.1,219.2,81.1,225.1z"/>
	<path class="st0" d="M133.8,228c0,7.6-5.1,11.3-11.6,11.3s-11.6-3.7-11.6-11.3v-16.5h4.4v16.2c0,5.2,2.9,7.4,7.2,7.4
		c4.2,0,7.2-2.1,7.2-7.4v-16.2h4.4V228z"/>
	<path class="st0" d="M175.5,216.6l-3.7,2.5c-1.7-2.4-4.4-3.9-7.6-3.9c-5.6,0-9.7,4-9.7,9.9c0,5.9,4.1,9.9,9.7,9.9
		c3.2,0,5.9-1.5,7.6-3.9l3.6,2.6c-2.3,3.4-6.4,5.5-11.2,5.5c-8.4,0-14.3-6-14.3-14.2s5.9-14.2,14.3-14.2
		C169,210.9,173.4,213.1,175.5,216.6z"/>
	<path class="st0" d="M205.2,238.7h-4.7l-2.7-7h-12.4l-2.7,7h-4.6l10.8-27.3h5.5L205.2,238.7z M187,227.6h9.1l-4.6-11.8L187,227.6z"
		/>
	<path class="st0" d="M233.1,238.7h-4L213.9,219l0,19.8h-4.4v-27.3h4l15.2,19.8v-19.8h4.4V238.7z"/>
	<path class="st0" d="M261.9,211.4c8.5,0,14.2,5.4,14.2,13.7s-5.6,13.7-14.2,13.7h-10.8v-27.3H261.9z M255.5,215.6v19h6.4
		c6.4,0,9.6-4,9.6-9.5c0-5.6-3.1-9.5-9.6-9.5H255.5z"/>
	<path class="st0" d="M305.2,238.7h-4.7l-2.7-7h-12.4l-2.7,7h-4.6l10.8-27.3h5.5L305.2,238.7z M287,227.6h9.1l-4.6-11.8L287,227.6z"
		/>
	<path class="st0" d="M333.1,238.7h-4L313.9,219l0,19.8h-4.4v-27.3h4l15.2,19.8v-19.8h4.4V238.7z"/>
	<path class="st0" d="M364.6,216.6l-3.7,2.5c-1.7-2.4-4.4-3.9-7.6-3.9c-5.6,0-9.7,4-9.7,9.9c0,5.9,4.1,9.9,9.7,9.9
		c3.2,0,5.9-1.5,7.6-3.9l3.6,2.6c-2.3,3.4-6.4,5.5-11.2,5.5c-8.4,0-14.3-6-14.3-14.2s5.9-14.2,14.3-14.2
		C358.2,210.9,362.5,213.1,364.6,216.6z"/>
	<path class="st0" d="M390.3,238.7h-19.9v-27.3H390v4.1h-15.2v7.4h14.7v4.1h-14.7v7.5h15.5V238.7z"/>
</g>
</svg>
