<?xml version="1.0" encoding="utf-8"?>
<!-- Generator: Adobe Illustrator 21.0.2, SVG Export Plug-In . SVG Version: 6.00 Build 0)  -->
<svg version="1.1" id="Layer_1" xmlns="http://www.w3.org/2000/svg" xmlns:xlink="http://www.w3.org/1999/xlink" x="0px" y="0px"
	 viewBox="0 0 792 612" style="enable-background:new 0 0 792 612;" xml:space="preserve">
<style type="text/css">
	.st0{fill:#FFFFFF;}
</style>
<g>
	<path class="st0" d="M239.5,334.3l-11.4,7c-3.7-5.7-9.7-9.1-17.1-9.1c-12,0-20.9,8.8-20.9,21.7c0,13.3,9.2,21.7,20.9,21.7
		c7.3,0,13.3-3.3,17.3-9.1l10.8,7.8c-5.9,8.6-15.9,14-28,14c-20.4,0-34.8-14.4-34.8-34.4c0-19.9,14.4-34.4,34.8-34.4
		C223.4,319.4,234.1,325,239.5,334.3z"/>
	<path class="st0" d="M326.2,360.4c0,18.3-11.7,27.6-28.5,27.6c-16.8,0-28.5-9.3-28.5-27.6v-39.8h13.3v39.1
		c0,10.9,6.2,15.7,15.3,15.7c9.1,0,15.3-4.8,15.3-15.7v-39.1h13.2V360.4z"/>
	<path class="st0" d="M407.7,386.9h-48.2v-66.2h13.2v53.9h35V386.9z"/>
	<path class="st0" d="M560.8,360.4c0,18.3-11.7,27.6-28.5,27.6c-16.8,0-28.5-9.3-28.5-27.6v-39.8H517v39.1
		c0,10.9,6.2,15.7,15.3,15.7c9.1,0,15.3-4.8,15.3-15.7v-39.1h13.2V360.4z"/>
	<path class="st0" d="M622.1,320.6c15.8,0,24.3,7.5,24.3,20.2c0,10.9-7.6,18.3-20.3,19.5l20.4,26.5h-16l-19.3-26.4h-3.9v26.4H594
		v-66.2H622.1z M607.2,332.8V349h14.6c7.2,0,10.9-2.6,10.9-8.2c0-5.5-3.9-8-10.9-8H607.2z"/>
	<path class="st0" d="M726.8,386.9h-49.5v-66.2h49.1v12.1h-35.9v14.7h34.3v12.1h-34.3v15.2h36.3V386.9z"/>
</g>
<g>
	<path class="st0" d="M124.4,239l-11.5,7.1c-3.8-5.8-9.9-9.3-17.4-9.3c-12.2,0-21.2,8.9-21.2,22c0,13.5,9.4,22,21.2,22
		c7.4,0,13.5-3.4,17.5-9.2l11,7.9c-6,8.7-16.1,14.2-28.4,14.2c-20.7,0-35.3-14.7-35.3-34.9s14.6-34.9,35.3-34.9
		C108,223.9,119,229.6,124.4,239z"/>
	<path class="st0" d="M211.9,292.4h-14.3l-5.9-15.7H163l-5.9,15.7h-14l26.2-67.3h16.3L211.9,292.4z M167.6,264.4h19.5l-9.7-26
		L167.6,264.4z"/>
	<path class="st0" d="M278,237.7h-20.9v54.7h-13.4v-54.7h-20.9v-12.5H278V237.7z"/>
	<path class="st0" d="M357.8,292.4h-14.3l-5.9-15.7h-28.7l-5.9,15.7h-14l26.2-67.3h16.3L357.8,292.4z M313.5,264.4H333l-9.7-26
		L313.5,264.4z"/>
	<path class="st0" d="M429.8,292.4h-49v-67.3h13.4v54.7h35.6V292.4z"/>
	<path class="st0" d="M475.7,265.9v26.5h-13.4v-26.6l-25.9-40.7h15.8l16.9,28.5l16.9-28.5h15.3L475.7,265.9z"/>
	<path class="st0" d="M566.5,242.1c-5.3-3.3-11.7-5.7-19.1-5.7c-7.5,0-12.9,3-12.9,8.1c0,4.9,5.8,6.4,13.9,7.8l3.8,0.6
		c12,2,21.4,7.1,21.4,18.8c0,14.8-13.1,21.9-27.5,21.9c-10.2,0-21.1-3-28.4-8.8l7-10.8c4.9,3.9,12.8,7.3,21.4,7.3
		c7.4,0,13.2-2.9,13.2-8.1c0-4.7-4.9-6.4-14.3-7.9l-4.3-0.7c-11.9-1.9-20.5-7.1-20.5-19.3c0-14,12.5-21.3,26.8-21.3
		c9.4,0,17.3,2.1,25.7,7.2L566.5,242.1z"/>
	<path class="st0" d="M648.9,237.7h-20.9v54.7h-13.4v-54.7h-20.9v-12.5h55.1V237.7z"/>
	<path class="st0" d="M717.7,242.1c-5.3-3.3-11.7-5.7-19.1-5.7c-7.5,0-12.9,3-12.9,8.1c0,4.9,5.8,6.4,13.9,7.8l3.8,0.6
		c12,2,21.4,7.1,21.4,18.8c0,14.8-13.1,21.9-27.5,21.9c-10.2,0-21.1-3-28.4-8.8l7-10.8c4.9,3.9,12.8,7.3,21.4,7.3
		c7.4,0,13.2-2.9,13.2-8.1c0-4.7-4.9-6.4-14.3-7.9l-4.3-0.7c-11.9-1.9-20.5-7.1-20.5-19.3c0-14,12.5-21.3,26.8-21.3
		c9.4,0,17.3,2.1,25.7,7.2L717.7,242.1z"/>
</g>
<g>
	<path class="st0" d="M110.8,354.3c0,12.5-9.4,23-22.7,23c-11.2,0-19.6-7.5-19.6-18.9c0-12.5,9.4-23,22.7-23
		C102.5,335.5,110.8,343,110.8,354.3z M77,357.9c0,7.1,4.8,11.7,11.7,11.7c8.1,0,13.7-6.8,13.7-14.7c0-7.1-4.9-11.7-11.7-11.7
		C82.6,343.2,77,350,77,357.9z"/>
	<path class="st0" d="M145.1,360.2H125l-3.5,16.4h-8.2l8.6-40.4h29l-1.6,7.4h-20.8l-2,9.2h20.1L145.1,360.2z"/>
</g>
<polygon class="st0" points="484.8,347.6 458.5,347.6 458.5,347.3 458.5,320.6 445.4,320.6 445.4,347.3 419.1,347.3 419.1,360.4 
	445.4,360.4 445.4,360.7 445.4,388.1 458.5,388.1 458.5,360.7 484.8,360.7 "/>
</svg>
