<svg id="Layer_1" data-name="Layer 1" xmlns="http://www.w3.org/2000/svg" viewBox="0 0 871.2 423.36"><defs><style>.cls-1{fill:#fff;}</style></defs><title>Artboard 1</title><path class="cls-1" d="M123.57,183.1l-16.65,10.2a29.06,29.06,0,0,0-25.11-13.39c-17.62,0-30.66,12.9-30.66,31.77.07,19.49,13.53,31.77,30.66,31.77a29.71,29.71,0,0,0,25.32-13.32l15.82,11.37C114.35,254.13,99.71,262,82,262c-29.89,0-51-21.15-51-50.35s21.08-50.35,51-50.35C99.85,161.33,115.67,169.51,123.57,183.1Z"/><path class="cls-1" d="M250.63,221.46c0,26.84-17.13,40.51-41.82,40.51S167,248.3,167,221.46V163.13h19.42v57.36c0,16,9,23,22.4,23s22.4-7,22.4-23V163.13h19.42Z"/><path class="cls-1" d="M370,260.23H299.31v-97.1h19.35v79H370Z"/><path class="cls-1" d="M596.92,221.46c0,26.84-17.13,40.51-41.82,40.51s-41.82-13.66-41.82-40.51V163.13H532.7v57.36c0,16,9,23,22.4,23s22.4-7,22.4-23V163.13h19.42Z"/><path class="cls-1" d="M686.67,163.13c23.17,0,35.58,11,35.58,29.55,0,16-11.1,26.84-29.75,28.65l29.89,38.91H698.94l-28.3-38.63H665v38.63H645.61v-97.1ZM665,181v23.79h21.36c10.54,0,16-3.88,16-12.07s-5.76-11.72-16-11.72Z"/><path class="cls-1" d="M840.22,260.23H767.67v-97.1h72v17.76H787v21.5h50.22v17.76H787v22.33h53.2Z"/><polygon class="cls-1" points="444.81 203.5 444.81 203.25 444.81 163.3 431.5 163.3 431.5 203.25 391.99 203.25 391.99 216.59 431.5 216.59 431.5 217.16 431.5 258.24 444.81 258.24 444.81 216.84 484.34 216.84 484.34 203.5 444.81 203.5"/></svg>