<svg id="Layer_1" data-name="Layer 1" xmlns="http://www.w3.org/2000/svg" viewBox="0 0 871 423"><defs><style>.cls-1{fill:#fff;}</style></defs><title>culture</title><path class="cls-1" d="M243.29,180.14c9.46,0,17.81,4.33,22,11.51l-8.8,5.39A15.36,15.36,0,0,0,243.22,190c-9.31,0-16.2,6.82-16.2,16.79,0,10.3,7.15,16.79,16.2,16.79a15.7,15.7,0,0,0,13.38-7l8.36,6c-4.55,6.67-12.28,10.85-21.66,10.85-15.8,0-26.94-11.18-26.94-26.61s11.14-26.61,26.94-26.61m0-1.09c-16.25,0-28,11.65-28,27.71s11.79,27.71,28,27.71c9.44,0,17.66-4.13,22.57-11.33l.6-.88-.87-.62-8.36-6-.91-.65-.63.92a14.57,14.57,0,0,1-12.48,6.57c-8.86,0-15.07-6.45-15.11-15.7s6.21-15.69,15.11-15.69a14.28,14.28,0,0,1,12.35,6.58l.58.89.91-.56,8.8-5.39.91-.56-.54-.92c-4.32-7.44-13.11-12.05-22.94-12.05Z"/><path class="cls-1" d="M332.45,181.09v30.83c0,14.18-9.05,21.41-22.1,21.41s-22.1-7.22-22.1-21.41V181.09h10.26v30.31c0,8.43,4.76,12.13,11.84,12.13s11.84-3.7,11.84-12.13V181.09h10.26m1.09-1.09H321.09v31.41c0,5-1.86,11-10.75,11s-10.74-6-10.74-11V180H287.15v31.92c0,14.09,8.67,22.5,23.2,22.5s23.2-8.41,23.2-22.5V180Z"/><path class="cls-1" d="M368.42,181.09v41.75h27.12v9.57H358.19V181.09h10.23m1.09-1.09H357.1V233.5h39.54V221.75H369.51V180Z"/><path class="cls-1" d="M514.15,181.09v30.83c0,14.18-9.05,21.41-22.1,21.41s-22.1-7.22-22.1-21.41V181.09H480.2v30.31c0,8.43,4.76,12.13,11.84,12.13s11.84-3.7,11.84-12.13V181.09h10.26m1.09-1.09H502.79v31.41c0,5-1.86,11-10.75,11s-10.74-6-10.74-11V180H468.85v31.92c0,14.09,8.67,22.5,23.2,22.5s23.2-8.41,23.2-22.5V180Z"/><path class="cls-1" d="M561.59,181.09c12.24,0,18.8,5.79,18.8,15.61,0,8.43-5.86,14.19-15.72,15.14l15.8,20.56H568.08l-15-20.42h-3v20.42H539.89V181.09h21.7m-11.47,22h11.29c5.57,0,8.47-2.05,8.47-6.38s-3-6.19-8.47-6.19H550.12v12.57M561.59,180H538.8V233.5h12.42V213.09h1.36l14.63,20,.33.45h15.17l-1.35-1.76-14.64-19.06c9.18-1.55,14.8-7.53,14.8-16,0-10.62-7.25-16.71-19.9-16.71Zm-10.38,11.61h10.19c6.61,0,7.37,2.91,7.37,5.1S568,202,561.41,202H551.21V191.61Z"/><path class="cls-1" d="M642.46,181.09v9.38H614.64v11.36h26.54v9.38H614.64V223h28.11v9.38H604.42V181.09h38m1.09-1.09H603.32V233.5h40.53V221.93H615.74v-9.61h26.54V200.75H615.74v-9.17h27.82V180Z"/><polygon class="cls-1" points="425.91 202.26 404.06 202.26 404.06 209.63 425.91 209.63 425.91 232.67 433.27 232.67 433.27 209.63 433.27 202.26 425.91 202.26"/><polygon class="cls-1" points="433.27 202.57 433.27 180.16 425.91 180.16 425.91 202.57 425.91 209.95 433.27 209.95 455.13 209.95 455.13 202.57 433.27 202.57"/></svg>