<?xml version="1.0" encoding="utf-8"?>
<!-- Generator: Adobe Illustrator 21.0.2, SVG Export Plug-In . SVG Version: 6.00 Build 0)  -->
<svg version="1.1" id="Layer_1" xmlns="http://www.w3.org/2000/svg" xmlns:xlink="http://www.w3.org/1999/xlink" x="0px" y="0px"
	 viewBox="0 0 428.5 52.7" style="enable-background:new 0 0 428.5 52.7;" xml:space="preserve">
<style type="text/css">
	.st0{fill:#FFFFFF;}
</style>
<title>culture</title>
<path class="st0" d="M28,0.1c9.5,0,17.8,4.3,22,11.5L41.2,17c-2.9-4.5-7.9-7.2-13.3-7c-9.3,0-16.2,6.8-16.2,16.8
	c0,10.3,7.1,16.8,16.2,16.8c5.4,0.1,10.4-2.5,13.4-7l8.4,6C45.1,49.3,37.4,53.4,28,53.4c-15.8,0-26.9-11.2-26.9-26.6
	S12.2,0.2,28,0.1 M28-0.9C11.8-0.9,0,10.8,0,26.8s11.8,27.7,28,27.7c9.4,0,17.7-4.1,22.6-11.3l0.6-0.9l-0.9-0.6l-8.4-6L41,35.1
	L40.4,36c-2.8,4.2-7.5,6.7-12.5,6.6c-8.9,0-15.1-6.4-15.1-15.7S19,11.2,27.9,11.2c5-0.1,9.7,2.4,12.4,6.6l0.6,0.9l0.9-0.6l8.8-5.4
	l0.9-0.6l-0.5-0.9C46.6,3.8,37.8-0.8,28-0.9L28-0.9z"/>
<path class="st0" d="M117.2,1.1v30.8c0,14.2-9,21.4-22.1,21.4S73,46.1,73,31.9V1.1h10.3v30.3c0,8.4,4.8,12.1,11.8,12.1
	s11.8-3.7,11.8-12.1V1.1H117.2 M118.2,0h-12.5v31.4c0,5-1.9,11-10.8,11s-10.7-6-10.7-11V0H71.9v31.9c0,14.1,8.7,22.5,23.2,22.5
	s23.2-8.4,23.2-22.5L118.2,0L118.2,0z"/>
<path class="st0" d="M153.1,1.1v41.8h27.1v9.6h-37.4V1.1H153.1 M154.2,0h-12.4v53.5h39.5V41.8h-27.1V0z"/>
<path class="st0" d="M298.9,1.1v30.8c0,14.2-9,21.4-22.1,21.4s-22.1-7.2-22.1-21.4V1.1h10.2v30.3c0,8.4,4.8,12.1,11.8,12.1
	s11.8-3.7,11.8-12.1V1.1H298.9 M299.9,0h-12.4v31.4c0,5-1.9,11-10.8,11s-10.7-6-10.7-11V0h-12.5v31.9c0,14.1,8.7,22.5,23.2,22.5
	S300,46,300,31.9L299.9,0L299.9,0z"/>
<path class="st0" d="M346.3,1.1c12.2,0,18.8,5.8,18.8,15.6c0,8.4-5.9,14.2-15.7,15.1l15.8,20.6h-12.4l-15-20.4h-3v20.4h-10.2V1.1
	H346.3 M334.8,23.1h11.3c5.6,0,8.5-2.1,8.5-6.4s-3-6.2-8.5-6.2h-11.3L334.8,23.1 M346.3,0h-22.8v53.5h12.4V33.1h1.4l14.6,20l0.3,0.4
	h15.2l-1.3-1.8l-14.6-19.1c9.2-1.6,14.8-7.5,14.8-16C366.2,6.1,359,0,346.3,0L346.3,0z M335.9,11.6h10.2c6.6,0,7.4,2.9,7.4,5.1
	s-0.8,5.3-7.4,5.3h-10.2V11.6z"/>
<path class="st0" d="M427.2,1.1v9.4h-27.8v11.4h26.5v9.4h-26.5V43h28.1v9.4h-38.3V1.1H427.2 M428.2,0H388v53.5h40.5V41.9h-28.1v-9.6
	H427V20.8h-26.5v-9.2h27.8L428.2,0L428.2,0z"/>
<polygon class="st0" points="210.6,22.3 188.8,22.3 188.8,29.6 210.6,29.6 210.6,52.7 218,52.7 218,29.6 218,22.3 "/>
<polygon class="st0" points="218,22.6 218,0.2 210.6,0.2 210.6,22.6 210.6,29.9 218,29.9 239.8,29.9 239.8,22.6 "/>
</svg>
