<?xml version="1.0" encoding="utf-8"?>
<!-- Generator: Adobe Illustrator 21.0.2, SVG Export Plug-In . SVG Version: 6.00 Build 0)  -->
<svg version="1.1" id="Layer_1" xmlns="http://www.w3.org/2000/svg" xmlns:xlink="http://www.w3.org/1999/xlink" x="0px" y="0px"
	 viewBox="0 0 792 612" style="enable-background:new 0 0 792 612;" xml:space="preserve">
<style type="text/css">
	.st0{fill:#FFFFFF;}
</style>
<path class="st0" d="M423.5,147.7l-7.9,5.8c-5.3-7.2-14-11.6-24-11.1c-17,0.7-29.3,13.6-28.5,31.8c0.8,18.2,14.2,29.9,31.2,29.2
	c9.9-0.4,18.2-5.3,22.9-13.1l8.2,5.5c-6.1,9.9-17.4,16.4-30.7,17c-23.2,1-40.7-14.9-41.7-38.1c-1-23.1,15.1-40.5,38.3-41.5
	C404.7,132.5,417,138.1,423.5,147.7z"/>
<path class="st0" d="M514,257.8c-17,12.6-33.7,7.3-44.4-7.1c-10.6-14.3-10.8-31.9,6.2-44.5l37.8-28l5.8,7.8l-37.2,27.6
	c-12.7,9.4-12.7,21.2-5,31.6c7.7,10.4,18.9,13.8,31.6,4.4l37.2-27.6l5.8,7.9L514,257.8z"/>
<path class="st0" d="M477.7,361.5l14.1-52.2l74.7,20.2l-2.5,9.4l-65.8-17.8L486.6,364L477.7,361.5z"/>
<path class="st0" d="M450.9,462.5l22.6-13.5l-34.9-58.5l8.4-5l34.9,58.5l22.7-13.5l4.7,7.9l-53.7,32L450.9,462.5z"/>
<path class="st0" d="M319.9,412.3c7.5-19.7,24.5-24.3,41.2-18c16.7,6.3,26.4,21,18.9,40.8l-16.7,44l-9.1-3.4l16.4-43.3
	c5.6-14.8-0.8-24.7-12.8-29.3c-12.1-4.6-23.3-1.4-29,13.4l-16.4,43.3l-9.1-3.5L319.9,412.3z"/>
<path class="st0" d="M227.3,349c-4.7-16.8,0.2-28.2,13.8-32c12.9-3.6,24,4.1,28.5,20.1l0.2,0.6l24.8-35.2l3.3,11.6l-24.9,34.6
	l2.4,8.7l32.1-9l2.6,9.4l-74.5,20.9L227.3,349z M241.7,366.8l25.1-7l-5.6-20c-3.1-11-9-15.3-17.4-13c-8.2,2.3-10.7,9.2-7.7,20
	L241.7,366.8z"/>
<path class="st0" d="M333.6,228.2l-31.9,44.7l-62.9-45l31.6-44.2l7.4,5.3l-25.9,36.3l20.1,14.4l25.1-35.2l7.5,5.3L279.4,245
	l20.5,14.7l26.3-36.8L333.6,228.2z"/>
<polygon class="st0" points="403.2,298.9 403.2,298.7 403.2,264.3 391.8,264.3 391.8,298.7 357.7,298.7 357.7,310.2 391.8,310.2 
	391.8,310.7 391.8,346.1 403.2,346.1 403.2,310.4 437.3,310.4 437.3,298.9 "/>
</svg>
