<?xml version="1.0" encoding="utf-8"?>
<!-- Generator: Adobe Illustrator 21.0.2, SVG Export Plug-In . SVG Version: 6.00 Build 0)  -->
<svg version="1.1" id="Layer_1" xmlns="http://www.w3.org/2000/svg" xmlns:xlink="http://www.w3.org/1999/xlink" x="0px" y="0px"
	 viewBox="0 0 577.5 202.6" style="enable-background:new 0 0 577.5 202.6;" xml:space="preserve">
<style type="text/css">
	.st0{fill:#FFFFFF;}
</style>
<g>
	<path class="st0" d="M70.4,81.2l-11.7,7.3c-3.9-5.9-10.1-9.4-17.6-9.4c-12.4,0-21.6,9.1-21.6,22.3c0,13.7,9.5,22.3,21.6,22.3
		c7.5,0,13.7-3.4,17.8-9.4l11.1,8c-6,8.9-16.3,14.4-28.8,14.4c-21,0-35.8-14.9-35.8-35.4S20.2,66,41.2,66
		C53.8,65.9,64.8,71.7,70.4,81.2z"/>
	<path class="st0" d="M159.7,108.2c0,18.9-12,28.4-29.4,28.4c-17.3,0-29.4-9.6-29.4-28.4v-41h13.6v40.3c0,11.2,6.3,16.2,15.8,16.2
		c9.4,0,15.8-4.9,15.8-16.2V67.2h13.6L159.7,108.2L159.7,108.2z"/>
	<path class="st0" d="M243.5,135.4h-49.6V67.2h13.6v55.5h36V135.4z"/>
	<path class="st0" d="M401.2,108.2c0,18.9-12,28.4-29.4,28.4c-17.3,0-29.4-9.6-29.4-28.4v-41H356v40.3c0,11.2,6.3,16.2,15.8,16.2
		c9.4,0,15.8-4.9,15.8-16.2V67.2h13.6L401.2,108.2L401.2,108.2z"/>
	<path class="st0" d="M464.2,67.2c16.2,0,25,7.7,25,20.8c0,11.2-7.8,18.9-20.9,20.1l21,27.4h-16.4L453,108.3h-4v27.2h-13.6V67.2
		H464.2z M449,79.7v16.7h15c7.4,0,11.2-2.7,11.2-8.5c0-5.6-4.1-8.2-11.2-8.2H449z"/>
	<path class="st0" d="M572.1,135.4h-51V67.2h50.6v12.5h-36.9v15.1h35.3v12.5h-35.3V123h37.3L572.1,135.4L572.1,135.4z"/>
</g>
<polygon class="st0" points="319.8,94.9 293.5,94.9 293.5,94.5 293.5,68 280.5,68 280.5,94.5 254.2,94.5 254.2,107.7 280.5,107.7 
	280.5,108.1 280.5,135.4 293.5,135.4 293.5,108.1 319.8,108.1 "/>
</svg>
