<?xml version="1.0" encoding="utf-8"?>
<!-- Generator: Adobe Illustrator 21.1.0, SVG Export Plug-In . SVG Version: 6.00 Build 0)  -->
<svg version="1.1" id="Layer_1" xmlns="http://www.w3.org/2000/svg" xmlns:xlink="http://www.w3.org/1999/xlink" x="0px" y="0px"
	 viewBox="0 0 386.5 52.7" style="enable-background:new 0 0 386.5 52.7;" xml:space="preserve">
<style type="text/css">
	.st0{fill:#FFFFFF;}
</style>
<title>culture</title>
<path class="st0" d="M26.2,2.6c8.5,0,16,3.9,19.8,10.3l-7.9,4.9c-2.6-4-7.1-6.5-12-6.3c-8.4,0-14.6,6.1-14.6,15.1
	c0,9.3,6.4,15.1,14.6,15.1c4.9,0.1,9.4-2.2,12.1-6.3l7.6,5.4c-4.1,6-11.1,9.7-19.5,9.7C12,50.5,2,40.4,2,26.6S12,2.7,26.2,2.6
	 M26.2,1.7C11.7,1.7,1.1,12.2,1.1,26.6s10.6,24.9,25.2,24.9c8.5,0,15.9-3.7,20.3-10.2l0.5-0.8L46.3,40l-7.6-5.4L37.9,34l-0.5,0.8
	c-2.5,3.8-6.7,6-11.2,5.9c-8,0-13.6-5.8-13.6-14.1s5.6-14.1,13.6-14.1c4.5-0.1,8.7,2.2,11.2,5.9l0.5,0.8l0.8-0.5l7.9-4.9l0.8-0.5
	l-0.4-0.8C43,5.9,35.1,1.8,26.2,1.7L26.2,1.7z"/>
<path class="st0" d="M106.5,3.5v27.7c0,12.8-8.1,19.2-19.9,19.2s-19.9-6.5-19.9-19.2V3.5H76v27.3c0,7.6,4.3,10.9,10.6,10.9
	s10.6-3.3,10.6-10.9V3.5H106.5 M107.4,2.5H96.1v28.2c0,4.5-1.7,9.9-9.7,9.9s-9.6-5.4-9.6-9.9V2.5H65.7v28.7
	c0,12.7,7.8,20.2,20.9,20.2s20.9-7.6,20.9-20.2L107.4,2.5L107.4,2.5z"/>
<path class="st0" d="M138.8,3.5v37.6h24.4v8.6h-33.6V3.5H138.8 M139.8,2.5h-11.2v48.1h35.5V40.1h-24.4V2.5z"/>
<path class="st0" d="M269.9,3.5v27.7c0,12.8-8.1,19.2-19.9,19.2s-19.9-6.5-19.9-19.2V3.5h9.2v27.3c0,7.6,4.3,10.9,10.6,10.9
	c6.3,0,10.6-3.3,10.6-10.9V3.5H269.9 M270.8,2.5h-11.2v28.2c0,4.5-1.7,9.9-9.7,9.9c-8,0-9.6-5.4-9.6-9.9V2.5h-11.2v28.7
	c0,12.7,7.8,20.2,20.9,20.2s21-7.6,21-20.2L270.8,2.5L270.8,2.5z"/>
<path class="st0" d="M312.6,3.5c11,0,16.9,5.2,16.9,14c0,7.6-5.3,12.8-14.1,13.6l14.2,18.5h-11.2l-13.5-18.4h-2.7v18.4H293V3.5
	H312.6 M302.2,23.3h10.2c5,0,7.6-1.9,7.6-5.8s-2.7-5.6-7.6-5.6h-10.2V23.3 M312.6,2.5h-20.5v48.1h11.2V32.3h1.3l13.1,18l0.3,0.4
	h13.7l-1.2-1.6l-13.1-17.2c8.3-1.4,13.3-6.7,13.3-14.4C330.5,8,324,2.5,312.6,2.5L312.6,2.5z M303.2,12.9h9.2c5.9,0,6.7,2.6,6.7,4.6
	s-0.7,4.8-6.7,4.8h-9.2V12.9z"/>
<path class="st0" d="M385.3,3.5v8.5h-25v10.3h23.8v8.5h-23.8v10.5h25.3v8.5h-34.5V3.5H385.3 M386.2,2.5h-36.2v48.1h36.4V40.2h-25.3
	v-8.6h23.9V21.2h-23.8v-8.3h25L386.2,2.5L386.2,2.5z"/>
<polygon class="st0" points="190.5,22.5 170.9,22.5 170.9,29.1 190.5,29.1 190.5,49.9 197.2,49.9 197.2,29.1 197.2,22.5 "/>
<polygon class="st0" points="197.2,22.8 197.2,2.7 190.5,2.7 190.5,22.8 190.5,29.4 197.2,29.4 216.8,29.4 216.8,22.8 "/>
</svg>
