<svg xmlns="http://www.w3.org/2000/svg" width="826.63" height="177.5" viewBox="0 0 826.63 177.5">
  <metadata><?xpacket begin="﻿" id="W5M0MpCehiHzreSzNTczkc9d"?>
<x:xmpmeta xmlns:x="adobe:ns:meta/" x:xmptk="Adobe XMP Core 5.6-c138 79.159824, 2016/09/14-01:09:01        ">
   <rdf:RDF xmlns:rdf="http://www.w3.org/1999/02/22-rdf-syntax-ns#">
      <rdf:Description rdf:about=""/>
   </rdf:RDF>
</x:xmpmeta>
                                                                                                    
                                                                                                    
                                                                                                    
                                                                                                    
                                                                                                    
                                                                                                    
                                                                                                    
                                                                                                    
                                                                                                    
                                                                                                    
                                                                                                    
                                                                                                    
                                                                                                    
                                                                                                    
                                                                                                    
                                                                                                    
                                                                                                    
                                                                                                    
                                                                                                    
                                                                                                    
                           
<?xpacket end="w"?></metadata>
<defs>
    <style>
      .cls-1 {
        fill: #fff;
        fill-rule: evenodd;
      }
    </style>
  </defs>
  <path id="Emcee_copy" data-name="Emcee copy" class="cls-1" d="M1140.3,5609.69H1038.05v-57.12h97.75v-20.75h-97.75v-55.88h101v-20.62h-123v175H1140.3v-20.63Zm201.37-100.62c-16.12,0-34.5,5.87-44.25,23.87-7.87-14.87-23.75-23.87-43.87-23.87-13.75,0-29.13,4.62-38.88,18v-15.5h-20.25v118.75h20.38v-66.63c0-22.12,16-35.25,35.12-35.25,20.63,0,32.63,12.88,32.63,34.75v67.13h20.5v-66.63c0-21.62,15.37-35.25,35-35.25,20.62,0,32.62,12.88,32.62,34.75v67.13h20.5v-73.75C1391.17,5528.07,1371.05,5509.07,1341.67,5509.07Zm156.62,0c-36.75,0-61.62,26.62-61.62,61.87s24.87,61.88,61.62,61.88c17.63,0,33.38-6.5,44.13-18.63l-12.63-14.12c-8.25,8-19.37,13.62-32,13.62-22.87,0-40.25-17.87-40.25-42.75s17.38-42.62,40.25-42.62c12.63,0,22.75,4.87,31.5,13.37l13.13-13.87C1531.79,5515.57,1515.92,5509.07,1498.29,5509.07Zm135.88,0c-34.13,0-59,25.37-59,61.87,0,37,25,61.88,60.25,61.88,17.5,0,34-4.25,48.75-18l-10.88-14c-10.12,8.75-22.75,14.12-36.62,14.12-20.38,0-37.5-12.12-40.38-36.75h93.38c0.12-2.25.37-5,.37-7.62C1689.79,5534.19,1666.54,5509.07,1634.17,5509.07Zm-0.38,18.12c19.25,0,32.88,13.5,35.38,34.5h-72.63C1599.67,5541.44,1612.79,5527.19,1633.79,5527.19Zm153-18.12c-34.13,0-59,25.37-59,61.87,0,37,25,61.88,60.25,61.88,17.5,0,34-4.25,48.75-18l-10.88-14c-10.12,8.75-22.75,14.12-36.62,14.12-20.38,0-37.5-12.12-40.38-36.75h93.38c0.12-2.25.37-5,.37-7.62C1842.41,5534.19,1819.16,5509.07,1786.79,5509.07Zm-0.38,18.12c19.25,0,32.88,13.5,35.38,34.5h-72.63C1752.29,5541.44,1765.41,5527.19,1786.41,5527.19Z" transform="translate(-1016.03 -5455.31)"/>
</svg>
