<?xml version="1.0" encoding="utf-8"?>
<!-- Generator: Adobe Illustrator 21.0.2, SVG Export Plug-In . SVG Version: 6.00 Build 0)  -->
<svg version="1.1" id="Layer_1" xmlns="http://www.w3.org/2000/svg" xmlns:xlink="http://www.w3.org/1999/xlink" x="0px" y="0px"
	 viewBox="0 0 443 275" style="enable-background:new 0 0 443 275;" xml:space="preserve">
<style type="text/css">
	.st0{fill:#FFFFFF;}
</style>
<g>
	<path class="st0" d="M63.1,135.6H47.5v12.9h-4.9v-30.1h21.5v4.6H47.5v8h15.6V135.6z"/>
	<path class="st0" d="M136.4,124.1l-4.1,2.7c-1.8-2.7-4.8-4.3-8.4-4.3c-6.1,0-10.7,4.5-10.7,10.9c0,6.5,4.5,10.9,10.7,10.9
		c3.6,0,6.5-1.6,8.4-4.3l4,2.9c-2.6,3.8-7.1,6.1-12.3,6.1c-9.2,0-15.8-6.6-15.8-15.6c0-9,6.5-15.6,15.8-15.6
		C129.3,117.8,134,120.2,136.4,124.1z"/>
	<path class="st0" d="M151.6,135.6h-2.9v12.8h-4.9v-30.1h4.9V131h3l11.3-12.7h6.3L155.7,133l14.5,15.4h-6.6L151.6,135.6z"/>
	<path class="st0" d="M213.3,148.5h-5.2l-3-7.7h-13.6l-3,7.7h-5.1l11.9-30.1h6.1L213.3,148.5z M193.2,136.2h10.1l-5-13L193.2,136.2z
		"/>
	<path class="st0" d="M230.8,148.5h-6.1l-11.5-30.1h5.2l9.4,25.2l9.4-25.2h5L230.8,148.5z"/>
	<path class="st0" d="M270.1,148.5h-22v-30.1h21.7v4.6H253v8.1h16.2v4.6H253v8.3h17.1V148.5z"/>
	<path class="st0" d="M290.9,118.4c6.9,0,10.7,3.1,10.7,8.7c0,5.1-3.9,8.5-10,8.7l9.9,12.7h-6l-9.6-12.7h-2.5v12.7h-4.9v-30.1H290.9
		z M283.3,122.9v8.5h7.4c3.9,0,5.7-1.4,5.7-4.3c0-2.9-1.9-4.1-5.7-4.1H283.3z"/>
	<path class="st0" d="M335.5,148.5h-5.2l-3-7.7h-13.6l-3,7.7h-5.1l11.9-30.1h6.1L335.5,148.5z M315.4,136.2h10.1l-5-13L315.4,136.2z
		"/>
	<path class="st0" d="M366.2,122.7l-3.6,3.5c-1.9-2.3-4.7-3.7-8.1-3.7c-6.1,0-10.7,4.5-10.7,10.9c0,6.5,4.5,10.9,10.4,10.9
		c5.5,0,8.7-2.8,9.5-7.8h-8V132h13.2c0,0.4,0,0.8,0,1.2c0,8.6-5.5,15.8-14.8,15.8c-7.8,0-15.5-5.5-15.5-15.6
		c0-9.1,6.6-15.6,15.8-15.6C359.3,117.8,363.5,119.6,366.2,122.7z"/>
	<path class="st0" d="M398.7,148.5h-22v-30.1h21.7v4.6h-16.8v8.1h16.2v4.6h-16.2v8.3h17.1V148.5z"/>
</g>
<polygon class="st0" points="101,131.4 88.3,131.4 88.3,118.4 84,118.4 84,131.4 71.4,131.4 71.4,135.6 84,135.6 84,149 88.3,149 
	88.3,135.6 101,135.6 "/>
</svg>
