<?xml version="1.0" encoding="utf-8"?>
<!-- Generator: Adobe Illustrator 21.0.2, SVG Export Plug-In . SVG Version: 6.00 Build 0)  -->
<svg version="1.1" id="Layer_1" xmlns="http://www.w3.org/2000/svg" xmlns:xlink="http://www.w3.org/1999/xlink" x="0px" y="0px"
	 viewBox="0 0 792 612" style="enable-background:new 0 0 792 612;" xml:space="preserve">
<style type="text/css">
	.st0{fill:#FFFFFF;}
</style>
<g>
	<path class="st0" d="M131.1,258h-39v31.5H76.7v-77.7h57V226H92.1v17.7h39V258z"/>
	<path class="st0" d="M224.4,258h-39v31.5H170v-77.7h57V226h-41.6v17.7h39V258z"/>
	<path class="st0" d="M317.7,258h-39v31.5h-15.5v-77.7h57V226h-41.6v17.7h39V258z"/>
	<path class="st0" d="M411.1,258h-39v31.5h-15.5v-77.7h57V226h-41.6v17.7h39V258z"/>
	<path class="st0" d="M619.6,227.8l-13.3,8.2c-4.4-6.7-11.4-10.7-20.1-10.7c-14.1,0-24.5,10.3-24.5,25.4
		c0.1,15.6,10.8,25.4,24.5,25.4c8.6,0,15.6-3.9,20.3-10.7l12.7,9.1c-6.9,10.1-18.6,16.4-32.8,16.4c-23.9,0-40.8-16.9-40.8-40.3
		c0-23.4,16.9-40.3,40.8-40.3C600.7,210.3,613.3,216.9,619.6,227.8z"/>
	<path class="st0" d="M677.9,257.5h-7.2v32h-15.5v-77.7h15.5v31.5h7.3l25.7-31.5h19.4l-32.6,37.9l35,39.8h-20.1L677.9,257.5z"/>
</g>
<g>
	<path class="st0" d="M148.3,400.3h-16.5l-6.8-18.1H91.9l-6.8,18.1H69l30.2-77.7h18.9L148.3,400.3z M97.2,367.9h22.5l-11.2-30
		L97.2,367.9z"/>
	<path class="st0" d="M212.3,400.3h-18.8l-29.2-77.7h16.5l22.3,62l22.4-62h16.1L212.3,400.3z"/>
	<path class="st0" d="M330.1,400.3h-58v-77.7h57.6v14.2h-42.1V354h40.2v14.2h-40.2v17.9h42.6V400.3z"/>
	<path class="st0" d="M399.5,322.6c18.5,0,28.5,8.8,28.5,23.6c0,12.8-8.9,21.5-23.8,22.9l23.9,31.1h-18.8l-22.6-30.9h-4.6v30.9
		h-15.5v-77.7H399.5z M382.1,336.8v19h17.1c8.4,0,12.8-3.1,12.8-9.7c0-6.4-4.6-9.4-12.8-9.4H382.1z"/>
	<path class="st0" d="M533.9,400.3h-16.5l-6.8-18.1h-33.1l-6.8,18.1h-16.1l30.2-77.7h18.9L533.9,400.3z M482.7,367.9h22.5l-11.2-30
		L482.7,367.9z"/>
	<path class="st0" d="M627.7,333.1L616.5,344c-4.4-5-10.8-8.2-18.8-8.2c-14.2,0-24.5,10.4-24.5,25.6c0,15.9,10.8,25.8,24.2,25.8
		c12.7,0,20-6.1,22.1-17.1h-19.8v-12.9h35.7c0.2,1.5,0.2,2.9,0.2,4.4c0,23.5-15.9,40.1-38,40.1c-21.5,0-40.6-15.1-40.6-40.2
		c0-23.5,17.1-40.3,41-40.3C610.5,321.1,620.8,325.6,627.7,333.1z"/>
	<path class="st0" d="M728.4,400.3h-58v-77.7h57.6v14.2h-42.1V354H726v14.2h-40.2v17.9h42.6V400.3z"/>
</g>
<polygon class="st0" points="516.3,242.9 486,242.9 486,242.4 486,211.8 470.9,211.8 470.9,242.4 440.6,242.4 440.6,257.5 
	470.9,257.5 470.9,258 470.9,289.5 486,289.5 486,258 516.3,258 "/>
</svg>
