<?xml version="1.0" encoding="utf-8"?>
<!-- Generator: Adobe Illustrator 21.1.0, SVG Export Plug-In . SVG Version: 6.00 Build 0)  -->
<svg version="1.1" id="BG_-_750_x_1334_326_ppi_" xmlns="http://www.w3.org/2000/svg" xmlns:xlink="http://www.w3.org/1999/xlink"
	 x="0px" y="0px" viewBox="0 0 750 750" style="enable-background:new 0 0 750 750;" xml:space="preserve">
<style type="text/css">
	.st0{fill:#151515;}
	.st1{fill:none;enable-background:new    ;}
	.st2{enable-background:new    ;}
	.st3{fill:#FFFFFF;}
</style>
<image style="overflow:visible;enable-background:new    ;" width="750" height="750" xlink:href="Gradient_2.png" >
</image>
<!-- <rect id="Rectangle_8_copy" x="-0.2" class="st0" width="750.3" height="750"/> -->
<image style="overflow:visible;enable-background:new    ;" width="750" height="750" xlink:href="Gradient_2.png" >
</image>
<path class="st1" d="M0,0"/>
<path class="st1" d="M0,0"/>
<g class="st2">
	<path class="st3" d="M120.4,351.6h-3.2V366h-7v-35h7v14.2h3.3L132,331h8.7L126,348.1l15.8,17.9h-9L120.4,351.6z"/>
	<path class="st3" d="M183.6,366H177l-17.7-23.4V366h-7v-35h6.5l17.8,23.4V331h7V366z"/>
	<path class="st3" d="M233.1,348.5c0,10.4-7.6,18.1-18.4,18.1s-18.4-7.7-18.4-18.1s7.6-18.1,18.4-18.1S233.1,338.1,233.1,348.5z
		 M203.6,348.5c0,6.8,4.7,11.4,11.1,11.4c6.4,0,11.1-4.6,11.1-11.4s-4.6-11.4-11.1-11.4C208.3,337.1,203.6,341.7,203.6,348.5z"/>
	<path class="st3" d="M284.2,366h-8.4l-7.5-25l-7.5,25h-8.4L242,331h7.2l7.5,26.8l7.8-26.8h7.7l7.8,26.8l7.5-26.8h7.1L284.2,366z"/>
	<path class="st3" d="M363.1,366h-8.4l-7.5-25l-7.5,25h-8.4l-10.4-35h7.2l7.5,26.8l7.8-26.8h7.7l7.8,26.8l7.5-26.8h7.1L363.1,366z"
		/>
	<path class="st3" d="M391.9,345.1h16.8V331h7v35h-7v-14.4h-16.8V366h-7v-35h7V345.1z"/>
	<path class="st3" d="M462.4,366H455l-3-8.1h-15l-3,8.1h-7.3l13.6-35h8.5L462.4,366z M439.4,351.4h10.1l-5-13.5L439.4,351.4z"/>
	<path class="st3" d="M495.8,337.5H485V366h-7v-28.5h-10.8V331h28.7v6.5H495.8z"/>
	<path class="st3" d="M540.9,352.2V366h-7v-13.8L520.4,331h8.2l8.8,14.8l8.8-14.8h7.9L540.9,352.2z"/>
	<path class="st3" d="M597.3,348.5c0,10.4-7.6,18.1-18.4,18.1s-18.4-7.7-18.4-18.1s7.6-18.1,18.4-18.1S597.3,338.1,597.3,348.5z
		 M567.8,348.5c0,6.8,4.7,11.4,11.1,11.4c6.4,0,11.1-4.6,11.1-11.4s-4.6-11.4-11.1-11.4C572.5,337.1,567.8,341.7,567.8,348.5z"/>
	<path class="st3" d="M639.8,352c0,9.7-6.2,14.6-15.1,14.6c-8.9,0-15.1-4.9-15.1-14.6v-21h7v20.7c0,5.7,3.2,8.3,8.1,8.3
		c4.8,0,8.1-2.5,8.1-8.3V331h7V352z"/>
</g>
<g class="st2">
	<path class="st3" d="M181,384c10.9,0,18.2,6.9,18.2,17.5c0,10.5-7.2,17.5-18.2,17.5h-14.4v-35H181z M173.6,390.5v21.9h7.4
		c7.4,0,10.9-4.6,10.9-11s-3.6-11-10.9-11h-7.4V390.5z"/>
	<path class="st3" d="M247.1,401.5c0,10.4-7.6,18.1-18.4,18.1s-18.4-7.7-18.4-18.1s7.6-18.1,18.4-18.1S247.1,391.1,247.1,401.5z
		 M217.6,401.5c0,6.8,4.7,11.4,11.1,11.4c6.4,0,11.1-4.6,11.1-11.4s-4.6-11.4-11.1-11.4C222.2,390.1,217.6,394.7,217.6,401.5z"/>
	<path class="st3" d="M291.1,419h-6.5l-17.7-23.4V419h-7v-35h6.5l17.8,23.4V384h7L291.1,419L291.1,419z"/>
	<path class="st3" d="M312.7,383l-3.5,14.9h-5.5l1.7-14.9H312.7z"/>
	<path class="st3" d="M352.7,390.5h-10.8V419h-7v-28.5H324V384h28.7V390.5z"/>
	<path class="st3" d="M392.4,404.6h-3.2V419h-7v-35h7v14.2h3.3L404,384h8.7L398,401.1l15.8,17.9h-9L392.4,404.6z"/>
	<path class="st3" d="M455.6,419H449l-17.7-23.4V419h-7v-35h6.5l17.8,23.4V384h7L455.6,419L455.6,419z"/>
	<path class="st3" d="M505.1,401.5c0,10.4-7.6,18.1-18.4,18.1s-18.4-7.7-18.4-18.1s7.6-18.1,18.4-18.1S505.1,391.1,505.1,401.5z
		 M475.6,401.5c0,6.8,4.7,11.4,11.1,11.4s11.1-4.6,11.1-11.4s-4.6-11.4-11.1-11.4C480.3,390.1,475.6,394.7,475.6,401.5z"/>
	<path class="st3" d="M556.2,419h-8.4l-7.5-25l-7.5,25h-8.4L514,384h7.2l7.5,26.8l7.8-26.8h7.7l7.8,26.8l7.5-26.8h7.1L556.2,419z"/>
</g>
</svg>
