<?xml version="1.0" encoding="utf-8"?>
<!-- Generator: Adobe Illustrator 21.1.0, SVG Export Plug-In . SVG Version: 6.00 Build 0)  -->
<svg version="1.1" id="BG_-_750_x_1334_326_ppi_" xmlns="http://www.w3.org/2000/svg" xmlns:xlink="http://www.w3.org/1999/xlink"
	 x="0px" y="0px" viewBox="0 0 750 750" style="enable-background:new 0 0 750 750;" xml:space="preserve">
<style type="text/css">
	.st0{fill:none;}
	.st1{enable-background:new    ;}
	.st2{fill:#FFFFFF;}
	.st3{fill:#FFFFFF;enable-background:new    ;}
</style>
<image style="overflow:visible;enable-background:new    ;" width="750" height="750" xlink:href="Gradient_4.png" >
</image>
<g id="STEVE_QUOTE_3">
	<path class="st0" d="M0,0"/>
	<g class="st1">
		<path class="st2" d="M110.4,310.7h-7.3v-36.4h7.3V310.7z"/>
		<path class="st2" d="M150.9,295.9h-18.3v14.7h-7.3v-36.4H152v6.7h-19.5v8.3h18.3v6.7H150.9z"/>
		<path class="st2" d="M201.3,296.3v14.4H194v-14.4l-14-22h8.5l9.2,15.4l9.2-15.4h8.3L201.3,296.3z"/>
		<path class="st2" d="M260,292.5c0,10.9-7.9,18.9-19.1,18.9s-19.1-8-19.1-18.9s7.9-18.9,19.1-18.9S260,281.6,260,292.5z
			 M229.3,292.5c0,7.1,4.9,11.9,11.5,11.9c6.7,0,11.5-4.8,11.5-11.9s-4.8-11.9-11.5-11.9C234.2,280.6,229.3,285.4,229.3,292.5z"/>
		<path class="st2" d="M304.2,296.1c0,10.1-6.4,15.2-15.7,15.2c-9.3,0-15.7-5.1-15.7-15.2v-21.9h7.3v21.5c0,6,3.4,8.6,8.4,8.6
			s8.4-2.6,8.4-8.6v-21.5h7.3L304.2,296.1L304.2,296.1z"/>
		<path class="st2" d="M371.4,281.8l-6.2,3.8c-2.1-3.1-5.4-5-9.4-5c-6.6,0-11.5,4.8-11.5,11.9c0,7.3,5.1,11.9,11.5,11.9
			c4,0,7.3-1.8,9.5-5l5.9,4.3c-3.2,4.7-8.7,7.7-15.4,7.7c-11.2,0-19.1-7.9-19.1-18.9c0-10.9,7.9-18.9,19.1-18.9
			C362.5,273.6,368.4,276.7,371.4,281.8z"/>
		<path class="st2" d="M417.7,310.7H410l-3.2-8.5h-15.5l-3.2,8.5h-7.6l14.2-36.4h8.8L417.7,310.7z M393.7,295.5h10.5l-5.3-14.1
			L393.7,295.5z"/>
		<path class="st2" d="M461.7,310.7h-6.8l-18.5-24.3v24.3h-7.3v-36.4h6.8l18.5,24.3v-24.3h7.3V310.7z"/>
		<path class="st2" d="M522.2,281.1h-11.3v29.6h-7.3v-29.6h-11.3v-6.8h29.8L522.2,281.1L522.2,281.1z"/>
		<path class="st2" d="M564.3,310.7h-7.7l-3.2-8.5h-15.5l-3.2,8.5h-7.6l14.2-36.4h8.8L564.3,310.7z M540.3,295.5h10.5l-5.3-14.1
			L540.3,295.5z"/>
		<path class="st2" d="M602.2,310.7h-26.5v-36.4h7.3v29.6h19.2V310.7z"/>
		<path class="st2" d="M624.5,295.7h-3.4v15h-7.3v-36.4h7.3V289h3.4l12-14.7h9.1L630.5,292l16.4,18.6h-9.4L624.5,295.7z"/>
	</g>
	<g class="st1">
		<path class="st2" d="M145,351.3v14.4h-7.3v-14.4l-14-22h8.5l9.2,15.4l9.2-15.4h8.3L145,351.3z"/>
		<path class="st2" d="M203.7,347.5c0,10.9-7.9,18.9-19.1,18.9s-19.1-8-19.1-18.9s7.9-18.9,19.1-18.9S203.7,336.6,203.7,347.5z
			 M173,347.5c0,7.1,4.9,11.9,11.5,11.9c6.7,0,11.5-4.8,11.5-11.9s-4.8-11.9-11.5-11.9S173,340.4,173,347.5z"/>
		<path class="st2" d="M247.9,351.2c0,10.1-6.4,15.2-15.7,15.2s-15.7-5.1-15.7-15.2v-21.9h7.3v21.5c0,6,3.4,8.6,8.4,8.6
			s8.4-2.6,8.4-8.6v-21.5h7.3V351.2z"/>
		<path class="st2" d="M315.1,336.8l-6.2,3.8c-2.1-3.1-5.4-5-9.4-5c-6.6,0-11.5,4.8-11.5,11.9c0,7.3,5.1,11.9,11.5,11.9
			c4,0,7.3-1.8,9.5-5l5.9,4.3c-3.2,4.7-8.7,7.7-15.4,7.7c-11.2,0-19.1-7.9-19.1-18.9c0-10.9,7.9-18.9,19.1-18.9
			C306.2,328.6,312.1,331.7,315.1,336.8z"/>
		<path class="st2" d="M361.4,365.7h-7.7l-3.2-8.5H335l-3.2,8.5h-7.6l14.2-36.4h8.8L361.4,365.7z M337.4,350.5H348l-5.3-14.1
			L337.4,350.5z"/>
		<path class="st2" d="M405.4,365.7h-6.8l-18.5-24.3v24.3h-7.3v-36.4h6.8l18.5,24.3v-24.3h7.3V365.7z"/>
		<path class="st2" d="M464.7,338.5c-2.9-1.8-6.3-3.1-10.3-3.1c-4.1,0-7,1.6-7,4.4c0,2.7,3.1,3.5,7.5,4.2l2.1,0.3
			c6.5,1.1,11.6,3.8,11.6,10.2c0,8-7.1,11.9-14.9,11.9c-5.5,0-11.4-1.6-15.3-4.8l3.8-5.8c2.6,2.1,6.9,3.9,11.6,3.9
			c4,0,7.1-1.6,7.1-4.4c0-2.5-2.7-3.5-7.7-4.3l-2.3-0.4c-6.4-1-11.1-3.8-11.1-10.4c0-7.6,6.8-11.5,14.5-11.5c5.1,0,9.3,1.1,13.9,3.9
			L464.7,338.5z"/>
		<path class="st2" d="M489.2,365.7H482v-36.4h7.3L489.2,365.7L489.2,365.7z"/>
		<path class="st2" d="M536.8,365.7H530l-18.5-24.3v24.3h-7.3v-36.4h6.8l18.5,24.3v-24.3h7.3V365.7z"/>
		<path class="st2" d="M583.1,334.2l-5.2,5.1c-2.1-2.4-5.1-3.8-8.8-3.8c-6.7,0-11.5,4.9-11.5,12c0,7.4,5.1,12.1,11.4,12.1
			c5.9,0,9.4-2.9,10.3-8H570v-6.1h16.7c0.1,0.7,0.1,1.4,0.1,2.1c0,11-7.5,18.8-17.8,18.8c-10.1,0-19-7.1-19-18.9
			c0-11,8-18.9,19.2-18.9C575.1,328.6,579.9,330.7,583.1,334.2z"/>
		<path class="st2" d="M606.4,357.5l-3.6,15.5H597l1.7-15.5H606.4z"/>
	</g>
	<g class="st1">
		<path class="st2" d="M97.5,420.7h-7.3v-36.4h7.3V420.7z"/>
		<path class="st2" d="M138.1,406h-18.3v14.7h-7.3v-36.4h26.7v6.7h-19.5v8.3H138v6.7H138.1z"/>
		<path class="st2" d="M188.5,406.4v14.4h-7.3v-14.4l-14-22h8.5l9.2,15.4l9.2-15.4h8.3L188.5,406.4z"/>
		<path class="st2" d="M247.1,402.5c0,10.9-7.9,18.9-19.1,18.9s-19.1-8-19.1-18.9s7.9-18.9,19.1-18.9S247.1,391.6,247.1,402.5z
			 M216.5,402.5c0,7.1,4.9,11.9,11.5,11.9c6.7,0,11.5-4.8,11.5-11.9s-4.8-11.9-11.5-11.9S216.5,395.4,216.5,402.5z"/>
		<path class="st2" d="M291.4,406.2c0,10.1-6.4,15.2-15.7,15.2c-9.3,0-15.7-5.1-15.7-15.2v-21.9h7.3v21.5c0,6,3.4,8.6,8.4,8.6
			s8.4-2.6,8.4-8.6v-21.5h7.3L291.4,406.2L291.4,406.2z"/>
		<path class="st2" d="M358.6,391.8l-6.2,3.8c-2.1-3.1-5.4-5-9.4-5c-6.6,0-11.5,4.8-11.5,11.9c0,7.3,5.1,11.9,11.5,11.9
			c4,0,7.3-1.8,9.5-5l5.9,4.3c-3.2,4.7-8.7,7.7-15.4,7.7c-11.2,0-19.1-7.9-19.1-18.9c0-10.9,7.9-18.9,19.1-18.9
			C349.7,383.6,355.6,386.7,358.6,391.8z"/>
		<path class="st2" d="M404.9,420.7h-7.7l-3.2-8.5h-15.5l-3.2,8.5h-7.6l14.2-36.4h8.8L404.9,420.7z M380.9,405.6h10.5l-5.3-14.1
			L380.9,405.6z"/>
		<path class="st2" d="M448.9,420.7H442l-18.5-24.3v24.3h-7.3v-36.4h6.8l18.5,24.3v-24.3h7.3v36.4H448.9z"/>
		<path class="st2" d="M523.8,420.7H515l-7.8-26l-7.8,26h-8.8l-10.9-36.4h7.5l7.8,27.9l8.1-27.9h8l8.1,27.9l7.8-27.9h7.4
			L523.8,420.7z"/>
		<path class="st2" d="M577.1,420.7h-7.7l-3.2-8.5h-15.5l-3.2,8.5h-7.6l14.2-36.4h8.8L577.1,420.7z M553.1,405.6h10.5l-5.3-14.1
			L553.1,405.6z"/>
		<path class="st2" d="M615,420.7h-26.5v-36.4h7.3v29.6H615V420.7z"/>
		<path class="st2" d="M637.4,405.7H634v15h-7.3v-36.4h7.3V399h3.4l12-14.7h9.1l-15.3,17.8l16.4,18.6h-9.4L637.4,405.7z"/>
	</g>
	<g class="st1">
		<path class="st2" d="M122,461.4v14.4h-7.3v-14.4l-14-22h8.5l9.2,15.4l9.2-15.4h8.3L122,461.4z"/>
		<path class="st2" d="M180.7,457.5c0,10.9-7.9,18.9-19.1,18.9s-19.1-8-19.1-18.9s7.9-18.9,19.1-18.9S180.7,446.7,180.7,457.5z
			 M150,457.5c0,7.1,4.9,11.9,11.5,11.9c6.7,0,11.5-4.8,11.5-11.9s-4.8-11.9-11.5-11.9C154.9,445.6,150,450.5,150,457.5z"/>
		<path class="st2" d="M224.9,461.2c0,10.1-6.4,15.2-15.7,15.2s-15.7-5.1-15.7-15.2v-21.9h7.3v21.5c0,6,3.4,8.6,8.4,8.6
			s8.4-2.6,8.4-8.6v-21.5h7.3V461.2z"/>
		<path class="st2" d="M292.1,446.8l-6.2,3.8c-2.1-3.1-5.4-5-9.4-5c-6.6,0-11.5,4.8-11.5,11.9c0,7.3,5.1,11.9,11.5,11.9
			c4,0,7.3-1.8,9.5-5l5.9,4.3c-3.2,4.7-8.7,7.7-15.4,7.7c-11.2,0-19.1-7.9-19.1-18.9c0-10.9,7.9-18.9,19.1-18.9
			C283.2,438.6,289.1,441.7,292.1,446.8z"/>
		<path class="st2" d="M338.4,475.7h-7.7l-3.2-8.5H312l-3.2,8.5h-7.6l14.2-36.4h8.8L338.4,475.7z M314.4,460.6H325l-5.3-14.1
			L314.4,460.6z"/>
		<path class="st2" d="M382.4,475.7h-6.8l-18.5-24.3v24.3h-7.3v-36.4h6.8l18.5,24.3v-24.3h7.3V475.7z"/>
		<path class="st2" d="M432,439.3c11.4,0,18.9,7.2,18.9,18.2s-7.5,18.2-18.9,18.2h-15v-36.4L432,439.3L432,439.3z M424.3,446.1v22.8
			h7.7c7.7,0,11.4-4.8,11.4-11.4c0-6.7-3.7-11.4-11.4-11.4H424.3z"/>
		<path class="st2" d="M496.2,475.7h-7.7l-3.2-8.5h-15.5l-3.2,8.5H459l14.2-36.4h8.8L496.2,475.7z M472.2,460.6h10.5l-5.3-14.1
			L472.2,460.6z"/>
		<path class="st2" d="M540.2,475.7h-6.8l-18.5-24.3v24.3h-7.3v-36.4h6.8l18.5,24.3v-24.3h7.3V475.7z"/>
		<path class="st2" d="M588.2,446.8l-6.2,3.8c-2.1-3.1-5.4-5-9.4-5c-6.6,0-11.5,4.8-11.5,11.9c0,7.3,5.1,11.9,11.5,11.9
			c4,0,7.3-1.8,9.5-5l5.9,4.3c-3.2,4.7-8.7,7.7-15.4,7.7c-11.2,0-19.1-7.9-19.1-18.9c0-10.9,7.9-18.9,19.1-18.9
			C579.3,438.6,585.2,441.7,588.2,446.8z"/>
		<path class="st2" d="M628.4,475.7h-27.2v-36.4h27v6.7h-19.7v8.1h18.8v6.7h-18.8v8.4h19.9V475.7z"/>
	</g>
</g>
<path class="st3" d="M0,0"/>
<g id="UM_GIF">
	<path class="st0" d="M0,0"/>
</g>
</svg>
