<?xml version="1.0" encoding="utf-8"?>
<!-- Generator: Adobe Illustrator 21.1.0, SVG Export Plug-In . SVG Version: 6.00 Build 0)  -->
<svg version="1.1" id="BG_-_750_x_1334_326_ppi_" xmlns="http://www.w3.org/2000/svg" xmlns:xlink="http://www.w3.org/1999/xlink"
	 x="0px" y="0px" viewBox="0 0 750 750" style="enable-background:new 0 0 750 750;" xml:space="preserve">
<style type="text/css">
	.st0{fill:#151515;}
	.st1{enable-background:new    ;}
	.st2{fill:#FFFFFF;}
	.st3{fill:#FFFFFF;enable-background:new    ;}
</style>
<image style="overflow:visible;enable-background:new    ;" width="750" height="750" xlink:href="Gradient_3.png" >
</image>
<!-- <rect id="Rectangle_8_copy" x="-0.2" class="st0" width="750.3" height="750"/> -->
<image style="overflow:visible;enable-background:new    ;" width="750" height="750" xlink:href="Gradient_3.png" >
</image>
<g class="st1">
	<path class="st2" d="M203.6,331.2c10.9,0,18.2,6.9,18.2,17.5c0,10.5-7.2,17.5-18.2,17.5h-14.4v-35H203.6z M196.1,337.7v21.9h7.4
		c7.4,0,10.9-4.6,10.9-11s-3.6-11-10.9-11h-7.4V337.7z"/>
	<path class="st2" d="M269.6,348.7c0,10.4-7.6,18.1-18.4,18.1s-18.4-7.7-18.4-18.1s7.6-18.1,18.4-18.1S269.6,338.2,269.6,348.7z
		 M240.1,348.7c0,6.8,4.7,11.4,11.1,11.4c6.4,0,11.1-4.6,11.1-11.4s-4.6-11.4-11.1-11.4C244.8,337.2,240.1,341.9,240.1,348.7z"/>
	<path class="st2" d="M313.7,366.2h-6.5l-17.7-23.4v23.4h-7v-35h6.5l17.8,23.4v-23.4h7L313.7,366.2L313.7,366.2z"/>
	<path class="st2" d="M335.3,330.2l-3.5,14.9h-5.5l1.7-14.9H335.3z"/>
	<path class="st2" d="M375.3,337.7h-10.8v28.5h-7v-28.5h-10.8v-6.5h28.7v6.5H375.3z"/>
	<path class="st2" d="M419,331.2c8.1,0,13.3,3,13.3,9.7c0,3.5-2.1,6.3-5.1,7.4c3.2,1.1,5.8,4.1,5.8,7.8c0,6.7-4.8,10-13.2,10h-15.1
		v-35H419V331.2z M411.7,337.3v8.2h7.1c3.5,0,6.2-0.7,6.2-4.1c0-3.3-2.7-4-6.2-4h-7.1V337.3z M411.7,351.6v8.4h7.8
		c3.8,0,6.3-0.9,6.3-4.2c0-3.3-2.4-4.2-6.3-4.2L411.7,351.6L411.7,351.6z"/>
	<path class="st2" d="M472,366.2h-26.1v-35h25.9v6.4h-19v7.7h18.1v6.4h-18.1v8H472V366.2z"/>
	<path class="st2" d="M536.1,366.2h-7.4l-3-8.1h-14.9l-3,8.1h-7.3l13.6-35h8.5L536.1,366.2z M513.1,351.6h10.1l-5-13.5L513.1,351.6z
		"/>
</g>
<g class="st1">
	<path class="st2" d="M151.9,401.7c0,10.4-7.6,18.1-18.4,18.1s-18.4-7.7-18.4-18.1s7.6-18.1,18.4-18.1S151.9,391.2,151.9,401.7z
		 M122.4,401.7c0,6.8,4.7,11.4,11.1,11.4c6.4,0,11.1-4.6,11.1-11.4s-4.6-11.4-11.1-11.4C127.1,390.2,122.4,394.9,122.4,401.7z"/>
	<path class="st2" d="M196,419.2h-6.5l-17.7-23.4v23.4h-7v-35h6.5l17.8,23.4v-23.4h7v35H196z"/>
	<path class="st2" d="M236.6,419.2h-26.1v-35h25.9v6.4h-19v7.7h18.1v6.4h-18.1v8h19.2L236.6,419.2L236.6,419.2z"/>
	<path class="st2" d="M294,390.7h-10.8v28.5h-7v-28.5h-10.8v-6.5H294V390.7z"/>
	<path class="st2" d="M320,384.2c8.3,0,12.8,3.9,12.8,10.6c0,5.7-4,9.7-10.7,10.3l10.8,14h-8.4l-10.2-13.9h-2v13.9h-7v-35H320V384.2
		z M312.2,390.6v8.6h7.7c3.8,0,5.8-1.4,5.8-4.3s-2.1-4.2-5.8-4.2h-7.7V390.6z"/>
	<path class="st2" d="M352.7,419.2h-7v-35h7V419.2z"/>
	<path class="st2" d="M398.9,391.4l-6,3.7c-2-3-5.1-4.8-9-4.8c-6.3,0-11,4.6-11,11.4c0,7,4.9,11.4,11,11.4c3.9,0,7-1.7,9.1-4.8
		l5.7,4.1c-3.1,4.5-8.4,7.4-14.8,7.4c-10.8,0-18.4-7.6-18.4-18.1s7.6-18.1,18.4-18.1C390.3,383.5,396,386.5,398.9,391.4z"/>
	<path class="st2" d="M421.6,404.8h-3.2v14.4h-7v-35h7v14.2h3.3l11.6-14.2h8.7l-14.7,17.1l15.8,17.9h-9L421.6,404.8z"/>
	<path class="st2" d="M478.7,406.4v12.8h-7v-35H486c8.3,0,12.8,4.3,12.8,11.1c0,6.7-4.4,11.1-12.7,11.1H478.7z M478.7,390.6v9.4h7.2
		c3.8,0,5.8-1.5,5.8-4.7c0-3.1-2-4.7-5.8-4.7L478.7,390.6L478.7,390.6z"/>
	<path class="st2" d="M546.4,401.7c0,10.4-7.6,18.1-18.4,18.1s-18.4-7.7-18.4-18.1s7.6-18.1,18.4-18.1S546.4,391.2,546.4,401.7z
		 M516.9,401.7c0,6.8,4.7,11.4,11.1,11.4c6.4,0,11.1-4.6,11.1-11.4s-4.6-11.4-11.1-11.4C521.6,390.2,516.9,394.9,516.9,401.7z"/>
	<path class="st2" d="M590.5,419.2H584l-17.7-23.4v23.4h-7v-35h6.5l17.8,23.4v-23.4h7L590.5,419.2L590.5,419.2z"/>
	<path class="st2" d="M621.5,405.4v13.8h-7v-13.8L601,384.2h8.2L618,399l8.8-14.8h7.9L621.5,405.4z"/>
</g>
<path class="st3" d="M0,0"/>
<path class="st3" d="M0,0"/>
</svg>
