<?xml version="1.0" encoding="utf-8"?>
<!-- Generator: Adobe Illustrator 21.1.0, SVG Export Plug-In . SVG Version: 6.00 Build 0)  -->
<svg version="1.1" id="BG_-_750_x_1334_326_ppi_" xmlns="http://www.w3.org/2000/svg" xmlns:xlink="http://www.w3.org/1999/xlink"
	 x="0px" y="0px" viewBox="0 0 750 750" style="enable-background:new 0 0 750 750;" xml:space="preserve">
<style type="text/css">
	.st0{fill:none;enable-background:new    ;}
	.st1{fill:#FFFFFF;}
</style>
<g>
	<path class="st1" d="M250.2,353h-18.3v14.8h-7.2v-36.5h26.8v6.7h-19.6v8.3h18.3V353z"/>
	<path class="st1" d="M294.1,353h-18.3v14.8h-7.2v-36.5h26.8v6.7h-19.6v8.3h18.3L294.1,353L294.1,353z"/>
	<path class="st1" d="M337.9,353h-18.3v14.8h-7.3v-36.5h26.8v6.7h-19.6v8.3h18.3L337.9,353L337.9,353z"/>
	<path class="st1" d="M381.8,353h-18.3v14.8h-7.3v-36.5H383v6.7h-19.6v8.3h18.3L381.8,353L381.8,353z"/>
	<path class="st1" d="M479.9,338.8l-6.3,3.9c-2.1-3.2-5.4-5-9.5-5c-6.6,0-11.5,4.8-11.5,11.9c0,7.3,5.1,11.9,11.5,11.9
		c4,0,7.3-1.8,9.5-5l6,4.3c-3.2,4.7-8.7,7.7-15.4,7.7c-11.2,0-19.2-7.9-19.2-18.9s7.9-18.9,19.2-18.9
		C471,330.6,476.9,333.7,479.9,338.8z"/>
	<path class="st1" d="M507.3,352.8h-3.4v15h-7.3v-36.5h7.3v14.8h3.4l12.1-14.8h9.1l-15.3,17.8l16.5,18.7h-9.5L507.3,352.8z"/>
</g>
<g>
	<path class="st1" d="M258.3,419.9h-7.8l-3.2-8.5h-15.6l-3.2,8.5H221l14.2-36.5h8.9L258.3,419.9z M234.3,404.7h10.6l-5.3-14.1
		L234.3,404.7z"/>
	<path class="st1" d="M288.4,419.9h-8.8l-13.7-36.5h7.8l10.5,29.2l10.5-29.2h7.6L288.4,419.9z"/>
	<path class="st1" d="M343.8,419.9h-27.3v-36.5h27.1v6.7h-19.8v8.1h18.9v6.7h-18.9v8.4h20L343.8,419.9L343.8,419.9z"/>
	<path class="st1" d="M376.4,383.4c8.7,0,13.4,4.1,13.4,11.1c0,6-4.2,10.1-11.2,10.8l11.2,14.6H381l-10.6-14.5h-2.2v14.5h-7.3v-36.5
		H376.4L376.4,383.4z M368.2,390v8.9h8c3.9,0,6-1.5,6-4.6c0-3-2.2-4.4-6-4.4L368.2,390L368.2,390z"/>
	<path class="st1" d="M439.6,419.9h-7.8l-3.2-8.5H413l-3.2,8.5h-7.6l14.2-36.5h8.9L439.6,419.9z M415.5,404.7h10.6l-5.3-14.1
		L415.5,404.7z"/>
	<path class="st1" d="M483.7,388.3l-5.3,5.1c-2.1-2.4-5.1-3.9-8.8-3.9c-6.7,0-11.5,4.9-11.5,12c0,7.5,5.1,12.1,11.4,12.1
		c6,0,9.4-2.9,10.4-8h-9.3v-6.1h16.8c0.1,0.7,0.1,1.4,0.1,2.1c0,11-7.5,18.9-17.9,18.9c-10.1,0-19.1-7.1-19.1-18.9
		c0-11,8-18.9,19.3-18.9C475.6,382.7,480.4,384.8,483.7,388.3z"/>
	<path class="st1" d="M531,419.9h-27.3v-36.5h27.1v6.7H511v8.1h18.9v6.7H511v8.4h20V419.9L531,419.9z"/>
</g>
<polygon class="st1" points="431.3,345.9 417.1,345.9 417.1,345.7 417.1,331.3 410,331.3 410,345.7 395.7,345.7 395.7,352.8
	410,352.8 410,353 410,367.8 417.1,367.8 417.1,353 431.3,353 "/>
</svg>
