<svg xmlns="http://www.w3.org/2000/svg" width="1040.715" height="368.96" viewBox="0 0 1040.715 368.96">
  <metadata><?xpacket begin="﻿" id="W5M0MpCehiHzreSzNTczkc9d"?>
<x:xmpmeta xmlns:x="adobe:ns:meta/" x:xmptk="Adobe XMP Core 5.6-c138 79.159824, 2016/09/14-01:09:01        ">
   <rdf:RDF xmlns:rdf="http://www.w3.org/1999/02/22-rdf-syntax-ns#">
      <rdf:Description rdf:about=""/>
   </rdf:RDF>
</x:xmpmeta>
                                                                                                    
                                                                                                    
                                                                                                    
                                                                                                    
                                                                                                    
                                                                                                    
                                                                                                    
                                                                                                    
                                                                                                    
                                                                                                    
                                                                                                    
                                                                                                    
                                                                                                    
                                                                                                    
                                                                                                    
                                                                                                    
                                                                                                    
                                                                                                    
                                                                                                    
                                                                                                    
                           
<?xpacket end="w"?></metadata>
<defs>
    <style>
      .cls-1 {
        fill: #fff;
        fill-rule: evenodd;
      }
    </style>
  </defs>
  <path id="IF_YOU_CAN_TALK_YOU_CAN_SING_IF_YOU_CAN_WALK_YOU_CAN_DANCE" data-name="IF YOU CAN TALK YOU CAN SING, IF YOU CAN WALK YOU CAN DANCE" class="cls-1" d="M944.331,8616.62H931.076v66.48h13.255v-66.48Zm74.079,27.35H985.055v-15.14h35.585v-12.21H971.8v66.48h13.255v-26.92h33.355v-12.21Zm117.37-27.35h-15.11l-16.72,28.21-16.73-28.21h-15.58l25.61,40.22v26.26h13.25v-26.21Zm47-1.23c-20.48,0-34.92,14.62-34.92,34.47s14.44,34.48,34.92,34.48,34.97-14.63,34.97-34.48S1203.26,8615.39,1182.78,8615.39Zm0,12.72c12.26,0,21.09,8.84,21.09,21.75s-8.83,21.75-21.09,21.75c-12.21,0-21.09-8.83-21.09-21.75S1170.57,8628.11,1182.78,8628.11Zm115.8-11.49h-13.3v39.27c0,10.93-6.18,15.72-15.35,15.72s-15.34-4.79-15.34-15.72v-39.27h-13.3v39.94c0,18.38,11.73,27.73,28.64,27.73s28.65-9.35,28.65-27.73v-39.94Zm94.33-1.23c-20.47,0-34.92,14.48-34.92,34.47s14.45,34.48,34.92,34.48c12.16,0,22.19-5.41,28.08-14.06l-10.83-7.79a20.346,20.346,0,0,1-17.34,9.12c-11.74,0-20.95-8.4-21-21.75,0-12.91,8.93-21.75,21-21.75a19.915,19.915,0,0,1,17.2,9.17l11.4-6.98C1416,8620.99,1405.17,8615.39,1392.91,8615.39Zm87.2,1.23h-16.15l-25.89,66.48h13.82l5.8-15.48h28.36l5.8,15.48H1506Zm-8.22,13.11,9.6,25.69h-19.24Zm114.52-13.11H1573.1v44.4l-33.77-44.4h-12.4v66.48h13.25l0.05-44.4,33.73,44.4h12.45v-66.48Zm110.53,0h-54.49v12.4h20.62v54.08h13.25v-54.08h20.62v-12.4Zm51.04,0h-16.15l-25.89,66.48h13.82l5.8-15.48h28.36l5.79,15.48h14.16Zm-8.22,13.11,9.6,25.69h-19.24Zm103.45,40.98h-35.16v-54.09H1794.8v66.48h48.41v-12.39Zm64.48,12.39h17.2l-29.98-34.04,27.89-32.44h-16.63l-21.99,26.93h-6.28v-26.93h-13.25v66.48h13.25v-27.35h6.13Zm-863.13,33.52h-15.1l-16.73,28.21-16.72-28.21H980.428l25.6,40.22v26.26h13.26v-26.21Zm47.01-1.23c-20.48,0-34.92,14.62-34.92,34.47s14.44,34.48,34.92,34.48,34.96-14.63,34.96-34.48S1112.04,8715.39,1091.57,8715.39Zm0,12.72c12.26,0,21.09,8.84,21.09,21.75s-8.83,21.75-21.09,21.75c-12.21,0-21.1-8.83-21.1-21.75S1079.36,8728.11,1091.57,8728.11Zm115.8-11.49h-13.3v39.27c0,10.93-6.18,15.72-15.35,15.72s-15.34-4.79-15.34-15.72v-39.27h-13.31v39.94c0,18.38,11.74,27.73,28.65,27.73s28.65-9.35,28.65-27.73v-39.94Zm94.33-1.23c-20.48,0-34.92,14.48-34.92,34.47s14.44,34.48,34.92,34.48c12.16,0,22.19-5.41,28.08-14.06l-10.83-7.79a20.358,20.358,0,0,1-17.34,9.12c-11.74,0-20.96-8.4-21-21.75,0-12.91,8.93-21.75,21-21.75a19.886,19.886,0,0,1,17.19,9.17l11.41-6.98C1324.79,8720.99,1313.96,8715.39,1301.7,8715.39Zm87.2,1.23h-16.15l-25.9,66.48h13.83l5.79-15.48h28.37l5.79,15.48h14.16Zm-8.22,13.11,9.6,25.69h-19.24Zm114.51-13.11h-13.3v44.4l-33.78-44.4h-12.4v66.48h13.26l0.05-44.4,33.73,44.4h12.44v-66.48Zm114.77,5.94a46.819,46.819,0,0,0-25.42-7.08c-14.16,0-26.51,7.22-26.51,21.09,0,12.01,8.55,17.19,20.29,19.04l4.22,0.66c9.27,1.48,14.11,3.19,14.11,7.79,0,5.13-5.7,8.03-13.06,8.03a35.179,35.179,0,0,1-21.19-7.17l-6.89,10.68c7.13,5.75,17.96,8.69,28.03,8.69,14.3,0,27.22-6.98,27.22-21.65,0-11.59-9.31-16.67-21.19-18.62l-3.75-.62c-7.98-1.33-13.73-2.8-13.73-7.69,0-5.03,5.27-7.98,12.73-7.98a35.815,35.815,0,0,1,18.86,5.65Zm38.5-5.94H1635.2v66.48h13.26v-66.48Zm86.95,0H1722.1v44.4l-33.78-44.4h-12.39v66.48h13.25l0.05-44.4,33.73,44.4h12.45v-66.48Zm59.4-1.23c-20.43,0-35.11,14.39-35.11,34.47,0,21.47,16.35,34.43,34.78,34.43,18.86,0,32.49-14.2,32.49-34.33a31.825,31.825,0,0,0-.19-3.75h-30.59v11.06h16.91c-1.76,9.45-8.07,14.68-18.91,14.68-11.49,0-20.76-8.51-20.76-22.09,0-12.96,8.84-21.89,21-21.89a20.689,20.689,0,0,1,16.06,6.98l9.55-9.35C1814.15,8719.19,1805.36,8715.39,1794.81,8715.39Zm53.85,52.71-3.18,28.3h10.45l6.65-28.3h-13.92Zm-927.78,48.52H907.625v66.48H920.88v-66.48Zm74.074,27.35H961.6v-15.14h35.584v-12.21H948.349v66.48H961.6v-26.92h33.351v-12.21Zm117.366-27.35h-15.1l-16.73,28.21-16.72-28.21h-15.58l25.61,40.22v26.26h13.25v-26.21Zm47.01-1.23c-20.48,0-34.92,14.62-34.92,34.47s14.44,34.48,34.92,34.48,34.97-14.63,34.97-34.48S1179.81,8815.39,1159.33,8815.39Zm0,12.72c12.26,0,21.09,8.84,21.09,21.75s-8.83,21.75-21.09,21.75c-12.21,0-21.09-8.83-21.09-21.75S1147.12,8828.11,1159.33,8828.11Zm115.8-11.49h-13.3v39.27c0,10.93-6.18,15.72-15.35,15.72s-15.34-4.79-15.34-15.72v-39.27h-13.31v39.94c0,18.38,11.74,27.73,28.65,27.73s28.65-9.35,28.65-27.73v-39.94Zm94.33-1.23c-20.47,0-34.92,14.48-34.92,34.47s14.45,34.48,34.92,34.48c12.16,0,22.19-5.41,28.08-14.06l-10.83-7.79a20.346,20.346,0,0,1-17.34,9.12c-11.74,0-20.95-8.4-21-21.75,0-12.91,8.93-21.75,21-21.75a19.886,19.886,0,0,1,17.19,9.17l11.41-6.98C1392.55,8820.99,1381.72,8815.39,1369.46,8815.39Zm87.2,1.23h-16.15l-25.9,66.48h13.83l5.8-15.48h28.36l5.79,15.48h14.16Zm-8.22,13.11,9.6,25.69H1438.8Zm114.52-13.11h-13.31v44.4l-33.78-44.4h-12.4v66.48h13.26l0.05-44.4,33.73,44.4h12.45v-66.48Zm156.8,0h-13.54l-14.3,51-14.87-51h-14.68l-14.87,51-14.3-51h-13.78l19.86,66.48h16.06l14.25-47.48,14.26,47.48h16.05Zm51.67,0h-16.15l-25.89,66.48h13.82l5.8-15.48h28.36l5.8,15.48h14.15Zm-8.22,13.11,9.6,25.69h-19.24Zm103.45,40.98H1831.5v-54.09h-13.25v66.48h48.41v-12.39Zm64.48,12.39h17.2l-29.98-34.04,27.89-32.44h-16.63l-21.99,26.93h-6.27v-26.93H1888.1v66.48h13.26v-27.35h6.12Zm-928.58,33.52H987.449l-16.723,28.21L954,8916.62H938.421l25.607,40.22v26.26h13.255v-26.21Zm47-1.23c-20.47,0-34.92,14.62-34.92,34.47s14.45,34.48,34.92,34.48,34.97-14.63,34.97-34.48S1070.04,8915.39,1049.56,8915.39Zm0,12.72c12.26,0,21.1,8.84,21.1,21.75s-8.84,21.75-21.1,21.75c-12.21,0-21.09-8.83-21.09-21.75S1037.35,8928.11,1049.56,8928.11Zm115.8-11.49h-13.3v39.27c0,10.93-6.18,15.72-15.35,15.72s-15.34-4.79-15.34-15.72v-39.27h-13.3v39.94c0,18.38,11.73,27.73,28.64,27.73s28.65-9.35,28.65-27.73v-39.94Zm94.33-1.23c-20.47,0-34.92,14.48-34.92,34.47s14.45,34.48,34.92,34.48c12.17,0,22.19-5.41,28.08-14.06l-10.83-7.79a20.346,20.346,0,0,1-17.34,9.12c-11.74,0-20.95-8.4-21-21.75,0-12.91,8.93-21.75,21-21.75a19.915,19.915,0,0,1,17.2,9.17l11.4-6.98C1282.78,8920.99,1271.95,8915.39,1259.69,8915.39Zm87.2,1.23h-16.15l-25.89,66.48h13.82l5.8-15.48h28.36l5.8,15.48h14.15Zm-8.22,13.11,9.6,25.69h-19.24Zm114.52-13.11h-13.31v44.4l-33.77-44.4h-12.4v66.48h13.25l0.05-44.4,33.73,44.4h12.45v-66.48Zm63.35,0v66.48h27.42c20.81,0,34.54-13.2,34.54-33.24s-13.73-33.24-34.54-33.24h-27.42Zm27.27,12.4c14.02,0,20.81,8.64,20.81,20.84,0,12.07-6.79,20.85-20.81,20.85H1529.8v-41.69h14.01Zm91.43-12.4h-16.15l-25.89,66.48h13.82l5.8-15.48h28.36l5.8,15.48h14.15Zm-8.22,13.11,9.6,25.69h-19.24Zm114.52-13.11h-13.31v44.4l-33.77-44.4h-12.4v66.48h13.25l0.05-44.4,33.73,44.4h12.45v-66.48Zm59.21-1.23c-20.47,0-34.92,14.48-34.92,34.47s14.45,34.48,34.92,34.48c12.16,0,22.19-5.41,28.08-14.06l-10.83-7.79a20.346,20.346,0,0,1-17.34,9.12c-11.74,0-20.95-8.4-21-21.75,0-12.91,8.93-21.75,21-21.75a19.886,19.886,0,0,1,17.19,9.17l11.41-6.98C1823.84,8920.99,1813.01,8915.39,1800.75,8915.39Zm102.07,55.56h-36.44v-15.29h34.4V8943.5h-34.4v-14.72h36.06v-12.16h-49.31v66.48h49.69v-12.15Z" transform="translate(-907.625 -8615.38)"/>
</svg>
