<?xml version="1.0" encoding="utf-8"?>
<!-- Generator: Adobe Illustrator 21.1.0, SVG Export Plug-In . SVG Version: 6.00 Build 0)  -->
<svg version="1.1" id="BG_-_750_x_1334_326_ppi_" xmlns="http://www.w3.org/2000/svg" xmlns:xlink="http://www.w3.org/1999/xlink"
	 x="0px" y="0px" viewBox="0 0 750 915" style="enable-background:new 0 0 750 915;" xml:space="preserve">
<style type="text/css">
	.st2{fill:#FFFFFF;}
	.st3{fill:#FFFFFF;enable-background:new    ;}
</style>
<!-- <rect x="-1" class="st0" width="750" height="915"/> -->
<!-- <rect id="Rectangle_8_copy_5" x="-1" class="st0" width="750" height="915"/> -->
<image style="overflow:visible;enable-background:new    ;" width="750" height="915" xlink:href="IntroStatement.png" >
</image>
<g class="st1">
	<path class="st2" d="M246.5,366.4h-8.2l-14.1-43.8l-14.1,43.8H202l-16.8-52.5h6.9l14.1,45.1l14.4-45.1h7.5l14.4,45.1l14-45.1h6.8
		L246.5,366.4z"/>
	<path class="st2" d="M313.9,366.4h-37.3v-52.5h36.9v6.2h-30.3v16.8h29.3v6.2h-29.3v17.1h30.7L313.9,366.4L313.9,366.4z"/>
	<path class="st2" d="M361.5,336.8h31v-23h6.6v52.5h-6.6V343h-31v23.3h-6.6v-52.5h6.6V336.8z"/>
	<path class="st2" d="M455,366.4h-37.3v-52.5h36.9v6.2h-30.3v16.8h29.3v6.2h-29.3v17.1H455V366.4z"/>
	<path class="st2" d="M508.9,366.4h-36.7v-52.5h6.6v46.2h30.1V366.4z"/>
	<path class="st2" d="M528.2,345.4v21h-6.6v-52.5h19.9c11.8,0,18.6,5.9,18.6,15.8s-6.7,15.8-18.6,15.8L528.2,345.4L528.2,345.4z
		 M528.2,320.1v19.1h13.2c7.8,0,11.8-3.2,11.8-9.5s-4.1-9.5-11.8-9.5h-13.2V320.1z"/>
	<path class="st2" d="M104.5,430.9c11.1,0,19.1,3.9,19.1,14c0,5.7-3,9.8-7.5,11.5c5,1.8,8.7,6,8.7,12.4c0,10.2-7.5,14.7-19.2,14.7
		H84.2V431h20.3V430.9z M90.8,437.1v16.7h13.5c6.9,0,12.4-1.5,12.4-8.4c0-6.7-5.5-8.3-12.5-8.3L90.8,437.1L90.8,437.1z M90.8,459.9
		v17.3h14.5c7.6,0,12.6-1.9,12.6-8.7c0-6.7-5-8.6-12.6-8.6L90.8,459.9L90.8,459.9z"/>
	<path class="st2" d="M161.3,430.9c11.8,0,18.4,5.3,18.4,14.9c0,9.1-7.1,15-18.3,15H161l18.5,22.7h-8.2l-18-22.7h-6.1v22.7h-6.6V431
		h20.7V430.9z M147.1,437.1v17.7h14.1c7.7,0,11.7-3.1,11.7-9c0-5.8-4-8.7-11.7-8.7H147.1z"/>
	<path class="st2" d="M239.8,483.4h-7.1l-5.8-14.3h-25.4l-5.7,14.3h-6.9l21.3-52.5h8.2L239.8,483.4z M204,462.8h20.4l-10.2-25.4
		L204,462.8z"/>
	<path class="st2" d="M296.6,483.4h-6L259,442.2v41.2h-6.6v-52.5h6l31.7,41.3V431h6.6v52.4H296.6z"/>
	<path class="st2" d="M335.4,430.9c16.9,0,27.8,10.3,27.8,26.3s-10.9,26.3-27.8,26.3h-20V431L335.4,430.9L335.4,430.9z M322,437.1
		v40h13.4c13.8,0,20.9-8.1,20.9-20c0-12-7.1-20-20.9-20H322z"/>
	<path class="st2" d="M413.1,441.2c-4.3-2.9-9.5-4.8-15.6-4.8c-7.7,0-13.2,3.5-13.2,9.1c0,4.8,4,7.2,11.9,8.2l4.6,0.6
		c8.9,1.1,16.5,4.7,16.5,14c0,10.5-9.5,15.9-20.8,15.9c-7.5,0-15.6-2.6-20.7-6.8l3.6-5.3c3.6,3.2,10.4,5.8,17.1,5.8
		c7.8,0,14-3.2,14-9.1c0-4.9-4.4-7.2-12.6-8.2L393,460c-8.7-1-15.6-5.1-15.6-14c0-10.1,9-15.8,20-15.8c7.9,0,13.9,2.3,18.9,5.7
		L413.1,441.2z"/>
	<path class="st2" d="M493.6,483.4h-36.7v-52.5h6.6v46.2h30.1V483.4z"/>
	<path class="st2" d="M543.5,483.4h-37.3v-52.5h36.9v6.2h-30.3v16.8h29.3v6.2h-29.3v17.1h30.7L543.5,483.4L543.5,483.4z"/>
	<path class="st2" d="M605.5,483.4h-7.1l-5.8-14.3h-25.4l-5.7,14.3h-6.9l21.3-52.5h8.2L605.5,483.4z M569.7,462.8h20.4l-10.2-25.4
		L569.7,462.8z"/>
	<path class="st2" d="M638,430.9c16.9,0,27.8,10.3,27.8,26.3s-10.9,26.3-27.8,26.3h-20V431L638,430.9L638,430.9z M624.6,437.1v40
		H638c13.8,0,20.9-8.1,20.9-20c0-12-7.1-20-20.9-20H624.6z"/>
	<path class="st2" d="M223.9,558l-5.5,3.7c-3.4-5.1-9.2-8.3-16-8.3c-11.5,0-20.3,8.4-20.3,20.7s8.7,20.7,20.3,20.7
		c6.7,0,12.5-3.1,15.9-8.2l5.4,3.9c-4.4,6.6-12.3,10.6-21.3,10.6c-15.7,0-27.2-11.3-27.2-27s11.4-27,27.2-27
		C211.6,547.1,219.8,551.2,223.9,558z"/>
	<path class="st2" d="M282.1,579.8c0,14.3-9.7,21.3-21.8,21.3s-21.8-7-21.8-21.3v-31.9h6.6v31.4c0,10.8,6.4,15.5,15.2,15.5
		c8.8,0,15.1-4.7,15.1-15.5v-31.4h6.6L282.1,579.8L282.1,579.8z"/>
	<path class="st2" d="M336.7,600.4H300v-52.5h6.6v46.2h30.1V600.4z"/>
	<path class="st2" d="M381.6,554.1h-17.9v46.2h-6.6v-46.2h-17.9v-6.3h42.4V554.1z"/>
	<path class="st2" d="M437.1,579.8c0,14.3-9.7,21.3-21.8,21.3c-12.1,0-21.8-7-21.8-21.3v-31.9h6.6v31.4c0,10.8,6.4,15.5,15.2,15.5
		c8.8,0,15.1-4.7,15.1-15.5v-31.4h6.6L437.1,579.8L437.1,579.8z"/>
	<path class="st2" d="M475.9,547.9c11.8,0,18.4,5.3,18.4,14.9c0,9.1-7.1,15-18.3,15h-0.4l18.5,22.7h-8.2l-18-22.7h-6.1v22.7H455V548
		h20.9V547.9z M461.6,554.1v17.7h14.1c7.7,0,11.7-3.1,11.7-9c0-5.8-4-8.7-11.7-8.7H461.6z"/>
	<path class="st2" d="M546.9,600.4h-37.3v-52.5h36.9v6.2h-30.3v16.8h29.3v6.2h-29.3v17.1h30.7L546.9,600.4L546.9,600.4z"/>
	<path class="st2" d="M571.6,596c0,2.8-2.4,5.2-5.1,5.2c-2.7,0-5.1-2.4-5.1-5.2c0-2.7,2.4-5.1,5.1-5.1
		C569.2,590.9,571.6,593.2,571.6,596z"/>
</g>
<path class="st3" d="M0,0"/>
<path class="st3" d="M0,0"/>
</svg>
