<?xml version="1.0" encoding="utf-8"?>
<!-- Generator: Adobe Illustrator 21.1.0, SVG Export Plug-In . SVG Version: 6.00 Build 0)  -->
<svg version="1.1" id="Layer_2" xmlns="http://www.w3.org/2000/svg" xmlns:xlink="http://www.w3.org/1999/xlink" x="0px" y="0px"
	 viewBox="0 0 1404 337" style="enable-background:new 0 0 1404 337;" xml:space="preserve">
<style type="text/css">
	.st0{fill:#FFFFFF;}
</style>
<polygon class="st0" points="805.1,154.8 727.6,154.8 727.6,75.4 701.6,75.4 701.6,154.8 624.1,154.8 624.1,181 701.6,181 
	701.6,262.6 727.6,262.6 727.6,181 805.1,181 "/>
<g>
	<path class="st0" d="M96.9,93.3H85.4V14.2L54.6,83.4H42.4L11.6,14.7v78.6H0v-92h17.7l30.8,68.6L79.3,1.3h17.7V93.3z"/>
	<path class="st0" d="M217.3,93.3h-12.4l-10.1-25.1h-44.6l-10,25.1h-12l37.4-91.9h14.4L217.3,93.3z M154.6,57.3h35.8l-17.9-44.5
		L154.6,57.3z"/>
	<path class="st0" d="M301.1,60.6c0,21.9-13.8,34-32,34c-15,0-23.6-7-28.6-13.2l7.7-7.9c4.3,5.5,11,10,20.8,10
		c12.3,0,20.5-8.1,20.5-24V1.4h11.6V60.6z"/>
	<path class="st0" d="M432.4,47.3c0,27.5-20,47.4-47.6,47.4s-47.6-19.8-47.6-47.4S357.2,0,384.8,0S432.4,19.8,432.4,47.3z
		 M349.2,47.3c0,21.6,15.3,36.3,35.5,36.3c20.2,0,35.5-14.6,35.5-36.3S405,11.1,384.8,11.1C364.5,11.1,349.2,25.7,349.2,47.3z"/>
	<path class="st0" d="M505.6,1.4c20.8,0,32.2,9.3,32.2,26.1c0,16-12.4,26.2-32.1,26.2h-0.7l32.4,39.7H523l-31.6-39.7h-10.8v39.7
		h-11.6V1.4H505.6z M480.6,12.2v30.9h24.7c13.5,0,20.4-5.4,20.4-15.7c0-10.2-7.1-15.2-20.4-15.2H480.6z"/>
	<path class="st0" d="M633.9,19.5c-7.5-5.1-16.6-8.5-27.3-8.5c-13.5,0-23.1,6-23.1,16c0,8.3,7,12.6,20.8,14.3l8.1,1
		c15.6,1.9,28.9,8.2,28.9,24.4c0,18.3-16.6,27.9-36.5,27.9c-13.1,0-27.4-4.5-36.2-11.9l6.3-9.2c6.4,5.5,18.3,10.2,29.9,10.2
		c13.7,0,24.5-5.6,24.5-16c0-8.5-7.7-12.6-22-14.4l-8.5-1c-15.2-1.8-27.3-8.9-27.3-24.6c0-17.7,15.8-27.6,35.1-27.6
		c13.9,0,24.4,4.1,33.1,10L633.9,19.5z"/>
</g>
<g>
	<path class="st0" d="M888,335.8h-11.6v-79.1l-30.8,69.2h-12.2l-30.8-68.7v78.6h-11.6v-92h17.7l30.8,68.6l30.8-68.6H888V335.8z"/>
	<path class="st0" d="M941.5,335.8H930v-91.9h11.6V335.8z"/>
	<path class="st0" d="M1061.1,335.9h-10.4l-55.6-72.2l-0.1,72.2h-11.6v-92h10.4l55.6,72.2v-72.2h11.6V335.9z"/>
	<path class="st0" d="M1193.1,289.8c0,27.5-20,47.4-47.6,47.4c-27.6,0-47.6-19.8-47.6-47.4s20-47.3,47.6-47.3
		C1173.1,242.5,1193.1,262.3,1193.1,289.8z M1110,289.8c0,21.6,15.3,36.3,35.5,36.3c20.2,0,35.5-14.6,35.5-36.3
		s-15.3-36.3-35.5-36.3C1125.3,253.6,1110,268.2,1110,289.8z"/>
	<path class="st0" d="M1266.3,243.9c20.7,0,32.2,9.3,32.2,26.1c0,16-12.4,26.2-32.1,26.2h-0.7l32.4,39.7h-14.3l-31.6-39.7h-10.8
		v39.7h-11.6v-91.9H1266.3z M1241.3,254.7v30.9h24.7c13.5,0,20.4-5.4,20.4-15.7c0-10.2-7.1-15.2-20.4-15.2H1241.3z"/>
	<path class="st0" d="M1394.7,262c-7.5-5.1-16.6-8.5-27.3-8.5c-13.5,0-23,6-23,16c0,8.3,7,12.6,20.8,14.3l8.1,1
		c15.6,1.9,28.9,8.2,28.9,24.4c0,18.3-16.6,27.9-36.5,27.9c-13.1,0-27.4-4.5-36.2-11.9l6.3-9.2c6.4,5.5,18.3,10.2,29.9,10.2
		c13.7,0,24.5-5.6,24.5-16c0-8.5-7.7-12.6-22-14.4l-8.5-1c-15.2-1.8-27.3-8.9-27.3-24.6c0-17.7,15.8-27.6,35.1-27.6
		c13.9,0,24.4,4.1,33.1,10L1394.7,262z"/>
</g>
</svg>
