<svg id="Layer_1" data-name="Layer 1" xmlns="http://www.w3.org/2000/svg" viewBox="0 0 871.2 423.36"><defs><style>.cls-1{fill:#fff;}</style></defs><title>majors&amp;amp;minors</title><polygon class="cls-1" points="444.3 204.49 444.3 204.24 444.3 164.75 431.14 164.75 431.14 204.24 392.09 204.24 392.09 217.43 431.14 217.43 431.14 217.99 431.14 258.61 444.3 258.61 444.3 217.67 483.38 217.67 483.38 204.49 444.3 204.49"/><path class="cls-1" d="M311.15,183.9h-3.69v-14l-4.57,12.19H299L294.41,170V183.9h-3.69V165.39h5.41l4.81,12.49,4.8-12.49h5.41Z"/><path class="cls-1" d="M334,183.9h-3.94l-1.61-4.31h-7.89L319,183.9h-3.85l7.21-18.51h4.49Zm-12.18-7.71h5.35L324.53,169Z"/><path class="cls-1" d="M349.19,177.16c0,4.64-2.78,7.07-6.64,7.07a7.29,7.29,0,0,1-5.91-2.56l2.14-2.68a4.46,4.46,0,0,0,3.6,1.72c2,0,3.12-1.22,3.12-3.89V165.39h3.69Z"/><path class="cls-1" d="M373.43,174.64a9.72,9.72,0,1,1-9.73-9.6A9.33,9.33,0,0,1,373.43,174.64Zm-15.6,0a5.87,5.87,0,1,0,5.87-6.05A5.72,5.72,0,0,0,357.83,174.64Z"/><path class="cls-1" d="M386.17,165.39c4.42,0,6.78,2.09,6.78,5.63,0,3-2.12,5.12-5.67,5.46l5.7,7.42h-4.47l-5.39-7.36H382v7.36h-3.69V165.39Zm-4.14,3.4v4.53h4.07c2,0,3.05-.74,3.05-2.3s-1.1-2.23-3.05-2.23Z"/><path class="cls-1" d="M409.86,170.06a9.94,9.94,0,0,0-5.25-1.57c-2.08,0-3.54.82-3.54,2.22s1.6,1.77,3.82,2.14l1,.17c3.31.54,5.9,2,5.9,5.18,0,4.09-3.6,6-7.58,6a12.88,12.88,0,0,1-7.8-2.42l1.92-3a9.77,9.77,0,0,0,5.9,2c2,0,3.64-.81,3.64-2.23s-1.35-1.76-3.93-2.17l-1.18-.19c-3.27-.51-5.65-2-5.65-5.3,0-3.86,3.44-5.87,7.38-5.87a13,13,0,0,1,7.07,2Z"/><path class="cls-1" d="M486.43,256.17h-3.69v-14l-4.57,12.19h-3.9L469.7,242.3v13.87H466V237.66h5.41l4.81,12.49,4.8-12.49h5.41Z"/><path class="cls-1" d="M495.91,256.17h-3.69V237.66h3.69Z"/><path class="cls-1" d="M518.26,256.17h-3.46l-9.39-12.36v12.36h-3.69V237.66h3.45l9.4,12.36V237.66h3.7Z"/><path class="cls-1" d="M542.08,246.92a9.72,9.72,0,1,1-9.73-9.6A9.33,9.33,0,0,1,542.08,246.92Zm-15.6,0a5.87,5.87,0,1,0,5.87-6.05A5.72,5.72,0,0,0,526.48,246.92Z"/><path class="cls-1" d="M554.29,237.66c4.42,0,6.78,2.09,6.78,5.63,0,3-2.11,5.12-5.67,5.46l5.7,7.42h-4.47l-5.39-7.36h-1.08v7.36h-3.69V237.66Zm-4.14,3.4v4.53h4.07c2,0,3.05-.74,3.05-2.3s-1.1-2.23-3.05-2.23Z"/><path class="cls-1" d="M578.51,242.33a10,10,0,0,0-5.25-1.57c-2.08,0-3.54.82-3.54,2.22s1.6,1.77,3.82,2.14l1,.17c3.31.54,5.9,2,5.9,5.18,0,4.08-3.6,6-7.57,6a12.88,12.88,0,0,1-7.8-2.42l1.92-3a9.77,9.77,0,0,0,5.9,2c2,0,3.64-.81,3.64-2.23s-1.35-1.76-3.93-2.17l-1.18-.18c-3.27-.52-5.64-2-5.64-5.3,0-3.86,3.44-5.87,7.38-5.87a13,13,0,0,1,7.07,2Z"/></svg>