<?xml version="1.0" encoding="utf-8"?>
<!-- Generator: Adobe Illustrator 21.0.2, SVG Export Plug-In . SVG Version: 6.00 Build 0)  -->
<svg version="1.1" id="Layer_1" xmlns="http://www.w3.org/2000/svg" xmlns:xlink="http://www.w3.org/1999/xlink" x="0px" y="0px"
	 viewBox="0 0 318.8 98.6" style="enable-background:new 0 0 318.8 98.6;" xml:space="preserve">
<style type="text/css">
	.st0{fill:#FFFFFF;}
</style>
<title>major&amp;amp;minors</title>
<polygon class="st0" points="169.3,41.7 169.3,41.4 169.3,0 155.5,0 155.5,41.4 114.4,41.4 114.4,55.3 155.5,55.3 155.5,55.9 
	155.5,98.5 169.3,98.5 169.3,55.6 210.3,55.6 210.3,41.7 "/>
<path class="st0" d="M22.4,21.3h-4V5.8l-5,13.4H9L4,6v15.2H0V0.9h6l5.3,13.8l5.3-13.8h6L22.4,21.3z"/>
<path class="st0" d="M47.6,21.3h-4.4l-1.8-4.7h-8.7l-1.8,4.7h-4.3l8-20.4h5L47.6,21.3z M34.1,12.8H40l-2.9-7.9L34.1,12.8z"/>
<path class="st0" d="M64.3,13.8c0,5.1-3.1,7.8-7.3,7.8c-2.5,0.1-4.9-1-6.5-2.8l2.4-3c1,1.2,2.4,1.9,3.9,1.9c2.1,0,3.4-1.4,3.4-4.3
	V0.9h4L64.3,13.8z"/>
<path class="st0" d="M91,11.1c0,6.1-4.5,10.5-10.7,10.5s-10.7-4.4-10.7-10.5S74,0.5,80.3,0.5S91,5,91,11.1z M73.8,11.1
	c0.1,3.5,3.1,6.3,6.7,6.2c3.5-0.1,6.3-3.1,6.2-6.7c-0.1-3.5-3-6.2-6.4-6.2C76.5,4.4,73.8,7.1,73.8,11.1z"/>
<path class="st0" d="M104.9,0.9c4.9,0,7.5,2.3,7.5,6.2c0,3.3-2.3,5.6-6.2,6l6.2,8.1h-5l-5.9-8.1h-1.2v8.1h-4V0.9H104.9z M100.4,4.6
	v5h4.5c2.2,0,3.3-0.9,3.3-2.6s-1.2-2.5-3.3-2.5L100.4,4.6z"/>
<path class="st0" d="M131,6c-1.7-1.1-3.8-1.7-5.8-1.7c-2.3,0-3.9,0.9-3.9,2.5s1.8,2,4.2,2.4l1.1,0.2c3.6,0.6,6.5,2.1,6.5,5.7
	c0,4.4-3.9,6.7-8.3,6.7c-3.1,0.1-6.1-0.8-8.6-2.6l2.1-3.2c1.9,1.5,4.2,2.2,6.5,2.2c2.2,0,4-0.9,4-2.5c0-1.4-1.5-2-4.3-2.4l-1.3-0.2
	c-3.6-0.6-6.2-2.1-6.2-5.8c0-4.3,3.8-6.4,8.1-6.4c2.7,0,5.4,0.7,7.8,2.1L131,6z"/>
<path class="st0" d="M215.4,98.1h-4V82.6l-5,13.4H202l-5-13.2v15.3h-4V77.8h6l5.3,13.8l5.3-13.8h6L215.4,98.1z"/>
<path class="st0" d="M225.8,98.1h-4V77.7h4V98.1z"/>
<path class="st0" d="M250.4,98.1h-3.8l-10.4-13.6v13.6h-4V77.7h3.8l10.4,13.6V77.7h4.1L250.4,98.1z"/>
<path class="st0" d="M276.6,87.8c0,6.1-4.5,10.5-10.7,10.5s-10.7-4.4-10.7-10.5s4.5-10.5,10.7-10.5S276.6,81.8,276.6,87.8z
	 M259.4,87.8c0.1,3.5,3.1,6.3,6.7,6.2c3.5-0.1,6.3-3.1,6.2-6.7c-0.1-3.5-3-6.2-6.4-6.2c-3.5-0.1-6.4,2.7-6.4,6.2
	C259.4,87.5,259.4,87.7,259.4,87.8z"/>
<path class="st0" d="M290.1,77.7c4.9,0,7.5,2.3,7.5,6.2c0,3.3-2.3,5.6-6.2,6l6.2,8.1h-5l-5.9-8.1h-1.2V98h-4V77.6L290.1,77.7
	L290.1,77.7z M285.5,81.4v5h4.5c2.2,0,3.3-0.9,3.3-2.6s-1.2-2.5-3.3-2.5L285.5,81.4z"/>
<path class="st0" d="M316.7,82.8c-1.7-1.1-3.8-1.7-5.8-1.7c-2.3,0-3.8,0.9-3.8,2.5s1.8,2,4.2,2.4l1.1,0.2c3.6,0.6,6.5,2.1,6.5,5.7
	c0,4.4-3.9,6.7-8.3,6.7c-3.1,0.1-6.1-0.8-8.6-2.6l2.1-3.2c1.9,1.5,4.2,2.2,6.5,2.2c2.2,0,4-0.9,4-2.5c0-1.4-1.5-2-4.3-2.4l-1.3-0.2
	c-3.6-0.6-6.2-2.1-6.2-5.8c0-4.3,3.8-6.5,8.1-6.5c2.7,0,5.4,0.7,7.8,2.1L316.7,82.8z"/>
</svg>
