<?xml version="1.0" encoding="utf-8"?>
<!-- Generator: Adobe Illustrator 21.0.2, SVG Export Plug-In . SVG Version: 6.00 Build 0)  -->
<svg version="1.1" id="Layer_1" xmlns="http://www.w3.org/2000/svg" xmlns:xlink="http://www.w3.org/1999/xlink" x="0px" y="0px"
	 viewBox="0 0 383 174" style="enable-background:new 0 0 383 174;" xml:space="preserve">
<style type="text/css">
	.st0{fill:#FFFFFF;}
</style>
<g>
	<polygon class="st0" points="205.9,73.6 205.9,73.2 205.9,4.6 183,4.6 183,73.2 115.1,73.2 115.1,96.1 183,96.1 183,97.1 
		183,167.7 205.9,167.7 205.9,96.6 273.8,96.6 273.8,73.6 	"/>
</g>
<g>
	<path class="st0" d="M31.7,50.4H27v-18l-5.9,15.7h-5l-5.9-15.5v17.8H5.5V26.6h7l6.2,16.1l6.2-16.1h7v23.8H31.7z"/>
	<path class="st0" d="M61.1,50.4H56l-2.1-5.5H43.8l-2.1,5.5h-4.9l9.3-23.8h5.8L61.1,50.4z M45.4,40.5h6.9l-3.4-9.2L45.4,40.5z"/>
	<path class="st0" d="M80.6,41.8c0,6-3.6,9.1-8.5,9.1c-3.9,0-6.3-1.7-7.6-3.3l2.8-3.5c1,1.2,2.4,2.2,4.6,2.2c2.5,0,4-1.6,4-5V26.6
		h4.7V41.8z"/>
	<path class="st0" d="M111.8,38.5c0,7.1-5.2,12.3-12.5,12.3s-12.5-5.2-12.5-12.3S92,26.2,99.3,26.2S111.8,31.4,111.8,38.5z
		 M91.7,38.5c0,4.6,3.2,7.8,7.5,7.8c4.4,0,7.5-3.2,7.5-7.8s-3.2-7.8-7.5-7.8S91.7,33.9,91.7,38.5z"/>
	<path class="st0" d="M128.1,26.6c5.7,0,8.7,2.7,8.7,7.2c0,3.9-2.7,6.6-7.3,7l7.3,9.5h-5.7l-6.9-9.5h-1.4v9.5h-4.7V26.5h10V26.6z
		 M122.8,31v5.8h5.2c2.6,0,3.9-1,3.9-3s-1.4-2.9-3.9-2.9L122.8,31L122.8,31z"/>
	<path class="st0" d="M158.6,32.6c-1.9-1.2-4.1-2-6.7-2c-2.7,0-4.6,1.1-4.6,2.9c0,1.8,2.1,2.3,4.9,2.8l1.3,0.2
		c4.2,0.7,7.6,2.5,7.6,6.7c0,5.3-4.6,7.8-9.7,7.8c-3.6,0-7.5-1.1-10-3.1l2.5-3.8c1.7,1.4,4.5,2.6,7.6,2.6c2.6,0,4.7-1,4.7-2.9
		c0-1.6-1.7-2.3-5-2.8l-1.5-0.2c-4.2-0.7-7.3-2.5-7.3-6.8c0-5,4.4-7.5,9.5-7.5c3.3,0,6.1,0.7,9.1,2.5L158.6,32.6z"/>
</g>
<g>
	<path class="st0" d="M257.1,143.4h-4.7v-18l-5.9,15.7h-5l-5.9-15.5v17.8h-4.7v-23.8h7l6.2,16.1l6.2-16.1h7v23.8H257.1z"/>
	<path class="st0" d="M269.2,143.4h-4.7v-23.8h4.7V143.4z"/>
	<path class="st0" d="M298,143.4h-4.5l-12.1-15.9v15.9h-4.7v-23.8h4.4l12.1,15.9v-15.9h4.8L298,143.4L298,143.4z"/>
	<path class="st0" d="M328.6,131.5c0,7.1-5.2,12.3-12.5,12.3s-12.5-5.2-12.5-12.3s5.2-12.3,12.5-12.3S328.6,124.4,328.6,131.5z
		 M308.6,131.5c0,4.6,3.2,7.8,7.5,7.8c4.4,0,7.5-3.2,7.5-7.8c0-4.6-3.2-7.8-7.5-7.8C311.7,123.7,308.6,126.8,308.6,131.5z"/>
	<path class="st0" d="M344.3,119.6c5.7,0,8.7,2.7,8.7,7.2c0,3.9-2.7,6.6-7.3,7l7.3,9.5h-5.7l-6.9-9.5H339v9.5h-4.7v-23.8
		L344.3,119.6L344.3,119.6z M339,123.9v5.8h5.2c2.6,0,3.9-1,3.9-3s-1.4-2.9-3.9-2.9H339V123.9z"/>
	<path class="st0" d="M375.4,125.6c-1.9-1.2-4.1-2-6.7-2c-2.7,0-4.6,1.1-4.6,2.9s2.1,2.3,4.9,2.8l1.3,0.2c4.2,0.7,7.6,2.5,7.6,6.7
		c0,5.3-4.6,7.8-9.7,7.8c-3.6,0-7.5-1.1-10-3.1l2.5-3.8c1.7,1.4,4.5,2.6,7.6,2.6c2.6,0,4.7-1,4.7-2.9c0-1.6-1.7-2.3-5-2.8l-1.5-0.2
		c-4.2-0.7-7.3-2.5-7.3-6.8c0-5,4.4-7.5,9.5-7.5c3.3,0,6.1,0.7,9.1,2.5L375.4,125.6z"/>
</g>
</svg>
