<svg id="Layer_1" data-name="Layer 1" xmlns="http://www.w3.org/2000/svg" viewBox="0 0 871 423"><defs><style>.cls-1{fill:#fff;}</style></defs><title>major&amp;amp;minors</title><polygon class="cls-1" points="439.44 197.83 439.44 197.59 439.44 156.17 425.63 156.17 425.63 197.59 384.54 197.59 384.54 211.47 425.63 211.47 425.63 212.05 425.63 254.69 439.44 254.69 439.44 211.72 480.45 211.72 480.45 197.83 439.44 197.83"/><path class="cls-1" d="M292.54,177.43h-4V162l-5.05,13.44h-4.28l-5.05-13.27v15.24h-4V157.05h6l5.31,13.79,5.31-13.79h6Z"/><path class="cls-1" d="M317.72,177.43h-4.37l-1.8-4.71H302.9l-1.8,4.71h-4.28l8-20.38h5ZM304.27,169h5.91l-2.91-7.88Z"/><path class="cls-1" d="M334.42,170c0,5.14-3.08,7.79-7.28,7.79a8.22,8.22,0,0,1-6.51-2.83l2.4-3a5,5,0,0,0,3.94,1.88c2.14,0,3.43-1.37,3.43-4.28v-12.5h4Z"/><path class="cls-1" d="M361.13,167.24c0,6.08-4.45,10.53-10.7,10.53s-10.7-4.45-10.7-10.53,4.45-10.53,10.7-10.53S361.13,161.16,361.13,167.24Zm-17.21,0a6.43,6.43,0,1,0,6.42-6.68C346.66,160.56,343.92,163.22,343.92,167.24Z"/><path class="cls-1" d="M375.09,157.05c4.88,0,7.45,2.31,7.45,6.17,0,3.34-2.31,5.65-6.25,6l6.25,8.14h-5l-5.91-8.14h-1.2v8.14h-4V157.05Zm-4.54,3.68v5H375q3.34,0,3.34-2.57c0-1.71-1.2-2.48-3.34-2.48Z"/><path class="cls-1" d="M401.21,162.19a10.76,10.76,0,0,0-5.82-1.71c-2.31,0-3.94.94-3.94,2.48s1.8,2,4.2,2.4l1.11.17c3.6.6,6.51,2.14,6.51,5.74,0,4.45-3.94,6.68-8.31,6.68a13.92,13.92,0,0,1-8.56-2.65l2.14-3.25a10.51,10.51,0,0,0,6.51,2.23c2.23,0,4-.86,4-2.48,0-1.37-1.46-2-4.28-2.4l-1.28-.17c-3.6-.6-6.25-2.14-6.25-5.82,0-4.28,3.77-6.42,8.14-6.42a14.63,14.63,0,0,1,7.79,2.14Z"/><path class="cls-1" d="M485.56,254.22h-4V238.8l-5.05,13.44H472.2L467.15,239V254.3h-4V233.92h6l5.31,13.79,5.31-13.79h6Z"/><path class="cls-1" d="M495.92,254.22h-4V233.84h4Z"/><path class="cls-1" d="M520.58,254.22h-3.85L506.37,240.6v13.62h-4V233.84h3.77l10.36,13.62V233.84h4.11Z"/><path class="cls-1" d="M546.78,244c0,6.08-4.45,10.53-10.7,10.53s-10.7-4.45-10.7-10.53,4.45-10.53,10.7-10.53S546.78,237.95,546.78,244Zm-17.21,0a6.43,6.43,0,1,0,6.42-6.68A6.32,6.32,0,0,0,529.57,244Z"/><path class="cls-1" d="M560.23,233.84c4.88,0,7.45,2.31,7.45,6.17,0,3.34-2.31,5.65-6.25,6l6.25,8.14h-5L556.8,246h-1.2v8.14h-4V233.75h8.65Zm-4.54,3.77v5h4.45q3.34,0,3.34-2.57c0-1.71-1.2-2.48-3.34-2.48Z"/><path class="cls-1" d="M586.86,239a10.76,10.76,0,0,0-5.82-1.71c-2.31,0-3.85.86-3.85,2.48s1.8,2,4.2,2.4l1.11.17c3.6.6,6.51,2.14,6.51,5.74,0,4.45-3.94,6.68-8.31,6.68a13.92,13.92,0,0,1-8.56-2.65l2.14-3.25a10.51,10.51,0,0,0,6.51,2.23c2.23,0,4-.86,4-2.48,0-1.37-1.46-2-4.28-2.4l-1.28-.17c-3.6-.6-6.25-2.14-6.25-5.82,0-4.28,3.77-6.51,8.14-6.51a14.63,14.63,0,0,1,7.79,2.14Z"/></svg>