<svg id="Layer_1" data-name="Layer 1" xmlns="http://www.w3.org/2000/svg" viewBox="0 0 193.63 98"><defs><style>.cls-1{fill:#fff;}</style></defs><title>Artboard 1</title><polygon class="cls-1" points="148.03 42.09 105.94 42.09 105.94 0 92.13 0 92.13 42.09 50.03 42.09 50.03 55.9 92.13 55.9 92.13 98 105.94 98 105.94 55.9 148.03 55.9 148.03 42.09"/><path class="cls-1" d="M12.52,24.56H10.28V15.93L7.46,23.45H5.06L2.24,16v8.53H0V13.16H3.36l3,7.72,3-7.72h3.36Z"/><path class="cls-1" d="M26.61,24.56H24.16l-1-2.64H18.32l-1,2.64H14.92l4.48-11.4h2.8Zm-7.52-4.72h3.31l-1.63-4.41Z"/><path class="cls-1" d="M36,20.4c0,2.88-1.72,4.36-4.07,4.36a4.6,4.6,0,0,1-3.64-1.58l1.34-1.68a2.8,2.8,0,0,0,2.2,1.05c1.2,0,1.92-.77,1.92-2.39v-7h2.24Z"/><path class="cls-1" d="M50.9,18.86a5.74,5.74,0,0,1-6,5.89,5.74,5.74,0,0,1-6-5.89,5.74,5.74,0,0,1,6-5.89A5.74,5.74,0,0,1,50.9,18.86Zm-9.63,0a3.6,3.6,0,1,0,3.59-3.74A3.51,3.51,0,0,0,41.27,18.86Z"/><path class="cls-1" d="M58.71,13.16c2.73,0,4.17,1.29,4.17,3.45,0,1.87-1.29,3.16-3.5,3.36l3.5,4.55h-2.8L56.77,20H56.1v4.55H53.86V13.16Zm-2.54,2.06V18h2.49q1.87,0,1.87-1.44c0-1-.67-1.39-1.87-1.39Z"/><path class="cls-1" d="M73.32,16a6,6,0,0,0-3.26-1c-1.29,0-2.2.53-2.2,1.39s1,1.12,2.35,1.34l.62.1c2,.34,3.64,1.2,3.64,3.21,0,2.49-2.2,3.74-4.65,3.74A7.79,7.79,0,0,1,65,23.37l1.2-1.82a5.88,5.88,0,0,0,3.64,1.25c1.25,0,2.24-.48,2.24-1.39s-.82-1.12-2.39-1.34L69,20c-2-.34-3.5-1.2-3.5-3.26,0-2.39,2.11-3.59,4.55-3.59a8.19,8.19,0,0,1,4.36,1.2Z"/><path class="cls-1" d="M135.75,84.75h-2.24V76.12l-2.83,7.52h-2.41l-2.83-7.41v8.56h-2.24V73.39h3.36l3,7.72,3-7.72h3.36Z"/><path class="cls-1" d="M141.55,84.75h-2.24V73.34h2.24Z"/><path class="cls-1" d="M155.34,84.75h-2.15l-5.8-7.62v7.62h-2.24V73.34h2.11l5.8,7.62V73.34h2.3Z"/><path class="cls-1" d="M170,79a6,6,0,1,1-6-5.89A5.74,5.74,0,0,1,170,79Zm-9.63,0A3.6,3.6,0,1,0,164,75.29a3.54,3.54,0,0,0-3.6,3.47Q160.37,78.9,160.37,79Z"/><path class="cls-1" d="M177.53,73.34c2.73,0,4.17,1.29,4.17,3.45,0,1.87-1.29,3.16-3.5,3.36l3.5,4.55h-2.8l-3.29-4.56h-.67V84.7H172.7V73.29h4.84ZM175,75.45v2.8h2.49q1.87,0,1.87-1.44c0-1-.67-1.39-1.87-1.39Z"/><path class="cls-1" d="M192.43,76.23a6,6,0,0,0-3.26-1c-1.29,0-2.15.48-2.15,1.39s1,1.12,2.35,1.34l.62.1c2,.34,3.64,1.2,3.64,3.21,0,2.49-2.2,3.74-4.65,3.74a7.79,7.79,0,0,1-4.79-1.48l1.2-1.82A5.88,5.88,0,0,0,189,83c1.25,0,2.24-.48,2.24-1.39s-.82-1.12-2.39-1.34l-.72-.1c-2-.34-3.5-1.2-3.5-3.26,0-2.39,2.11-3.64,4.55-3.64a8.19,8.19,0,0,1,4.36,1.2Z"/></svg>