<?xml version="1.0" encoding="utf-8"?>
<!-- Generator: Adobe Illustrator 21.0.2, SVG Export Plug-In . SVG Version: 6.00 Build 0)  -->
<svg version="1.1" id="Layer_1" xmlns="http://www.w3.org/2000/svg" xmlns:xlink="http://www.w3.org/1999/xlink" x="0px" y="0px"
	 viewBox="0 0 257.1 127.6" style="enable-background:new 0 0 257.1 127.6;" xml:space="preserve">
<style type="text/css">
	.st0{fill:#FFFFFF;}
</style>
<title>news</title>
<polygon class="st0" points="8,8.1 0,8.1 0,10.8 8,10.8 8,19.2 10.7,19.2 10.7,10.8 10.7,8.1 "/>
<polygon class="st0" points="10.7,8.2 10.7,0 8,0 8,8.2 8,10.9 10.7,10.9 18.7,10.9 18.7,8.2 "/>
<polygon class="st0" points="87.5,8.1 79.5,8.1 79.5,10.8 87.5,10.8 87.5,19.2 90.2,19.2 90.2,10.8 90.2,8.1 "/>
<polygon class="st0" points="90.2,8.2 90.2,0 87.5,0 87.5,8.2 87.5,10.9 90.2,10.9 98.2,10.9 98.2,8.2 "/>
<polygon class="st0" points="167,8.1 159,8.1 159,10.8 167,10.8 167,19.2 169.7,19.2 169.7,10.8 169.7,8.1 "/>
<polygon class="st0" points="169.7,8.2 169.7,0 167,0 167,8.2 167,10.9 169.7,10.9 177.7,10.9 177.7,8.2 "/>
<polygon class="st0" points="246.5,8.1 238.5,8.1 238.5,10.8 246.5,10.8 246.5,19.2 249.2,19.2 249.2,10.8 249.2,8.1 "/>
<polygon class="st0" points="249.2,8.2 249.2,0 246.5,0 246.5,8.2 246.5,10.9 249.2,10.9 257.1,10.9 257.1,8.2 "/>
<polygon class="st0" points="8,62.3 0,62.3 0,65 8,65 8,73.4 10.7,73.4 10.7,65 10.7,62.3 "/>
<polygon class="st0" points="10.7,62.4 10.7,54.2 8,54.2 8,62.4 8,65.1 10.7,65.1 18.7,65.1 18.7,62.4 "/>
<polygon class="st0" points="246.5,62.3 238.5,62.3 238.5,65 246.5,65 246.5,73.4 249.2,73.4 249.2,65 249.2,62.3 "/>
<polygon class="st0" points="249.2,62.4 249.2,54.2 246.5,54.2 246.5,62.4 246.5,65.1 249.2,65.1 257.1,65.1 257.1,62.4 "/>
<polygon class="st0" points="8,116.5 0,116.5 0,119.2 8,119.2 8,127.6 10.7,127.6 10.7,119.2 10.7,116.5 "/>
<polygon class="st0" points="10.7,116.6 10.7,108.4 8,108.4 8,116.6 8,119.3 10.7,119.3 18.7,119.3 18.7,116.6 "/>
<polygon class="st0" points="87.5,116.5 79.5,116.5 79.5,119.2 87.5,119.2 87.5,127.6 90.2,127.6 90.2,119.2 90.2,116.5 "/>
<polygon class="st0" points="90.2,116.6 90.2,108.4 87.5,108.4 87.5,116.6 87.5,119.3 90.2,119.3 98.2,119.3 98.2,116.6 "/>
<polygon class="st0" points="167,116.5 159,116.5 159,119.2 167,119.2 167,127.6 169.7,127.6 169.7,119.2 169.7,116.5 "/>
<polygon class="st0" points="169.7,116.6 169.7,108.4 167,108.4 167,116.6 167,119.3 169.7,119.3 177.7,119.3 177.7,116.6 "/>
<polygon class="st0" points="246.5,116.5 238.5,116.5 238.5,119.2 246.5,119.2 246.5,127.6 249.2,127.6 249.2,119.2 249.2,116.5 "/>
<polygon class="st0" points="249.2,116.6 249.2,108.4 246.5,108.4 246.5,116.6 246.5,119.3 249.2,119.3 257.1,119.3 257.1,116.6 "/>
<path class="st0" d="M74.7,79.3h-5.8L53.1,58.6v20.8H47V48.3h5.8L68.5,69V48.3h6.2V79.3z"/>
<path class="st0" d="M113.9,79.3H90.7v-31h23V54H96.8v6.9h16.1v5.7H96.8v7.1h17L113.9,79.3z"/>
<path class="st0" d="M163.9,79.3h-7.5l-6.7-22.2l-6.6,22.2h-7.5l-9.3-31.1h6.4l6.7,23.8l7-23.8h6.9l7,23.8l6.7-23.8h6.3L163.9,79.3z
	"/>
<path class="st0" d="M206.9,56.1c-2.6-1.7-5.7-2.6-8.8-2.6c-3.5,0-6,1.4-6,3.7s2.7,3,6.4,3.6l1.8,0.3c5.5,0.9,9.9,3.3,9.9,8.7
	c0,6.9-6,10.1-12.7,10.1c-4.7,0-9.8-1.4-13.1-4.1l3.2-5c2.8,2.2,6.3,3.3,9.9,3.4c3.4,0,6.1-1.4,6.1-3.8c0-2.1-2.3-3-6.6-3.6l-2-0.3
	c-5.5-0.9-9.5-3.3-9.5-8.9c0-6.5,5.8-9.9,12.4-9.9c4.2-0.1,8.3,1.1,11.9,3.3L206.9,56.1z"/>
</svg>
