<svg id="Layer_1" data-name="Layer 1" xmlns="http://www.w3.org/2000/svg" viewBox="0 0 871 423"><defs><style>.cls-1{fill:#fff;}</style></defs><title>news</title><polygon class="cls-1" points="296.85 149.22 288.86 149.22 288.86 151.92 296.85 151.92 296.85 160.35 299.54 160.35 299.54 151.92 299.54 149.22 296.85 149.22"/><polygon class="cls-1" points="299.54 149.34 299.54 141.15 296.85 141.15 296.85 149.34 296.85 152.04 299.54 152.04 307.54 152.04 307.54 149.34 299.54 149.34"/><polygon class="cls-1" points="376.34 149.22 368.35 149.22 368.35 151.92 376.34 151.92 376.34 160.35 379.03 160.35 379.03 151.92 379.03 149.22 376.34 149.22"/><polygon class="cls-1" points="379.03 149.34 379.03 141.15 376.34 141.15 376.34 149.34 376.34 152.04 379.03 152.04 387.02 152.04 387.02 149.34 379.03 149.34"/><polygon class="cls-1" points="455.83 149.22 447.84 149.22 447.84 151.92 455.83 151.92 455.83 160.35 458.52 160.35 458.52 151.92 458.52 149.22 455.83 149.22"/><polygon class="cls-1" points="458.52 149.34 458.52 141.15 455.83 141.15 455.83 149.34 455.83 152.04 458.52 152.04 466.51 152.04 466.51 149.34 458.52 149.34"/><polygon class="cls-1" points="535.31 149.22 527.32 149.22 527.32 151.92 535.31 151.92 535.31 160.35 538.01 160.35 538.01 151.92 538.01 149.22 535.31 149.22"/><polygon class="cls-1" points="538.01 149.34 538.01 141.15 535.31 141.15 535.31 149.34 535.31 152.04 538.01 152.04 546 152.04 546 149.34 538.01 149.34"/><polygon class="cls-1" points="296.85 203.44 288.86 203.44 288.86 206.14 296.85 206.14 296.85 214.57 299.54 214.57 299.54 206.14 299.54 203.44 296.85 203.44"/><polygon class="cls-1" points="299.54 203.56 299.54 195.37 296.85 195.37 296.85 203.56 296.85 206.26 299.54 206.26 307.54 206.26 307.54 203.56 299.54 203.56"/><polygon class="cls-1" points="535.31 203.44 527.32 203.44 527.32 206.14 535.31 206.14 535.31 214.57 538.01 214.57 538.01 206.14 538.01 203.44 535.31 203.44"/><polygon class="cls-1" points="538.01 203.56 538.01 195.37 535.31 195.37 535.31 203.56 535.31 206.26 538.01 206.26 546 206.26 546 203.56 538.01 203.56"/><polygon class="cls-1" points="296.85 257.66 288.86 257.66 288.86 260.36 296.85 260.36 296.85 268.79 299.54 268.79 299.54 260.36 299.54 257.66 296.85 257.66"/><polygon class="cls-1" points="299.54 257.78 299.54 249.58 296.85 249.58 296.85 257.78 296.85 260.48 299.54 260.48 307.54 260.48 307.54 257.78 299.54 257.78"/><polygon class="cls-1" points="376.34 257.66 368.35 257.66 368.35 260.36 376.34 260.36 376.34 268.79 379.03 268.79 379.03 260.36 379.03 257.66 376.34 257.66"/><polygon class="cls-1" points="379.03 257.78 379.03 249.58 376.34 249.58 376.34 257.78 376.34 260.48 379.03 260.48 387.02 260.48 387.02 257.78 379.03 257.78"/><polygon class="cls-1" points="455.83 257.66 447.84 257.66 447.84 260.36 455.83 260.36 455.83 268.79 458.52 268.79 458.52 260.36 458.52 257.66 455.83 257.66"/><polygon class="cls-1" points="458.52 257.78 458.52 249.58 455.83 249.58 455.83 257.78 455.83 260.48 458.52 260.48 466.51 260.48 466.51 257.78 458.52 257.78"/><polygon class="cls-1" points="535.31 257.66 527.32 257.66 527.32 260.36 535.31 260.36 535.31 268.79 538.01 268.79 538.01 260.36 538.01 257.66 535.31 257.66"/><polygon class="cls-1" points="538.01 257.78 538.01 249.58 535.31 249.58 535.31 257.78 535.31 260.48 538.01 260.48 546 260.48 546 257.78 538.01 257.78"/><path class="cls-1" d="M363.57,220.49h-5.82L342,199.74l0,20.76h-6.19V189.42h5.79l15.78,20.75V189.42h6.21Z"/><path class="cls-1" d="M402.73,220.49H379.51V189.42h23v5.68H385.7V202h16.07v5.68H385.7v7.15h17Z"/><path class="cls-1" d="M452.78,220.49h-7.5l-6.66-22.2L432,220.49h-7.5l-9.28-31.08h6.44l6.68,23.84,6.95-23.84h6.86l6.95,23.84,6.68-23.84h6.33Z"/><path class="cls-1" d="M495.77,197.25a16.7,16.7,0,0,0-8.81-2.64c-3.48,0-5.95,1.38-5.95,3.73s2.69,3,6.42,3.6l1.75.29c5.55.91,9.9,3.29,9.9,8.7,0,6.86-6,10.12-12.72,10.12-4.71,0-9.77-1.38-13.1-4.06l3.22-5a16.41,16.41,0,0,0,9.9,3.35c3.44,0,6.1-1.35,6.1-3.75,0-2.15-2.26-3-6.59-3.64l-2-.31c-5.48-.87-9.48-3.28-9.48-8.9,0-6.48,5.77-9.86,12.39-9.86a21.86,21.86,0,0,1,11.88,3.31Z"/></svg>