<svg id="Layer_1" data-name="Layer 1" xmlns="http://www.w3.org/2000/svg" viewBox="0 0 871.2 423.36"><defs><style>.cls-1{fill:#fff;}.cls-2{fill:#414142;}</style></defs><title>news1</title><polygon class="cls-1" points="442.17 204.49 442.17 204.24 442.17 164.75 429.01 164.75 429.01 204.24 389.95 204.24 389.95 217.43 429.01 217.43 429.01 217.99 429.01 258.61 442.17 258.61 442.17 217.67 481.25 217.67 481.25 204.49 442.17 204.49"/><path class="cls-1" d="M390,304.47h-5l-13.59-17.89v17.89h-5.36V277.75h5l13.59,17.89V277.75H390Z"/><path class="cls-1" d="M423.68,304.47h-20V277.75h19.86v4.91H409v5.89h13.82v4.91H409v6.12h14.65v4.91Z"/><path class="cls-1" d="M466.8,304.47H460.3l-5.74-19.1-5.74,19.1h-6.49l-8-26.73h5.51l5.74,20.54,6-20.54h5.89l6,20.54,5.74-20.54h5.44Z"/><path class="cls-1" d="M503.79,284.47a14.58,14.58,0,0,0-7.55-2.27c-3,0-5.13,1.21-5.13,3.25s2.34,2.57,5.51,3.1l1.51.23c4.76.76,8.53,2.79,8.53,7.47,0,5.89-5.21,8.68-10.95,8.68a18.79,18.79,0,0,1-11.25-3.47l2.79-4.3a14.4,14.4,0,0,0,8.53,2.87c2.94,0,5.29-1.13,5.29-3.25,0-1.89-2-2.57-5.66-3.17l-1.74-.3c-4.76-.76-8.15-2.79-8.15-7.63,0-5.59,5-8.46,10.65-8.46a18.32,18.32,0,0,1,10.19,2.87Z"/><rect class="cls-2" x="462.49" y="171.21" width="45" height="1.89"/><rect class="cls-2" x="462.49" y="190.09" width="45" height="1.89"/><rect class="cls-2" x="488.92" y="209.79" width="18.57" height="1.89"/><rect class="cls-2" x="364.57" y="209.79" width="18.57" height="1.89"/><rect class="cls-2" x="462.49" y="229.5" width="45" height="1.89"/><rect class="cls-2" x="462.49" y="248.38" width="45" height="1.89"/><rect class="cls-2" x="364.57" y="171.21" width="45" height="1.89"/><rect class="cls-2" x="364.57" y="190.09" width="45" height="1.89"/><rect class="cls-2" x="364.57" y="229.5" width="45" height="1.89"/><rect class="cls-2" x="364.57" y="248.38" width="45" height="1.89"/><path class="cls-2" d="M327.57,168.42v143.3a13.82,13.82,0,0,0,13.82,13.82H522.21V146.37c0-.83,0-2.72,0-2.72H349.77V311.8a8.31,8.31,0,1,1-16.61,0V168.42ZM516.78,320H352.56a13.75,13.75,0,0,0,2.79-8.31V149.17H516.78Z"/></svg>