<svg xmlns="http://www.w3.org/2000/svg" width="1684.686" height="341.19" viewBox="0 0 1684.686 341.19">
  <metadata><?xpacket begin="﻿" id="W5M0MpCehiHzreSzNTczkc9d"?>
<x:xmpmeta xmlns:x="adobe:ns:meta/" x:xmptk="Adobe XMP Core 5.6-c138 79.159824, 2016/09/14-01:09:01        ">
   <rdf:RDF xmlns:rdf="http://www.w3.org/1999/02/22-rdf-syntax-ns#">
      <rdf:Description rdf:about=""/>
   </rdf:RDF>
</x:xmpmeta>
                                                                                                    
                                                                                                    
                                                                                                    
                                                                                                    
                                                                                                    
                                                                                                    
                                                                                                    
                                                                                                    
                                                                                                    
                                                                                                    
                                                                                                    
                                                                                                    
                                                                                                    
                                                                                                    
                                                                                                    
                                                                                                    
                                                                                                    
                                                                                                    
                                                                                                    
                                                                                                    
                           
<?xpacket end="w"?></metadata>
<defs>
    <style>
      .cls-1 {
        fill: #fff;
        fill-rule: evenodd;
      }
    </style>
  </defs>
  <path id="OUR_CULTURE_MOVES_CULTURE." data-name="OUR CULTURE MOVES CULTURE." class="cls-1" d="M809.7,2213.81c-36.735,0-63.412,26.43-63.412,63.1s26.677,63.1,63.412,63.1,63.412-26.43,63.412-63.1S846.436,2213.81,809.7,2213.81Zm0,14.79c26.939,0,47.318,19.52,47.318,48.31s-20.379,48.31-47.318,48.31-47.319-19.52-47.319-48.31S782.762,2228.6,809.7,2228.6Zm199.919-12.95H994.138v73.34c0,25.11-14.869,36.14-35.336,36.14s-35.423-11.03-35.423-36.14v-73.34H907.985v74.47c0,33.43,22.566,49.8,50.817,49.8s50.818-16.37,50.818-49.8v-74.47Zm41.87,0v122.52h15.4v-52.86h14.34l42.07,52.86h19.07l-43.12-52.86h0.96c26.24,0,42.77-13.65,42.77-34.92,0-22.31-15.22-34.74-42.86-34.74h-48.63Zm48.28,14.44c17.76,0,27.21,6.74,27.21,20.3,0,13.74-9.19,20.92-27.21,20.92h-32.88v-41.22h32.88Zm191.17-16.28c-36.73,0-63.41,26.43-63.41,63.1s26.68,63.1,63.41,63.1c21.17,0,39.45-9.46,49.77-24.77l-12.6-9.19c-8.04,11.99-21.42,19.17-37.17,19.17-26.94,0-47.32-19.52-47.32-48.31s20.38-48.31,47.32-48.31c15.83,0,29.3,7.44,37.26,19.25l12.86-8.66C1331.44,2223.44,1312.37,2213.81,1290.94,2213.81Zm185.93,1.84h-15.48v73.34c0,25.11-14.87,36.14-35.34,36.14s-35.42-11.03-35.42-36.14v-73.34h-15.39v74.47c0,33.43,22.56,49.8,50.81,49.8s50.82-16.37,50.82-49.8v-74.47Zm127.42,107.9h-70.15v-107.9h-15.4v122.52h85.55v-14.62Zm104.67-107.9h-98.92v14.61h41.81v107.91h15.39V2230.26h41.72v-14.61Zm129.52,0H1823v73.34c0,25.11-14.87,36.14-35.33,36.14s-35.43-11.03-35.43-36.14v-73.34h-15.39v74.47c0,33.43,22.56,49.8,50.82,49.8s50.81-16.37,50.81-49.8v-74.47Zm41.88,0v122.52h15.39v-52.86h14.34l42.08,52.86h19.06l-43.12-52.86h0.96c26.24,0,42.77-13.65,42.77-34.92,0-22.31-15.21-34.74-42.85-34.74h-48.63Zm48.28,14.44c17.75,0,27.2,6.74,27.2,20.3,0,13.74-9.19,20.92-27.2,20.92h-32.89v-41.22h32.89Zm166.07,93.64h-71.54v-40h68.39v-14.52h-68.39v-39.12h70.67v-14.44h-86.07v122.52h86.94v-14.44ZM712.2,2430.56H688.676l-41.021,91.45-41.021-91.45H583.106v122.61H598.5V2448.41l41.021,91.54h16.269l41.021-92.24v105.46H712.2V2430.56Zm100.121-1.75c-36.735,0-63.412,26.43-63.412,63.1s26.677,63.1,63.412,63.1,63.412-26.43,63.412-63.1S849.06,2428.81,812.325,2428.81Zm0,14.79c26.939,0,47.319,19.52,47.319,48.31s-20.38,48.31-47.319,48.31-47.318-19.52-47.318-48.31S785.386,2443.6,812.325,2443.6Zm199.215-12.95H995.626l-41.983,107.29-41.808-107.29H895.391l48.543,122.61H963Zm116.14,108.08h-71.55v-40h68.4v-14.52h-68.4v-39.12h70.67v-14.44h-86.06v122.52h86.94v-14.44Zm127.94-96.44c-11.55-7.97-25.63-13.39-44.08-13.39-25.81,0-46.8,13.21-46.8,36.84,0,20.92,16.1,30.28,36.3,32.73l11.37,1.4c19.07,2.36,29.3,7.79,29.3,19.17,0,13.82-14.34,21.26-32.62,21.26-15.57,0-31.4-6.21-39.89-13.56l-8.39,12.25c11.8,9.89,30.87,15.93,48.28,15.93,26.5,0,48.63-12.78,48.63-37.2,0-21.61-17.76-30.01-38.49-32.55l-10.76-1.31c-18.36-2.28-27.72-7.97-27.72-19.08,0-13.22,12.77-21.27,30.7-21.27a64.044,64.044,0,0,1,36.3,11.29Zm150.76-13.48c-36.74,0-63.42,26.43-63.42,63.1s26.68,63.1,63.42,63.1c21.16,0,39.44-9.46,49.76-24.77l-12.59-9.19c-8.05,11.99-21.43,19.17-37.17,19.17-26.94,0-47.32-19.52-47.32-48.31s20.38-48.31,47.32-48.31c15.83,0,29.3,7.44,37.26,19.25l12.85-8.66C1446.87,2438.44,1427.81,2428.81,1406.38,2428.81Zm185.92,1.84h-15.48v73.34c0,25.11-14.87,36.14-35.33,36.14s-35.43-11.03-35.43-36.14v-73.34h-15.39v74.47c0,33.43,22.57,49.8,50.82,49.8s50.81-16.37,50.81-49.8v-74.47Zm127.42,107.9h-70.15v-107.9h-15.39v122.52h85.54v-14.62Zm104.68-107.9h-98.92v14.61h41.8v107.91h15.4V2445.26h41.72v-14.61Zm129.52,0h-15.48v73.34c0,25.11-14.87,36.14-35.34,36.14s-35.42-11.03-35.42-36.14v-73.34h-15.4v74.47c0,33.43,22.57,49.8,50.82,49.8s50.82-16.37,50.82-49.8v-74.47Zm41.87,0v122.52h15.39v-52.86h14.35l42.07,52.86h19.07l-43.12-52.86h0.96c26.24,0,42.77-13.65,42.77-34.92,0-22.31-15.22-34.74-42.86-34.74h-48.63Zm48.28,14.44c17.76,0,27.2,6.74,27.2,20.3,0,13.74-9.18,20.92-27.2,20.92h-32.89v-41.22h32.89Zm166.08,93.64H2138.6v-40H2207v-14.52h-68.4v-39.12h70.67v-14.44h-86.06v122.52h86.94v-14.44Zm45.72-7.79a11.99,11.99,0,1,0,11.9,11.9A12.219,12.219,0,0,0,2255.87,2530.94Z" transform="translate(-583.094 -2213.81)"/>
</svg>
