<?xml version="1.0" encoding="utf-8"?>
<!-- Generator: Adobe Illustrator 21.1.0, SVG Export Plug-In . SVG Version: 6.00 Build 0)  -->
<svg version="1.1" id="BG_-_750_x_1334_326_ppi_" xmlns="http://www.w3.org/2000/svg" xmlns:xlink="http://www.w3.org/1999/xlink"
	 x="0px" y="0px" viewBox="0 0 748 505" style="enable-background:new 0 0 748 505;" xml:space="preserve">
<style type="text/css">
	.st0{enable-background:new    ;}
	.st1{fill:#FFFFFF;}
	.st2{fill:none;}
</style>
<image style="overflow:visible;enable-background:new    ;" width="748" height="502" xlink:href="OurReel.png"  transform="matrix(1.0019 0 0 1.0019 -0.6955 1.0332)">
</image>
<g class="st0">
	<path class="st1" d="M223.6,251c0,15.7-11.4,27-27.2,27s-27.2-11.3-27.2-27s11.4-27,27.2-27S223.6,235.3,223.6,251z M176.2,251
		c0,12.3,8.7,20.7,20.3,20.7s20.3-8.4,20.3-20.7s-8.7-20.7-20.3-20.7S176.2,238.7,176.2,251z"/>
	<path class="st1" d="M282.1,256.7c0,14.3-9.7,21.3-21.8,21.3s-21.8-7-21.8-21.3v-31.9h6.6v31.4c0,10.8,6.4,15.5,15.2,15.5
		c8.8,0,15.1-4.7,15.1-15.5v-31.4h6.6L282.1,256.7L282.1,256.7z"/>
	<path class="st1" d="M320.9,224.7c11.8,0,18.4,5.3,18.4,14.9c0,9.1-7.1,15-18.3,15h-0.4l18.5,22.7h-8.2l-18-22.7h-6.1v22.7h-6.6
		v-52.5L320.9,224.7L320.9,224.7z M306.7,230.9v17.7h14.1c7.7,0,11.7-3.1,11.7-9c0-5.8-4-8.7-11.7-8.7H306.7z"/>
	<path class="st1" d="M399.4,224.7c11.8,0,18.4,5.3,18.4,14.9c0,9.1-7.1,15-18.3,15H399l18.5,22.7h-8.2l-18-22.7h-6.1v22.7h-6.6
		v-52.5L399.4,224.7L399.4,224.7z M385.1,230.9v17.7h14.1c7.7,0,11.7-3.1,11.7-9c0-5.8-4-8.7-11.7-8.7H385.1z"/>
	<path class="st1" d="M470.4,277.3h-37.3v-52.5H470v6.2h-30.3v16.8H469v6.2h-29.3v17.1h30.7L470.4,277.3L470.4,277.3z"/>
	<path class="st1" d="M524.8,277.3h-37.3v-52.5h36.9v6.2h-30.3v16.8h29.3v6.2h-29.3v17.1h30.7L524.8,277.3L524.8,277.3z"/>
	<path class="st1" d="M578.7,277.3H542v-52.5h6.6V271h30.1L578.7,277.3L578.7,277.3z"/>
</g>
<path class="st1" d="M0,0"/>
<path class="st1" d="M0,0"/>
<g id="PLAY_BUTTON_copy_3">
	
		<image style="overflow:visible;enable-background:new    ;" width="95" height="95" xlink:href="Playbutton.png"  transform="matrix(1 0 0 1 43 362)">
	</image>
	<path class="st2" d="M0,0"/>
</g>
</svg>
