<svg id="Capa_1" data-name="Capa 1" xmlns="http://www.w3.org/2000/svg" viewBox="0 0 34.09 34.09"><defs><style>.cls-1{fill:#fff;}</style></defs><title>Social_Twitter</title><path class="cls-1" d="M179.94,89.31a3,3,0,1,0-3-3A3,3,0,0,0,179.94,89.31Z" transform="translate(-162.89 -69.27)"/><polygon class="cls-1" points="23.58 13.38 23.58 10.88 23.58 10.5 23.21 10.5 20.7 10.51 20.71 13.39 23.58 13.38"/><path class="cls-1" d="M184.59,86.32a4.65,4.65,0,1,1-9-1.75h-2.54v7a1.63,1.63,0,0,0,1.63,1.63h10.43a1.63,1.63,0,0,0,1.63-1.63v-7h-2.54A4.63,4.63,0,0,1,184.59,86.32Z" transform="translate(-162.89 -69.27)"/><path class="cls-1" d="M162.89,69.27v34.09H197V69.27Zm25.55,15.3v7a3.29,3.29,0,0,1-3.29,3.29H174.72a3.29,3.29,0,0,1-3.29-3.29V81.1a3.29,3.29,0,0,1,3.29-3.29h10.43a3.29,3.29,0,0,1,3.29,3.29Z" transform="translate(-162.89 -69.27)"/></svg>