<svg id="Capa_1" data-name="Capa 1" xmlns="http://www.w3.org/2000/svg" viewBox="0 0 34.09 34.09"><defs><style>.cls-1{fill:#fff;}</style></defs><title>Social_Twitter</title><path class="cls-1" d="M282.09,69.27v34.09h34.09V69.27Zm23.82,13.57c0,.15,0,.3,0,.45a9.94,9.94,0,0,1-15.3,8.38,7.07,7.07,0,0,0,5.17-1.45,3.5,3.5,0,0,1-3.26-2.43,3.46,3.46,0,0,0,.66.06,3.41,3.41,0,0,0,.92-.12,3.5,3.5,0,0,1-2.8-3.43v0a3.5,3.5,0,0,0,1.58.44A3.5,3.5,0,0,1,291.8,80a9.92,9.92,0,0,0,7.2,3.65,3.5,3.5,0,0,1,6-3.19,7,7,0,0,0,2.22-.85,3.5,3.5,0,0,1-1.54,1.93,7,7,0,0,0,2-.55A7.09,7.09,0,0,1,305.91,82.84Z" transform="translate(-282.09 -69.27)"/></svg>