<?xml version="1.0" encoding="utf-8"?>
<!-- Generator: Adobe Illustrator 21.0.2, SVG Export Plug-In . SVG Version: 6.00 Build 0)  -->
<svg version="1.1" id="Capa_1" xmlns="http://www.w3.org/2000/svg" xmlns:xlink="http://www.w3.org/1999/xlink" x="0px" y="0px"
	 viewBox="0 0 34.1 34.1" style="enable-background:new 0 0 34.1 34.1;" xml:space="preserve">
<style type="text/css">
	.st0{fill:#FFFFFF;}
</style>
<path class="st0" d="M20,14.8c-1.2,0-2.1,0.7-2.4,1.3h0V15h-2.4v8.1h2.6v-4c0-1,0.2-2.1,1.5-2.1c1.3,0,1.3,1.2,1.3,2.2v4h2.5v-4.5
	C23.1,16.5,22.6,14.8,20,14.8z"/>
<rect x="11.1" y="15" class="st0" width="2.5" height="8.1"/>
<path class="st0" d="M12.3,11c-0.8,0-1.5,0.6-1.5,1.4c0,0.8,0.7,1.5,1.5,1.5c0.8,0,1.5-0.6,1.5-1.4S13.1,11,12.3,11z"/>
<path class="st0" d="M0,0v34.1h34.1V0H0z M25.6,24.4c0,0.7-0.6,1.2-1.3,1.2H9.8c-0.7,0-1.3-0.6-1.3-1.2V9.8c0-0.7,0.6-1.2,1.3-1.2
	h14.5c0.7,0,1.3,0.6,1.3,1.2V24.4z"/>
</svg>
