<svg xmlns="http://www.w3.org/2000/svg" width="1291.684" height="69.62" viewBox="0 0 1291.684 69.62">
  <metadata><?xpacket begin="﻿" id="W5M0MpCehiHzreSzNTczkc9d"?>
<x:xmpmeta xmlns:x="adobe:ns:meta/" x:xmptk="Adobe XMP Core 5.6-c138 79.159824, 2016/09/14-01:09:01        ">
   <rdf:RDF xmlns:rdf="http://www.w3.org/1999/02/22-rdf-syntax-ns#">
      <rdf:Description rdf:about=""/>
   </rdf:RDF>
</x:xmpmeta>
                                                                                                    
                                                                                                    
                                                                                                    
                                                                                                    
                                                                                                    
                                                                                                    
                                                                                                    
                                                                                                    
                                                                                                    
                                                                                                    
                                                                                                    
                                                                                                    
                                                                                                    
                                                                                                    
                                                                                                    
                                                                                                    
                                                                                                    
                                                                                                    
                                                                                                    
                                                                                                    
                           
<?xpacket end="w"?></metadata>
<defs>
    <style>
      .cls-1 {
        fill: #fff;
        fill-rule: evenodd;
      }
    </style>
  </defs>
  <path id="THIS_AIN_T_CHECKERS" data-name="THIS AIN&apos;T CHECKERS" class="cls-1" d="M829.657,7917.12H775.165v12.39h20.619v54.09h13.255v-54.09h20.618v-12.39Zm34.7,0H851.1v66.48h13.254v-27.35h32.021v27.35h13.255v-66.48H896.376v26.78H864.355v-26.78Zm86.011,0H937.111v66.48h13.255v-66.48Zm78.874,5.94a46.8,46.8,0,0,0-25.42-7.08c-14.155,0-26.507,7.22-26.507,21.08,0,12.02,8.551,17.2,20.286,19.05l4.231,0.66c9.26,1.47,14.11,3.18,14.11,7.79,0,5.13-5.7,8.03-13.07,8.03a35.106,35.106,0,0,1-21.187-7.18L974.8,7976.1c7.126,5.75,17.958,8.69,28.025,8.69,14.3,0,27.23-6.98,27.23-21.65,0-11.59-9.31-16.67-21.19-18.62l-3.76-.62c-7.977-1.33-13.725-2.8-13.725-7.69,0-5.03,5.273-7.98,12.735-7.98a35.753,35.753,0,0,1,18.86,5.65Zm95.33-5.94h-16.15l-25.9,66.48h13.83l5.79-15.48h28.37l5.79,15.48h14.16Zm-8.22,13.11,9.6,25.69h-19.24Zm68.29-13.11h-13.26v66.48h13.26v-66.48Zm86.95,0h-13.3v44.4l-33.78-44.4h-12.4v66.48h13.25l0.05-44.4,33.73,44.4h12.45v-66.48Zm30.52-1.9v28.35h12.4v-28.35h-12.4Zm94.69,1.9h-54.49v12.39h20.62v54.09h13.25v-54.09h20.62v-12.39Zm87.78-1.24c-20.48,0-34.92,14.49-34.92,34.48s14.44,34.48,34.92,34.48c12.16,0,22.18-5.42,28.07-14.06l-10.83-7.79a20.333,20.333,0,0,1-17.34,9.12c-11.73,0-20.95-8.4-21-21.75,0-12.92,8.93-21.75,21-21.75a19.9,19.9,0,0,1,17.2,9.17l11.4-6.98C1507.67,7921.49,1496.83,7915.88,1484.58,7915.88Zm65.63,1.24h-13.26v66.48h13.26v-27.35h32.02v27.35h13.25v-66.48h-13.25v26.78h-32.02v-26.78Zm122.44,54.33h-36.43v-15.3h34.39V7944h-34.39v-14.72h36.05v-12.16h-49.31v66.48h49.69v-12.15Zm57.27-55.57c-20.48,0-34.92,14.49-34.92,34.48s14.44,34.48,34.92,34.48c12.16,0,22.19-5.42,28.08-14.06l-10.83-7.79a20.346,20.346,0,0,1-17.34,9.12c-11.74,0-20.96-8.4-21-21.75,0-12.92,8.93-21.75,21-21.75a19.886,19.886,0,0,1,17.19,9.17l11.41-6.98C1753.01,7921.49,1742.18,7915.88,1729.92,7915.88Zm95.42,67.72h17.19l-29.97-34.05,27.88-32.43h-16.62l-22,26.93h-6.27v-26.93h-13.26v66.48h13.26v-27.35h6.13Zm86.67-12.15h-36.44v-15.3h34.4V7944h-34.4v-14.72h36.06v-12.16h-49.31v66.48h49.69v-12.15Zm25.96-54.33v66.48h13.25v-26.45h3.9l19.38,26.45h16.06l-20.48-26.64c12.78-1.23,20.38-8.69,20.38-19.61,0-12.73-8.5-20.23-24.37-20.23h-28.12Zm27.88,12.2c7.04,0,10.98,2.52,10.98,8.03,0,5.6-3.75,8.26-10.98,8.26h-14.63v-16.29h14.63Zm100.17-6.26a46.772,46.772,0,0,0-25.42-7.08c-14.15,0-26.51,7.22-26.51,21.08,0,12.02,8.56,17.2,20.29,19.05l4.23,0.66c9.26,1.47,14.11,3.18,14.11,7.79,0,5.13-5.7,8.03-13.07,8.03a35.063,35.063,0,0,1-21.18-7.18l-6.89,10.69c7.12,5.75,17.95,8.69,28.03,8.69,14.3,0,27.22-6.98,27.22-21.65,0-11.59-9.31-16.67-21.19-18.62l-3.75-.62c-7.98-1.33-13.73-2.8-13.73-7.69,0-5.03,5.27-7.98,12.73-7.98a35.753,35.753,0,0,1,18.86,5.65Z" transform="translate(-775.156 -7915.22)"/>
</svg>
