<svg id="Layer_1" data-name="Layer 1" xmlns="http://www.w3.org/2000/svg" viewBox="0 0 521.02 63.06"><defs><style>.cls-1{fill:#fff;}</style></defs><title>translation_logo</title><rect class="cls-1" y="26.19" width="59.64" height="8.62"/><path class="cls-1" d="M762.42,355.53a19.1,19.1,0,1,1,19.1-19.1,19.12,19.12,0,0,1-19.1,19.1m0-29.66A10.56,10.56,0,1,0,773,336.43a10.57,10.57,0,0,0-10.56-10.56" transform="translate(-310.49 -292.47)"/><rect class="cls-1" x="342.68" y="26.19" width="57.72" height="8.62"/><rect class="cls-1" x="367.31" y="0.03" width="8.59" height="61.68"/><path class="cls-1" d="M729.22,307.28a5,5,0,1,1-5-5,5,5,0,0,1,5,5" transform="translate(-310.49 -292.47)"/><rect class="cls-1" x="409.42" y="26.26" width="8.59" height="35.45"/><path class="cls-1" d="M551.72,348c1.24,0,2.5.32,2.5,2.39v3.77h8.58v-3.77c0-6.35-4.5-10.86-11-11h-8.93a7.54,7.54,0,0,1-5.4-1.85,5.34,5.34,0,0,1-1.47-4,6.22,6.22,0,0,1,1.66-4.6,7.11,7.11,0,0,1,5.15-1.78h10.46v3.94h8.58V318.67H542.78a15.64,15.64,0,0,0-11.18,4.28,14.68,14.68,0,0,0-4.19,10.67,13.82,13.82,0,0,0,4,10A16,16,0,0,0,542.86,348Z" transform="translate(-310.49 -292.47)"/><rect class="cls-1" x="270.58" width="8.54" height="61.71"/><rect class="cls-1" x="25.51" y="0.03" width="8.6" height="61.68"/><path class="cls-1" d="M435.41,355.33a18.9,18.9,0,0,1,0-37.8c10.31,0,17.52,8.48,17.52,18.9s-7.21,18.9-17.52,18.9m.66-29.57a10.67,10.67,0,1,0,10.85,10.67,10.78,10.78,0,0,0-10.85-10.67" transform="translate(-310.49 -292.47)"/><polygon class="cls-1" points="136.88 61.71 145.38 61.71 145.38 26.3 136.87 26.3 137.4 43.75 136.88 61.71"/><path class="cls-1" d="M623.27,355.33a18.9,18.9,0,0,1,0-37.8c10.31,0,17.51,8.48,17.51,18.9s-7.2,18.9-17.51,18.9m.66-29.57a10.67,10.67,0,1,0,10.85,10.67,10.77,10.77,0,0,0-10.85-10.67" transform="translate(-310.49 -292.47)"/><polygon class="cls-1" points="324.74 61.71 333.24 61.71 333.24 26.3 324.73 26.3 325.26 43.75 324.74 61.71"/><path class="cls-1" d="M485.69,354.18V327.33h16.38a2.52,2.52,0,0,1,2.53,2.43v24.42h8.6V327.3a8.41,8.41,0,0,0-8.65-8.57H477.09v35.46Z" transform="translate(-310.49 -292.47)"/><path class="cls-1" d="M804,354.18V327.33h16.38a2.52,2.52,0,0,1,2.53,2.43v24.42h8.6V327.3a8.41,8.41,0,0,0-8.65-8.57H795.41v35.46Z" transform="translate(-310.49 -292.47)"/><path class="cls-1" d="M393.71,318.61h-6a7.75,7.75,0,0,0-7.75,7.76v27.8h8.6V334.61c0-.26,0-.5,0-.74V327.2h21.49v-8.6Z" transform="translate(-310.49 -292.47)"/></svg>