<svg xmlns="http://www.w3.org/2000/svg" width="1213.439" height="68.93" viewBox="0 0 1213.439 68.93">
  <metadata><?xpacket begin="﻿" id="W5M0MpCehiHzreSzNTczkc9d"?>
<x:xmpmeta xmlns:x="adobe:ns:meta/" x:xmptk="Adobe XMP Core 5.6-c138 79.159824, 2016/09/14-01:09:01        ">
   <rdf:RDF xmlns:rdf="http://www.w3.org/1999/02/22-rdf-syntax-ns#">
      <rdf:Description rdf:about=""/>
   </rdf:RDF>
</x:xmpmeta>
                                                                                                    
                                                                                                    
                                                                                                    
                                                                                                    
                                                                                                    
                                                                                                    
                                                                                                    
                                                                                                    
                                                                                                    
                                                                                                    
                                                                                                    
                                                                                                    
                                                                                                    
                                                                                                    
                                                                                                    
                                                                                                    
                                                                                                    
                                                                                                    
                                                                                                    
                                                                                                    
                           
<?xpacket end="w"?></metadata>
<defs>
    <style>
      .cls-1 {
        fill: #fff;
        fill-rule: evenodd;
      }
    </style>
  </defs>
  <path id="TRUST_THE_PROCESS" data-name="TRUST THE PROCESS" class="cls-1" d="M868.763,3954.92H814.271v12.39H834.89v54.09h13.255v-54.09h20.618v-12.39Zm21.444,0v66.48h13.255v-26.45h3.895l19.384,26.45H942.8l-20.476-26.64c12.78-1.24,20.381-8.69,20.381-19.61,0-12.73-8.5-20.23-24.371-20.23H890.207Zm27.887,12.2c7.031,0,10.974,2.52,10.974,8.03,0,5.6-3.753,8.26-10.974,8.26H903.462v-16.29h14.632Zm105.626-12.2h-13.3v39.27c0,10.92-6.18,15.72-15.344,15.72s-15.345-4.8-15.345-15.72v-39.27h-13.3v39.93c0,18.38,11.735,27.74,28.648,27.74s28.644-9.36,28.644-27.74v-39.93Zm78.13,5.93a46.808,46.808,0,0,0-25.42-7.07c-14.16,0-26.51,7.21-26.51,21.08,0,12.01,8.55,17.19,20.29,19.04l4.22,0.67c9.27,1.47,14.11,3.18,14.11,7.79,0,5.12-5.7,8.02-13.06,8.02a35.114,35.114,0,0,1-21.19-7.17l-6.89,10.69c7.13,5.74,17.96,8.69,28.03,8.69,14.3,0,27.22-6.98,27.22-21.66,0-11.59-9.31-16.67-21.19-18.61l-3.75-.62c-7.98-1.33-13.73-2.8-13.73-7.69,0-5.04,5.28-7.98,12.73-7.98a35.725,35.725,0,0,1,18.86,5.65Zm73.37-5.93h-54.49v12.39h20.61v54.09h13.26v-54.09h20.62v-12.39Zm103.21,0h-54.49v12.39h20.62v54.09h13.25v-54.09h20.62v-12.39Zm34.7,0h-13.25v66.48h13.25v-27.35h32.02v27.35h13.26v-66.48h-13.26v26.78h-32.02v-26.78Zm122.45,54.32h-36.44v-15.29h34.4v-12.16h-34.4v-14.72h36.06v-12.15h-49.31v66.48h49.69v-12.16Zm89.06-12.16c15.77,0,24.23-8.26,24.23-21.03,0-12.87-8.46-21.13-24.33-21.13h-27.13v66.48h13.26v-24.32h13.97Zm-0.34-29.96c7.23,0,10.98,2.99,10.98,8.93,0,5.98-3.75,8.93-10.98,8.93h-13.63v-17.86h13.63Zm48.24-12.2v66.48h13.26v-26.45h3.89l19.39,26.45h16.05l-20.47-26.64c12.78-1.24,20.38-8.69,20.38-19.61,0-12.73-8.5-20.23-24.37-20.23h-28.13Zm27.89,12.2c7.03,0,10.97,2.52,10.97,8.03,0,5.6-3.75,8.26-10.97,8.26H1585.8v-16.29h14.63Zm80.69-13.44c-20.48,0-34.92,14.63-34.92,34.48s14.44,34.47,34.92,34.47,34.96-14.62,34.96-34.47S1701.59,3953.68,1681.12,3953.68Zm0,12.73c12.26,0,21.09,8.83,21.09,21.75s-8.83,21.75-21.09,21.75c-12.21,0-21.1-8.84-21.1-21.75S1668.91,3966.41,1681.12,3966.41Zm91-12.73c-20.48,0-34.92,14.48-34.92,34.48s14.44,34.47,34.92,34.47c12.16,0,22.19-5.41,28.08-14.05l-10.84-7.79a20.357,20.357,0,0,1-17.34,9.12c-11.73,0-20.95-8.41-20.99-21.75,0-12.92,8.93-21.75,20.99-21.75a19.9,19.9,0,0,1,17.2,9.16l11.4-6.98C1795.21,3959.28,1784.38,3953.68,1772.12,3953.68Zm102.07,55.56h-36.44v-15.29h34.39v-12.16h-34.39v-14.72h36.06v-12.15h-49.32v66.48h49.7v-12.16Zm77.22-48.39a46.808,46.808,0,0,0-25.42-7.07c-14.16,0-26.51,7.21-26.51,21.08,0,12.01,8.55,17.19,20.28,19.04l4.23,0.67c9.27,1.47,14.11,3.18,14.11,7.79,0,5.12-5.7,8.02-13.06,8.02a35.114,35.114,0,0,1-21.19-7.17l-6.89,10.69c7.13,5.74,17.96,8.69,28.03,8.69,14.3,0,27.22-6.98,27.22-21.66,0-11.59-9.31-16.67-21.19-18.61l-3.75-.62c-7.98-1.33-13.73-2.8-13.73-7.69,0-5.04,5.27-7.98,12.73-7.98a35.725,35.725,0,0,1,18.86,5.65Zm75.5,0a46.751,46.751,0,0,0-25.41-7.07c-14.16,0-26.51,7.21-26.51,21.08,0,12.01,8.55,17.19,20.28,19.04l4.23,0.67c9.27,1.47,14.11,3.18,14.11,7.79,0,5.12-5.7,8.02-13.06,8.02a35.114,35.114,0,0,1-21.19-7.17l-6.89,10.69c7.13,5.74,17.96,8.69,28.03,8.69,14.3,0,27.22-6.98,27.22-21.66,0-11.59-9.31-16.67-21.19-18.61l-3.75-.62c-7.98-1.33-13.73-2.8-13.73-7.69,0-5.04,5.27-7.98,12.73-7.98a35.725,35.725,0,0,1,18.86,5.65Z" transform="translate(-814.281 -3953.69)"/>
</svg>
