<?xml version="1.0" encoding="utf-8"?>
<!-- Generator: Adobe Illustrator 21.0.2, SVG Export Plug-In . SVG Version: 6.00 Build 0)  -->
<svg version="1.1" id="Layer_1" xmlns="http://www.w3.org/2000/svg" xmlns:xlink="http://www.w3.org/1999/xlink" x="0px" y="0px"
	 viewBox="0 0 1115.6 365" style="enable-background:new 0 0 1115.6 365;" xml:space="preserve">
<style type="text/css">
	.st0{fill:#FFFFFF;}
</style>
<g>
	<g>
		<g>
			<rect x="47" y="45" class="st0" width="55" height="271"/>
			<rect x="156" y="45" class="st0" width="55" height="217"/>
			<rect x="266" y="45" class="st0" width="54" height="271"/>
		</g>
	</g>
	<g>
		<path class="st0" d="M531.1,129.6c0,34.5-21.7,47-52.2,47c-30.4,0-52.2-12.5-52.2-47V47h28.8v81.7c0,13.5,6.9,22.2,23.3,22.2
			c16,0,23.3-8.7,23.3-22.2V47h28.8V129.6z"/>
		<path class="st0" d="M627.4,110v63.4h-26.7v-55.9c0-10.7-5.3-16.7-15.5-16.7c-9.8,0-16.4,6.6-16.4,17.3v55.4h-26.7V80.8h24.7v10
			c5.5-7.8,14.8-13.2,27.4-13.2C615.5,77.6,627.4,90.6,627.4,110z"/>
		<path class="st0" d="M666.5,69.3h-26.7V47h26.7V69.3z M666.5,173.4h-26.7V80.8h26.7V173.4z"/>
		<path class="st0" d="M739.3,172.3c-8.4,2.5-15.8,3.4-21.2,3.4c-20.3,0-27.8-8.5-27.8-26.9v-48.1h-16.2V80.8h16.2V53.8h26.7v27.1
			h20.8v19.9h-20.8V144c0,6.9,3.6,8.4,8.7,8.4c2.3,0,5.5-0.4,10.5-1.4L739.3,172.3z"/>
		<path class="st0" d="M815.4,142.1l14.6,16.7c-13.9,13.3-27.1,17.6-41.8,17.6c-30.6,0-49.7-19.2-49.7-48.9
			c0-28.3,17.3-49.8,47.3-49.8c29,0,44.1,18,44.1,46.8c0,3.4-0.2,8.4-0.4,10.3h-65.3c2.5,11.6,10.7,19,24.6,19
			C799.2,153.8,805.6,150.3,815.4,142.1z M764.8,116.1h39.7c-1.1-10.9-7.5-17.6-19-17.6S767.3,105.9,764.8,116.1z"/>
		<path class="st0" d="M929.6,47v126.4h-24.7v-11.2c-6.1,8.7-15.5,14.1-29,14.1c-23.7,0-40.9-18.9-40.9-48.9
			c0-30.4,17.4-49.1,41.1-49.1c12.1,0,20.8,4.1,26.9,11V47H929.6z M903.8,127.3c0-16.4-9.3-26.2-20.8-26.2
			c-12.3,0-21.2,10-21.2,26.2c0,15.8,8,26.3,21,26.3C895.1,153.6,903.8,143.1,903.8,127.3z"/>
		<path class="st0" d="M568.3,190v126.4h-27.9V252c0-13.2,0.2-25.8,0.5-38.4c-3.2,12.1-6.2,23.3-10.9,38.4l-19.4,64.4h-24.9L466,252
			c-4.5-15.1-8.4-26.5-11.6-38.3c0.4,12.6,0.5,25.1,0.5,38.1v64.6h-27.6V190h45l15.1,49.5c4.1,13.5,7.8,26.7,10.9,39
			c3-12.5,6.8-25.8,10.7-39l15-49.5H568.3z"/>
		<path class="st0" d="M665.7,254.6v61.8h-24v-9.3c-5.3,7.3-14.6,12.5-29.4,12.5c-18,0-32.9-8-32.9-26.9c0-20.8,17.1-28.8,39.9-32.6
			l21.2-3.6v-1.1c0-8.5-6.1-13-15.5-13c-12.6,0-19.6,6.8-28.3,14.8L579.8,242c12.3-13.9,26.3-21.4,44.9-21.4
			C652.2,220.6,665.7,234.5,665.7,254.6z M640.5,278.7v-3.6l-15.3,2.8c-13.3,2.5-20.1,6.1-20.1,12.6c0,4.8,4.6,8.2,13,8.2
			C628.2,298.8,640.5,294.1,640.5,278.7z"/>
		<path class="st0" d="M755.7,235.6l-14.1,17.1c-10.9-8.5-18.5-10.5-27.6-10.5c-8.2,0-13.5,2.8-13.5,7.3c0,5,4.8,5.7,20.1,9.1
			c25.6,5.7,36.1,12.5,36.1,29.9c0,17.6-14.4,31-40.8,31c-17.1,0-30.8-4.4-45.9-17.8l15.1-16.9c13.5,10.9,21.2,13.2,31.7,13.2
			c8,0,13.9-3,13.9-8c0-6.4-8.9-7.1-21.5-10c-26.2-5.9-34.2-13.3-34.2-28.3c0-16.6,14.2-31,39.7-31
			C730.6,220.6,742.4,224.4,755.7,235.6z"/>
		<path class="st0" d="M823.6,315.3c-8.4,2.5-15.8,3.4-21.2,3.4c-20.3,0-27.8-8.5-27.8-26.9v-48.1h-16.2v-19.9h16.2v-27.1h26.7v27.1
			h20.8v19.9h-20.8V287c0,6.9,3.6,8.4,8.7,8.4c2.3,0,5.5-0.4,10.5-1.4L823.6,315.3z"/>
		<path class="st0" d="M899.6,285.1l14.6,16.7c-13.9,13.3-27.1,17.6-41.8,17.6c-30.6,0-49.7-19.2-49.7-48.9
			c0-28.3,17.3-49.8,47.3-49.8c29,0,44.1,18,44.1,46.8c0,3.4-0.2,8.4-0.4,10.3h-65.3c2.5,11.6,10.7,19,24.6,19
			C883.4,296.8,889.8,293.3,899.6,285.1z M849,259.1h39.7c-1.1-10.9-7.5-17.6-19-17.6S851.5,248.9,849,259.1z"/>
		<path class="st0" d="M986.7,225.4l-5,23.5c-5.9-1.4-8.9-2-12.1-2c-11.9,0-19.2,9.6-19.2,25.6v43.8h-26.7v-92.6h24.7V237
			c4.4-8.7,11.4-14.8,23.1-14.8C976.4,222.2,981.4,223.7,986.7,225.4z"/>
		<path class="st0" d="M1067.6,235.6l-14.1,17.1c-10.9-8.5-18.5-10.5-27.6-10.5c-8.2,0-13.5,2.8-13.5,7.3c0,5,4.8,5.7,20.1,9.1
			c25.6,5.7,36.1,12.5,36.1,29.9c0,17.6-14.4,31-40.8,31c-17.1,0-30.8-4.4-45.9-17.8l15.1-16.9c13.5,10.9,21.2,13.2,31.7,13.2
			c8,0,13.9-3,13.9-8c0-6.4-8.9-7.1-21.5-10C995,274,987,266.6,987,251.6c0-16.6,14.2-31,39.7-31
			C1042.5,220.6,1054.3,224.4,1067.6,235.6z"/>
	</g>
</g>
</svg>
