<?xml version="1.0" encoding="utf-8"?>
<!-- Generator: Adobe Illustrator 21.1.0, SVG Export Plug-In . SVG Version: 6.00 Build 0)  -->
<svg version="1.1" id="Layer_2" xmlns="http://www.w3.org/2000/svg" xmlns:xlink="http://www.w3.org/1999/xlink" x="0px" y="0px"
	 viewBox="0 0 342.2 439.2" style="enable-background:new 0 0 342.2 439.2;" xml:space="preserve">
<style type="text/css">
	.st0{fill:#FFFFFF;}
</style>
<path class="st0" d="M33.2,26.3h-8.4L20.4,11L16,26.3H7.6L0,0h7.3l4.5,17.6L16.6,0h7.6l4.7,17.6L33.4,0h7.2L33.2,26.3z"/>
<path class="st0" d="M70.8,26.3H50.2V0h20.6v6.4H57.3v3.5h12.5v6.4H57.3v3.8h13.4L70.8,26.3z"/>
<path class="st0" d="M279.5,26.3h-7.6l-1.7-5h-9.8l-1.7,5h-7.5l10-26.3h8.4L279.5,26.3z M262.5,15h5.4l-2.7-7.8L262.5,15z"/>
<path class="st0" d="M310.9,8.8c0,4-2.4,7-6.8,7.9l7.1,9.7h-8.4l-6.3-9.3h-0.4v9.3H289V0h11.7C307.4,0,310.9,3.5,310.9,8.8z
	 M296.1,6.4v4.7h4.5c1.8,0,3-0.7,3-2.4s-1.3-2.4-3-2.4L296.1,6.4L296.1,6.4z"/>
<path class="st0" d="M342.2,26.3h-20.6V0h20.6v6.4h-13.4v3.5h12.5v6.4h-12.5v3.8h13.4V26.3z"/>
<g>
	<path class="st0" d="M30.8,373.7l-6.2,3.4c-1.3-2.2-3.1-3.3-5.7-3.3c-3.6,0-6.2,2.7-6.2,6.7c0,4.4,3,6.7,6.2,6.7
		c2.5,0,4.4-1.1,5.8-3.3l5.7,4c-2.4,3.6-6.4,5.9-11.4,5.9c-8,0-13.6-5.5-13.6-13.3s5.6-13.3,13.6-13.3
		C24,367.2,28.5,369.6,30.8,373.7z"/>
	<path class="st0" d="M76.2,382.9c0,7-4,11-11.4,11s-11.4-4-11.4-11v-15.2h7v15c0,2.9,1.7,4.5,4.4,4.5c2.7,0,4.4-1.5,4.4-4.5v-15h7
		V382.9z"/>
	<path class="st0" d="M119.2,393.4H99.8v-25.7h7V387h12.4L119.2,393.4L119.2,393.4z"/>
	<path class="st0" d="M158.8,374.1h-7.3v19.3h-7v-19.3h-7.3v-6.5h21.6L158.8,374.1L158.8,374.1z"/>
	<path class="st0" d="M203.8,382.9c0,7-4,11-11.4,11s-11.4-4-11.4-11v-15.2h7v15c0,2.9,1.7,4.5,4.4,4.5s4.4-1.5,4.4-4.5v-15h7
		L203.8,382.9L203.8,382.9z"/>
	<path class="st0" d="M248.9,376.3c0,4-2.3,6.8-6.7,7.7l7,9.4H241l-6.2-9.1h-0.4v9.1h-7v-25.7h11.4
		C245.5,367.7,248.9,371.1,248.9,376.3z M234.5,374v4.6h4.4c1.7,0,3-0.7,3-2.3s-1.3-2.3-3-2.3H234.5z"/>
	<path class="st0" d="M297.6,393.4h-7.4l-1.7-4.9h-9.6l-1.7,4.9h-7.3l9.8-25.7h8.2L297.6,393.4z M281.1,382.3h5.2l-2.6-7.6
		L281.1,382.3z"/>
	<path class="st0" d="M339.2,393.4h-19.4v-25.7h7V387h12.4L339.2,393.4L339.2,393.4z"/>
	<path class="st0" d="M30.8,417.8l-6.2,3.4c-1.3-2.2-3.1-3.3-5.7-3.3c-3.6,0-6.2,2.7-6.2,6.7c0,4.4,3,6.7,6.2,6.7
		c2.5,0,4.4-1.1,5.8-3.3l5.7,4c-2.4,3.6-6.4,5.9-11.4,5.9c-8,0-13.6-5.5-13.6-13.3s5.6-13.3,13.6-13.3
		C24,411.3,28.5,413.7,30.8,417.8z"/>
	<path class="st0" d="M74.2,437.5h-7.4l-1.7-4.9h-9.6l-1.7,4.9h-7.3l9.8-25.7h8.2L74.2,437.5z M57.6,426.4h5.2l-2.6-7.6L57.6,426.4z
		"/>
	<path class="st0" d="M108.7,418.2h-7.3v19.3h-7v-19.3h-7.3v-6.5h21.6V418.2z"/>
	<path class="st0" d="M149.4,437.5H142l-1.7-4.9h-9.6l-1.7,4.9h-7.3l9.8-25.7h8.2L149.4,437.5z M132.8,426.4h5.2l-2.6-7.6
		L132.8,426.4z"/>
	<path class="st0" d="M186.3,437.5h-19.4v-25.7h7v19.3h12.4V437.5z"/>
	<path class="st0" d="M214.6,427.8v9.8h-7v-9.7l-9.7-16.1h8l5.2,9.7l5.2-9.7h7.8L214.6,427.8z"/>
	<path class="st0" d="M258.1,419.7c-1.7-0.9-4.3-2.2-7.4-2.2c-1.9,0-3.3,0.5-3.3,1.7c0,1.5,2.6,1.6,5.2,2.1l0.8,0.2
		c5.3,1,8,3.6,8,7.6c0,6.5-5.5,8.9-11,8.9c-4.6,0-8.8-1.1-11.8-3.2l3.4-5.7c2,1.2,4.5,2.6,8.4,2.6c1.9,0,3.3-0.5,3.3-1.8
		c0-1.4-1.6-1.6-4.8-2.2l-1-0.2c-5.9-1-8.4-3.6-8.2-8.1c0.1-4.9,4.3-8.2,10.4-8.2c3.4,0,6.4,0.4,10.9,2.7L258.1,419.7z"/>
	<path class="st0" d="M299.8,418.2h-7.3v19.3h-7v-19.3h-7.3v-6.5h21.6L299.8,418.2L299.8,418.2z"/>
	<path class="st0" d="M336.1,419.7c-1.7-0.9-4.3-2.2-7.4-2.2c-1.9,0-3.3,0.5-3.3,1.7c0,1.5,2.6,1.6,5.2,2.1l0.8,0.2
		c5.3,1,8,3.6,8,7.6c0,6.5-5.5,8.9-11,8.9c-4.6,0-8.8-1.1-11.8-3.2l3.4-5.7c2,1.2,4.5,2.6,8.4,2.6c1.9,0,3.3-0.5,3.3-1.8
		c0-1.4-1.6-1.6-4.8-2.2l-1-0.2c-5.9-1-8.4-3.6-8.2-8.1c0.1-4.9,4.3-8.2,10.4-8.2c3.4,0,6.4,0.4,10.9,2.7L336.1,419.7z"/>
</g>
</svg>
