<?xml version="1.0" encoding="utf-8"?>
<!-- Generator: Adobe Illustrator 21.1.0, SVG Export Plug-In . SVG Version: 6.00 Build 0)  -->
<svg version="1.1" id="Layer_2" xmlns="http://www.w3.org/2000/svg" xmlns:xlink="http://www.w3.org/1999/xlink" x="0px" y="0px"
	 viewBox="0 0 342.2 439.2" style="enable-background:new 0 0 342.2 439.2;" xml:space="preserve">
<style type="text/css">
	.st0{fill:#FFFFFF;}
</style>
<title>WeAreTranslation</title>
<path class="st0" d="M33.1,26.3h-8.4l-4.4-15.4l-4.4,15.4H7.5L0,0h7.3l4.5,17.6L16.5,0h7.6l4.7,17.6L33.3,0h7.2L33.1,26.3z"/>
<path class="st0" d="M70.6,26.3H50.1V0h20.5v6.3H57.2v3.5h12.5v6.3H57.2v3.8h13.4L70.6,26.3z"/>
<path class="st0" d="M278.7,26.3h-7.5l-1.7-5h-9.8l-1.7,5h-7.4L260.4,0h8.4L278.7,26.3z M261.8,14.9h5.4l-2.7-7.8L261.8,14.9z"/>
<path class="st0" d="M310.1,8.7c0,4.1-2.3,7-6.8,7.9l7.1,9.6H302l-6.3-9.3h-0.4v9.3h-7.1V0h11.7C306.6,0,310.1,3.5,310.1,8.7z
	 M295.3,6.4v4.7h4.5c1.8,0,3.1-0.7,3.1-2.3s-1.3-2.3-3.1-2.3H295.3z"/>
<path class="st0" d="M341.2,26.3h-20.5V0h20.5v6.3h-13.4v3.5h12.5v6.3h-12.5v3.8h13.4V26.3z"/>
<path class="st0" d="M22.3,419h-7.5v19.7H7.7V419H0.2v-6.6h22L22.3,419z"/>
<path class="st0" d="M53.9,421.2c0,4-2.3,7-6.8,7.9l7.1,9.6h-8.4l-6.3-9.3h-0.3v9.3h-7.1v-26.3h11.7
	C50.4,412.4,53.9,415.9,53.9,421.2z M39.2,418.8v4.7h4.5c1.8,0,3.1-0.7,3.1-2.3s-1.3-2.3-3.1-2.3L39.2,418.8z"/>
<path class="st0" d="M90.5,438.7H83l-1.7-5h-9.8l-1.7,5h-7.5l10-26.2h8.4L90.5,438.7z M73.6,427.3H79l-2.7-7.8L73.6,427.3z"/>
<path class="st0" d="M124.9,438.7h-6.9l-10.8-14.8v14.8H100v-26.2h6.9l10.8,14.8v-14.8h7.1V438.7z"/>
<path class="st0" d="M155.1,420.5c-2.3-1.4-4.9-2.1-7.6-2.2c-1.9,0-3.4,0.5-3.4,1.7c0,1.5,2.7,1.6,5.4,2.2l0.8,0.2
	c5.4,1,8.2,3.7,8.2,7.7c0,6.6-5.6,9.1-11.2,9.1c-4.7,0-9-1.1-12-3.3l3.5-5.8c2.5,1.7,5.5,2.7,8.6,2.7c1.9,0,3.3-0.5,3.3-1.8
	s-1.6-1.6-4.9-2.2l-1-0.2c-6-1-8.5-3.6-8.4-8.3c0.1-5,4.3-8.4,10.7-8.4c3.9-0.1,7.7,0.8,11.1,2.7L155.1,420.5z"/>
<path class="st0" d="M188.8,438.7H169v-26.2h7.2v19.7h12.6V438.7z"/>
<path class="st0" d="M225.2,438.7h-7.6l-1.7-5h-9.8l-1.7,5h-7.4l9.9-26.2h8.4L225.2,438.7z M208.3,427.3h5.4l-2.7-7.8L208.3,427.3z"
	/>
<path class="st0" d="M252,419h-7.5v19.7h-7.1V419H230v-6.6h22V419z"/>
<path class="st0" d="M268.9,438.7h-7.1v-26.2h7.1V438.7z"/>
<path class="st0" d="M307,425.6c0,7.8-5.8,13.6-13.9,13.6s-13.9-5.8-13.9-13.6s5.8-13.6,13.9-13.6S307,417.7,307,425.6z
	 M286.6,425.6c0,4,2.6,6.8,6.5,6.8s6.5-2.8,6.5-6.8s-2.6-6.8-6.5-6.8S286.6,421.5,286.6,425.6z"/>
<path class="st0" d="M342.2,438.7h-6.9l-10.8-14.8v14.8h-7.1v-26.2h6.9l10.8,14.8v-14.8h7.2V438.7z"/>
</svg>
