<?xml version="1.0" encoding="utf-8"?>
<!-- Generator: Adobe Illustrator 21.1.0, SVG Export Plug-In . SVG Version: 6.00 Build 0)  -->
<svg version="1.1" id="Layer_2" xmlns="http://www.w3.org/2000/svg" xmlns:xlink="http://www.w3.org/1999/xlink" x="0px" y="0px"
	 viewBox="0 0 1423 1069" style="enable-background:new 0 0 1423 1069;" xml:space="preserve">
<style type="text/css">
	.st0{fill:#FFFFFF;}
	.st1{fill:none;enable-background:new    ;}
	.st2{fill:#171717;}
</style>
<path id="ARE" class="st0" d="M1121.4,0h-34.9l-41.3,108.8h31l7.2-20.8h40.8l7.2,20.8h31.4L1121.4,0z M1103.7,29.5l11.2,32.2h-22.4
	L1103.7,29.5z M1250.8,0h-48.7v108.8h29.6V70.2h1.6l26.3,38.6h34.9l-29.7-40c18.5-3.8,28.2-15.9,28.2-32.6
	C1293.1,14.3,1278.6,0,1250.8,0z M1250.5,26.5c7.3,0,12.7,3.1,12.7,9.7s-5.4,9.6-12.7,9.6h-18.7V26.5L1250.5,26.5L1250.5,26.5z
	 M1422.8,82.5h-55.7V66.9h51.8V40.7h-51.8V26.3h55.7V0h-85.3v108.8h85.3V82.5L1422.8,82.5z"/>
<path id="TRANSLATION" class="st0" d="M91.7,957.7H0V985h31v82h29.6v-82h31.1V957.7z M181,957.7h-48.7V1067h29.6v-38.8h1.6
	l26.3,38.8h35l-29.7-40.1c18.5-3.8,28.2-15.9,28.2-32.8C223.3,972,208.8,957.7,181,957.7L181,957.7z M180.7,984.3
	c7.3,0,12.7,3.1,12.7,9.8s-5.4,9.7-12.7,9.7h-18.7v-19.4L180.7,984.3L180.7,984.3z M334.3,957.7h-35L258,1067h31l7.2-20.8h40.8
	l7.3,20.8h31.4L334.3,957.7z M316.6,987.3l11.2,32.3h-22.4L316.6,987.3z M518.5,957.7h-29.7v61.4l-45-61.4H415V1067h29.6v-61.4
	l45,61.4h28.9V957.7z M657.1,967.2c-19-10-31.8-11.5-46.1-11.5c-26.2,0-43.8,14-44.3,34.9c-0.6,19.4,9.9,30.2,35,34.5l4.1,0.7
	c13.6,2.3,20.4,3.3,20.4,9.1c0,5.4-5.8,7.6-13.8,7.6c-16.6,0-27.1-6-35.7-11.2l-14.5,24.2c12.5,8.9,30.3,13.6,49.8,13.6
	c23.2,0,46.6-10.2,46.6-37.9c0-16.8-11.5-27.6-34-32l-3.5-0.7c-11.2-2.2-22.3-2.8-22.3-9c0-4.9,6.1-7.1,14.1-7.1
	c13.5,0,24.3,5.1,31.5,9.1L657.1,967.2z M784.5,1039.6h-52.6v-82h-29.6V1067h82.2V1039.6z M894.7,957.7h-35L818.4,1067h31l7.2-20.8
	h40.8l7.3,20.8h31.4L894.7,957.7z M877,987.3l11.2,32.3h-22.4L877,987.3z M1047.7,957.7H956V985H987v82h29.6v-82h31.1L1047.7,957.7
	L1047.7,957.7z M1117.9,957.7h-29.6V1067h29.6V957.7z M1218.5,955.6c-33.8,0-57.7,24-57.7,56.7s23.9,56.7,57.7,56.7
	s57.7-24.1,57.7-56.7S1252.3,955.6,1218.5,955.6L1218.5,955.6z M1218.5,984.1c15.9,0,26.9,11.6,26.9,28.3s-11,28.3-26.9,28.3
	c-15.9,0-26.9-11.6-26.9-28.3S1202.6,984.1,1218.5,984.1L1218.5,984.1z M1422.7,957.7H1393v61.4l-45-61.4h-28.9V1067h29.6v-61.4
	l45,61.4h28.9L1422.7,957.7L1422.7,957.7z"/>
<path id="WE" class="st0" d="M168.8,0h-30.1L120,73.1L100.4,0H68.8L49.1,73L30.5,0H0l31.2,108.8h34.9l18.3-63.7l18.3,63.7h34.9
	L168.8,0z M293.7,82.5H238V66.9h51.8V40.6H238V26.3h55.7V0h-85.3v108.8h85.3V82.5L293.7,82.5z"/>
<path class="st1" d="z"/>
<polygon class="st2" points="1027.5,484.9 756.9,484.9 756.9,207.6 665.8,207.6 665.8,484.9 395.5,484.9 395.5,576.2 665.8,576.2 
	665.8,861.4 756.9,861.4 756.9,576.2 1027.5,576.2 "/>
</svg>
