<svg id="Layer_1" data-name="Layer 1" xmlns="http://www.w3.org/2000/svg" viewBox="0 0 871.2 423.36"><defs><style>.cls-1{fill:#fff;}</style></defs><title>work</title><polygon class="cls-1" points="442.17 204.49 442.17 204.24 442.17 164.75 429.01 164.75 429.01 204.24 389.95 204.24 389.95 217.43 429.01 217.43 429.01 217.99 429.01 258.61 442.17 258.61 442.17 217.67 481.25 217.67 481.25 204.49 442.17 204.49"/><path class="cls-1" d="M413.26,190.92h-3.34L407,181l-3,9.89h-3.34l-4.13-13.84h2.87l3,10.62,3.09-10.62h3.05l3.09,10.62,3-10.62h2.82Z"/><path class="cls-1" d="M469.62,184a7.27,7.27,0,1,1-7.28-7.18A7,7,0,0,1,469.62,184ZM458,184a4.39,4.39,0,1,0,4.39-4.53A4.28,4.28,0,0,0,458,184Z"/><path class="cls-1" d="M405.88,231.26c3.3,0,5.07,1.56,5.07,4.21,0,2.27-1.58,3.83-4.24,4.08L411,245.1h-3.34l-4-5.51h-.81v5.51H400V231.26Zm-3.09,2.54v3.39h3c1.5,0,2.28-.55,2.28-1.72s-.82-1.67-2.28-1.67Z"/><path class="cls-1" d="M460,239.41h-1.28v5.69H456V231.26h2.76v5.61H460l4.58-5.61h3.46l-5.8,6.75,6.24,7.09h-3.58Z"/></svg>