<?xml version="1.0" encoding="utf-8"?>
<!-- Generator: Adobe Illustrator 21.0.2, SVG Export Plug-In . SVG Version: 6.00 Build 0)  -->
<svg version="1.1" id="Layer_1" xmlns="http://www.w3.org/2000/svg" xmlns:xlink="http://www.w3.org/1999/xlink" x="0px" y="0px"
	 viewBox="0 0 792 612" style="enable-background:new 0 0 792 612;" xml:space="preserve">
<style type="text/css">
	.st0{fill:#FFFFFF;}
</style>
<g>
	<path class="st0" d="M327.9,241.6h-13.4l-7-24.6l-7,24.6H287l-12-42h11.7l7.2,28.2l7.6-28.2h12.1l7.6,28.2l7.2-28.2h11.6
		L327.9,241.6z"/>
</g>
<g>
	<path class="st0" d="M497.5,220.6c0,12.5-9.2,21.8-22.2,21.8s-22.2-9.2-22.2-21.8c0-12.5,9.2-21.8,22.2-21.8
		S497.5,208.1,497.5,220.6z M465,220.6c0,6.4,4.2,10.9,10.3,10.9c6.1,0,10.3-4.4,10.3-10.9s-4.2-10.9-10.3-10.9
		C469.2,209.7,465,214.2,465,220.6z"/>
</g>
<g>
	<path class="st0" d="M320.8,378.3c0,6.5-3.8,11.1-10.9,12.6l11.4,15.4h-13.4l-10.1-14.9h-0.6v14.9h-11.4v-42h18.7
		C315.2,364.4,320.8,369.9,320.8,378.3z M297.2,374.6v7.5h7.2c2.8,0,4.9-1.2,4.9-3.7c0-2.5-2.1-3.7-4.9-3.7H297.2z"/>
</g>
<g>
	<path class="st0" d="M470.3,390.3H467v16.1h-11.4v-42H467v15.8h3.3l10.6-15.8h13.9l-15.2,20.5l16.6,21.5h-14L470.3,390.3z"/>
</g>
<polygon class="st0" points="416.4,283.7 416.4,282.9 416.4,160.4 375.6,160.4 375.6,282.9 254.4,282.9 254.4,323.8 375.6,323.8 
	375.6,325.6 375.6,451.6 416.4,451.6 416.4,324.6 537.6,324.6 537.6,283.7 "/>
</svg>
