<?xml version="1.0" encoding="utf-8"?>
<!-- Generator: Adobe Illustrator 21.0.2, SVG Export Plug-In . SVG Version: 6.00 Build 0)  -->
<svg version="1.1" id="Layer_1" xmlns="http://www.w3.org/2000/svg" xmlns:xlink="http://www.w3.org/1999/xlink" x="0px" y="0px"
	 viewBox="0 0 123.2 126.6" style="enable-background:new 0 0 123.2 126.6;" xml:space="preserve">
<style type="text/css">
	.st0{fill:#FFFFFF;}
</style>
<title>work</title>
<path class="st0" d="M32.5,36h-6l-3.1-11l-3.1,11h-6L9,17.3h5.2l3.2,12.6l3.4-12.6h5.4l3.4,12.6l3.2-12.6H38L32.5,36z"/>
<path class="st0" d="M108.2,26.6c0.1,5.5-4.3,9.9-9.7,10c-5.5,0.1-9.9-4.3-10-9.7c-0.1-5.5,4.3-9.9,9.7-10l0,0l0,0
	c5.2-0.2,9.7,3.8,9.9,9.1L108.2,26.6z M93.7,26.6c0.1,2.6,2.3,4.6,4.9,4.4c2.6-0.1,4.6-2.3,4.4-4.9c-0.1-2.5-2.2-4.4-4.7-4.4
	s-4.6,1.9-4.6,4.4C93.7,26.1,93.7,26.6,93.7,26.6z"/>
<path class="st0" d="M29.2,97.1c0,2.9-1.7,5-4.9,5.7l5.1,6.9h-5.8l-4.5-6.6h-0.3v6.6h-5.1V91H22C26.8,90.9,29.2,93.2,29.2,97.1z
	 M18.7,95.4v3.4h3.2c1.3,0,2.1-0.5,2.1-1.7s-1-1.7-2.1-1.7C21.9,95.4,18.7,95.4,18.7,95.4z"/>
<path class="st0" d="M96.1,102.4h-1.5v7.2h-5.1V90.9h5.1v7h1.5l4.8-7h6.2l-6.8,9.2l7.4,9.6h-6.2L96.1,102.4z"/>
<polygon class="st0" points="70.5,53.5 70.5,53.2 70.5,0 52.8,0 52.8,53.2 0,53.2 0,71.1 52.8,71.1 52.8,71.8 52.8,126.6 
	70.5,126.6 70.5,71.4 123.2,71.4 123.2,53.5 "/>
</svg>
