<svg xmlns="http://www.w3.org/2000/svg" width="1819.188" height="341.19" viewBox="0 0 1819.188 341.19">
  <metadata><?xpacket begin="﻿" id="W5M0MpCehiHzreSzNTczkc9d"?>
<x:xmpmeta xmlns:x="adobe:ns:meta/" x:xmptk="Adobe XMP Core 5.6-c138 79.159824, 2016/09/14-01:09:01        ">
   <rdf:RDF xmlns:rdf="http://www.w3.org/1999/02/22-rdf-syntax-ns#">
      <rdf:Description rdf:about=""/>
   </rdf:RDF>
</x:xmpmeta>
                                                                                                    
                                                                                                    
                                                                                                    
                                                                                                    
                                                                                                    
                                                                                                    
                                                                                                    
                                                                                                    
                                                                                                    
                                                                                                    
                                                                                                    
                                                                                                    
                                                                                                    
                                                                                                    
                                                                                                    
                                                                                                    
                                                                                                    
                                                                                                    
                                                                                                    
                                                                                                    
                           
<?xpacket end="w"?></metadata>
<defs>
    <style>
      .cls-1 {
        fill: #fff;
        fill-rule: evenodd;
      }
    </style>
  </defs>
  <path id="work_that_actually_works." data-name="work that actually works." class="cls-1" d="M1033.31,2216.65h-15.83l-32.711,105.19-33.587-105.28H933.689l-33.5,105.28-32.8-105.19H851.21l39.271,122.61h18.98l32.8-102.31,32.8,102.31h19.067Zm85.77-1.84c-36.73,0-63.41,26.43-63.41,63.1s26.68,63.1,63.41,63.1,63.42-26.43,63.42-63.1S1155.82,2214.81,1119.08,2214.81Zm0,14.79c26.94,0,47.32,19.52,47.32,48.31s-20.38,48.31-47.32,48.31-47.32-19.52-47.32-48.31S1092.14,2229.6,1119.08,2229.6Zm100.04-12.95v122.52h15.39v-52.86h14.34l42.08,52.86h19.06l-43.12-52.86h0.96c26.24,0,42.78-13.65,42.78-34.92,0-22.31-15.22-34.74-42.86-34.74h-48.63Zm48.28,14.44c17.75,0,27.2,6.74,27.2,20.3,0,13.74-9.18,20.92-27.2,20.92h-32.89v-41.22h32.89Zm161.09,108.08h20.99l-60.7-62.49,56.94-60.03h-19.94l-49.68,53.64h-14.17v-53.64h-15.4v122.52h15.4v-54.35h13.99Zm183.64-122.52h-98.92v14.61h41.81v107.91h15.39V2231.26h41.72v-14.61Zm45.03,0h-15.39v122.52h15.39v-54.44h72.25v54.44h15.39V2216.65h-15.39v53.56h-72.25v-53.56Zm185.84,0h-19.15l-49.77,122.52h16l13.39-33.43h59.39l13.46,33.43h16.54Zm-9.8,15.23,23.8,59.24h-47.67Zm164.51-15.23h-98.93v14.61h41.81v107.91h15.4V2231.26h41.72v-14.61Zm-1420.21,215H558.345l-49.767,122.52h16.006l13.382-33.43h59.389l13.469,33.43h16.531Zm-9.8,15.23,23.791,59.24H543.826Zm141.849-17.07c-36.736,0-63.412,26.43-63.412,63.1s26.676,63.1,63.412,63.1c21.166,0,39.446-9.46,49.767-24.77l-12.6-9.19c-8.046,11.99-21.429,19.17-37.172,19.17-26.939,0-47.319-19.52-47.319-48.31s20.38-48.31,47.319-48.31c15.831,0,29.3,7.44,37.26,19.25l12.857-8.66C750.049,2439.44,730.982,2429.81,709.553,2429.81Zm172.194,1.84H782.824v14.61h41.808v107.91h15.394V2446.26h41.721v-14.61Zm129.513,0H995.783v73.34c0,25.11-14.869,36.14-35.335,36.14s-35.424-11.03-35.424-36.14v-73.34H909.63v74.47c0,33.43,22.566,49.8,50.818,49.8s50.812-16.37,50.812-49.8v-74.47Zm93.83,0h-19.15l-49.77,122.52h16.01l13.38-33.43h59.39l13.47,33.43h16.53Zm-9.79,15.23,23.79,59.24h-47.67Zm174.38,92.67h-70.15v-107.9h-15.39v122.52h85.54v-14.62Zm115.17,0h-70.14v-107.9h-15.4v122.52h85.54v-14.62Zm109.05-107.9h-17.93l-37.61,57.32-37.61-57.32H1382.3l48.28,71.41v51.11h15.39v-50.94Zm246.54,0h-15.83l-32.71,105.19-33.59-105.28h-17.49l-33.5,105.28-32.8-105.19h-16.18l39.27,122.61h18.98l32.8-102.31,32.8,102.31h19.07Zm85.77-1.84c-36.73,0-63.41,26.43-63.41,63.1s26.68,63.1,63.41,63.1,63.41-26.43,63.41-63.1S1862.95,2429.81,1826.21,2429.81Zm0,14.79c26.94,0,47.32,19.52,47.32,48.31s-20.38,48.31-47.32,48.31-47.32-19.52-47.32-48.31S1799.27,2444.6,1826.21,2444.6Zm100.04-12.95v122.52h15.39v-52.86h14.34l42.07,52.86h19.07L1974,2501.31h0.96c26.24,0,42.77-13.65,42.77-34.92,0-22.31-15.22-34.74-42.85-34.74h-48.63Zm48.28,14.44c17.75,0,27.2,6.74,27.2,20.3,0,13.74-9.19,20.92-27.2,20.92h-32.89v-41.22h32.89Zm161.09,108.08h20.99l-60.7-62.49,56.94-60.03h-19.94l-49.68,53.64h-14.17v-53.64h-15.4v122.52h15.4v-54.35h13.99Zm135.9-110.88c-11.55-7.97-25.63-13.39-44.09-13.39-25.8,0-46.79,13.21-46.79,36.84,0,20.92,16.09,30.28,36.3,32.73l11.37,1.4c19.07,2.36,29.3,7.79,29.3,19.17,0,13.82-14.34,21.26-32.62,21.26-15.57,0-31.4-6.21-39.89-13.56l-8.4,12.25c11.81,9.89,30.88,15.93,48.29,15.93,26.5,0,48.63-12.78,48.63-37.2,0-21.61-17.76-30.01-38.49-32.55l-10.76-1.31c-18.36-2.28-27.72-7.97-27.72-19.08,0-13.22,12.77-21.27,30.7-21.27a64.068,64.068,0,0,1,36.3,11.29Zm44.32,88.65a11.99,11.99,0,1,0,11.9,11.9A12.219,12.219,0,0,0,2315.84,2531.94Z" transform="translate(-508.562 -2214.81)"/>
</svg>
