<svg id="Layer_1" data-name="Layer 1" xmlns="http://www.w3.org/2000/svg" viewBox="0 0 871 423"><defs><style>.cls-1{fill:#fff;}</style></defs><title>work</title><path class="cls-1" d="M410.28,179.11h-6l-3.06-11-3.06,11h-6l-5.38-18.68H392L395.19,173l3.38-12.56h5.38L407.33,173l3.17-12.56h5.17Z"/><path class="cls-1" d="M486,169.72a9.87,9.87,0,1,1-10-9.71H476a9.54,9.54,0,0,1,9.92,9.08Zm-14.57,0a4.65,4.65,0,1,0,4.64-4.86,4.57,4.57,0,0,0-4.64,4.43Z"/><path class="cls-1" d="M407,240.23c0,2.85-1.69,5-4.86,5.7l5.07,6.86h-5.81l-4.54-6.65h-.32v6.65h-5.07V234.11h8.34C404.58,234,407,236.32,407,240.23Zm-10.56-1.69v3.38h3.17c1.27,0,2.11-.53,2.11-1.69s-1-1.69-2.11-1.69Z"/><path class="cls-1" d="M473.83,245.51h-1.48v7.18h-5.07V234h5.07v7h1.48l4.75-7h6.23l-6.76,9.18,7.39,9.61h-6.23Z"/><polygon class="cls-1" points="448.31 196.67 448.31 196.35 448.31 143.13 430.56 143.13 430.56 196.35 377.76 196.35 377.76 214.2 430.56 214.2 430.56 214.93 430.56 269.73 448.31 269.73 448.31 214.51 501 214.51 501 196.67 448.31 196.67"/></svg>